<svg width="351" height="370" viewBox="0 0 351 370" fill="none" xmlns="http://www.w3.org/2000/svg">
<g style="mix-blend-mode:multiply" opacity="0.3">
<path d="M-3.05176e-05 219.692L228.153 351.356L350.154 280.969L122.001 149.305L-3.05176e-05 219.692Z" fill="#30343F"/>
<path d="M171.307 357.794C165.487 355.818 159.301 353.221 159.301 347.99C159.301 343.38 168.745 337.6 173.54 334.234C176.98 331.82 216.513 337.746 219.478 356.44C220.539 363.245 216.257 367.159 211.827 368.33C205.422 370.013 197.296 370.854 192.537 366.501C189.462 363.684 188.254 361.745 184.301 360.318C180.311 358.892 175.516 359.257 171.307 357.794Z" fill="#30343F"/>
</g>
<path d="M159.594 159.11L172.039 114.149C173.796 107.856 178.738 101.417 184.301 98.1981L210.73 82.9062C211.132 82.6867 211.462 82.6135 211.755 82.7233C211.864 82.7599 216.44 85.211 216.037 85.2841L186.9 102.113C183.752 104.052 178.372 109.612 176.834 115.21C176.834 115.21 164.316 160.317 163.584 162.585C163.584 163.024 165.121 166.317 165.121 166.317C165.121 166.39 160.509 163.756 160.509 163.756C159.374 162.915 159.045 161.232 159.63 159.11H159.594Z" fill="#BFC5C7"/>
<path d="M165.157 165.548C165.157 165.548 164.645 162.146 164.572 162.036C164.718 161.963 164.828 161.926 164.974 161.816L207.215 137.379C207.691 137.122 208.057 137.122 208.35 137.269C208.863 137.525 212.852 139.683 212.596 139.866C212.596 139.866 192.244 152.268 172.442 162.841C165.597 166.499 165.34 166.097 165.157 165.511V165.548Z" fill="#E0E0E0"/>
<g style="mix-blend-mode:screen" opacity="0.4">
<path d="M184.302 98.1976L193.672 92.7832L198.358 95.4904L186.864 102.112C183.716 104.051 178.335 109.612 176.798 115.209C176.798 115.209 174.968 121.831 172.662 130.135L168.342 127.647L172.076 114.148C173.833 107.856 178.774 101.417 184.338 98.1976H184.302Z" fill="#E6EDEF"/>
</g>
<g style="mix-blend-mode:screen" opacity="0.5">
<path d="M182.361 99.4785L186.9 102.113H186.864C183.716 104.088 178.335 109.612 176.798 115.209C176.798 115.209 176.798 115.209 176.798 115.283L172.478 112.795C174.235 107.673 178.005 102.661 182.361 99.4785Z" fill="#E6EDEF"/>
</g>
<path d="M163.657 161.342L176.102 116.381C177.859 110.088 182.801 103.65 188.365 100.43L214.793 85.1382C215.598 84.6627 216.22 84.9553 216.22 85.7602L188.365 101.894C183.386 104.747 179.031 110.454 177.493 116.051L165.121 160.83C164.718 162.33 164.828 163.647 165.524 164.342C166.329 165.11 167.61 165.037 169.074 164.232L211.315 139.794C212.121 139.319 212.743 139.611 212.743 140.416L169.294 165.586C167.464 166.646 165.707 166.903 164.572 166.061C163.437 165.22 163.108 163.5 163.693 161.378L163.657 161.342Z" fill="#A8AEAF"/>
<path d="M204.251 108.99L219.295 46.1757C220.283 42.0418 223.944 37.7981 227.494 36.7372C228.226 36.5177 228.922 36.4445 229.508 36.5177C231.557 36.7738 272.627 60.7726 279.655 64.9797C280.131 65.2724 258.535 128.818 258.059 129.111L253.63 138.805C253.63 138.805 203.592 111.624 204.251 108.99Z" fill="#443F3F"/>
<path d="M265.635 74.2359C265.635 74.2359 264.94 73.8335 263.695 73.1018C262.451 72.4067 260.694 71.3458 258.571 70.1752C256.448 69.0045 253.959 67.5777 251.287 66.1509C248.615 64.7242 245.723 63.1877 242.868 61.6512C239.976 60.1512 237.084 58.6879 234.376 57.2611C231.667 55.8709 229.105 54.6271 226.908 53.5296C224.712 52.4321 222.882 51.5907 221.601 50.9688C220.32 50.3834 219.588 50.0176 219.588 50.0176C219.588 50.0176 220.283 50.42 221.528 51.1517C222.772 51.8467 224.529 52.9077 226.652 54.0784C228.775 55.249 231.264 56.6758 233.936 58.1026C236.608 59.5293 239.5 61.0658 242.355 62.6023C245.247 64.1023 248.139 65.5656 250.847 66.9924C253.556 68.3825 256.118 69.6264 258.315 70.7239C260.511 71.8214 262.341 72.6628 263.622 73.2848C264.903 73.8701 265.635 74.2359 265.635 74.2359ZM262.268 78.9918C260.987 78.3699 259.157 77.5285 256.96 76.4309C254.801 75.3334 252.238 74.0896 249.53 72.6994C246.821 71.3092 243.929 69.8093 241.038 68.3094C238.182 66.7729 235.327 65.2364 232.619 63.773C229.947 62.3463 227.458 60.8829 225.334 59.7122C223.211 58.5416 221.454 57.4806 220.21 56.7489C219.002 56.0173 218.27 55.6149 218.27 55.6149C218.27 55.6149 219.002 55.9441 220.283 56.566C221.564 57.188 223.394 58.0294 225.591 59.1269C227.75 60.2244 230.349 61.4683 233.021 62.8584C235.73 64.2486 238.622 65.7485 241.477 67.2485C244.332 68.785 247.187 70.358 249.896 71.7848C252.568 73.2482 255.057 74.6749 257.18 75.8456C259.303 77.0163 261.06 78.0772 262.305 78.8089C263.512 79.5406 264.245 79.943 264.245 79.943C264.245 79.943 263.512 79.6137 262.231 78.9918H262.268ZM260.95 84.6257C259.669 84.0037 257.839 83.1257 255.643 82.0282C253.483 80.9307 250.921 79.6869 248.212 78.2601C245.503 76.8334 242.648 75.3334 239.756 73.8335C236.901 72.2604 234.046 70.7239 231.374 69.2606C228.702 67.7972 226.25 66.3704 224.09 65.1632C221.967 63.9559 220.21 62.895 219.002 62.1999C217.794 61.4683 217.099 61.0658 217.099 61.0658C217.099 61.0658 217.831 61.4317 219.112 62.017C220.393 62.6389 222.223 63.5169 224.419 64.6144C226.579 65.7119 229.141 66.9558 231.85 68.3825C234.559 69.8093 237.414 71.3092 240.306 72.8091C243.161 74.3822 246.016 75.9188 248.688 77.3821C251.36 78.8454 253.812 80.2722 255.935 81.4795C258.058 82.6867 259.815 83.7476 261.023 84.4427C262.231 85.1744 262.927 85.5768 262.927 85.5768C262.927 85.5768 262.195 85.211 260.914 84.6257H260.95ZM259.669 90.2961C258.388 89.6742 256.558 88.7962 254.398 87.6621C252.238 86.528 249.676 85.2842 246.967 83.8574C244.259 82.4306 241.404 80.8941 238.512 79.3942C235.657 77.8211 232.802 76.248 230.13 74.7847C227.458 73.3213 225.005 71.858 222.882 70.6873C220.759 69.4801 219.039 68.4191 217.794 67.6875C216.586 66.9558 215.891 66.5168 215.891 66.5168C215.891 66.5168 216.623 66.8826 217.904 67.4679C219.185 68.0899 221.015 68.9679 223.175 70.0654C225.334 71.1995 227.897 72.4433 230.605 73.8701C233.314 75.2968 236.169 76.8334 239.061 78.3333C241.916 79.9064 244.771 81.4795 247.443 82.9428C250.115 84.4062 252.568 85.8695 254.691 87.0402C256.814 88.2475 258.534 89.3084 259.779 90.04C260.987 90.7717 261.682 91.2107 261.682 91.2107C261.682 91.2107 260.95 90.8449 259.669 90.2595V90.2961ZM258.351 95.93C257.07 95.2715 255.24 94.4301 253.08 93.296C250.921 92.1619 248.358 90.918 245.686 89.4547C243.014 88.0279 240.122 86.4914 237.267 84.9549C234.412 83.3818 231.594 81.8087 228.922 80.3088C226.25 78.8455 223.797 77.3821 221.674 76.1749C219.551 74.9676 217.831 73.9067 216.586 73.175C215.378 72.4433 214.683 72.0043 214.683 72.0043C214.683 72.0043 215.415 72.3702 216.696 72.9921C217.977 73.6506 219.807 74.492 221.967 75.6261C224.127 76.7602 226.689 78.004 229.361 79.4674C232.033 80.8941 234.925 82.4306 237.78 83.9672C240.635 85.5403 243.453 87.1133 246.126 88.6133C248.798 90.0766 251.25 91.54 253.373 92.7472C255.496 93.9545 257.217 95.0154 258.461 95.7471C259.669 96.4788 260.365 96.9178 260.365 96.9178C260.365 96.9178 259.632 96.5519 258.351 95.93ZM257.034 101.564C255.752 100.905 253.922 100.027 251.763 98.8933C249.603 97.7592 247.041 96.4787 244.369 95.0154C241.696 93.552 238.805 92.0155 235.95 90.479C233.095 88.9059 230.276 87.2963 227.604 85.7963C224.932 84.2964 222.479 82.8331 220.393 81.6258C218.27 80.4185 216.549 79.321 215.342 78.5894C214.134 77.8577 213.438 77.4187 213.438 77.4187C213.438 77.4187 214.17 77.7845 215.451 78.4065C216.732 79.065 218.563 79.943 220.722 81.077C222.882 82.2111 225.444 83.4916 228.116 84.9549C230.788 86.4182 233.68 87.9548 236.535 89.4913C239.39 91.0644 242.209 92.6741 244.881 94.174C247.553 95.6739 250.006 97.1373 252.092 98.3445C254.215 99.5518 255.935 100.649 257.143 101.381C258.351 102.113 259.047 102.552 259.047 102.552C259.047 102.552 258.315 102.186 257.034 101.564ZM255.752 107.198C254.471 106.539 252.641 105.661 250.481 104.527C248.322 103.393 245.796 102.113 243.087 100.649C240.415 99.1859 237.56 97.6494 234.705 96.0763C231.887 94.4666 229.031 92.8936 226.396 91.3936C223.724 89.8937 221.308 88.4303 219.185 87.1865C217.062 85.9427 215.342 84.8818 214.134 84.1501C212.926 83.3818 212.23 82.9794 212.23 82.9794C212.23 82.9794 212.962 83.3452 214.243 83.9672C215.525 84.6257 217.355 85.5037 219.514 86.6378C221.674 87.7719 224.2 89.0523 226.908 90.5156C229.581 91.979 232.436 93.5155 235.291 95.0886C238.109 96.6983 240.964 98.2713 243.6 99.7713C246.272 101.271 248.688 102.735 250.811 103.978C252.934 105.222 254.654 106.283 255.862 107.015C257.07 107.783 257.766 108.186 257.766 108.186C257.766 108.186 257.034 107.82 255.752 107.198ZM254.435 112.795C253.154 112.137 251.323 111.259 249.2 110.088C247.041 108.954 244.515 107.637 241.843 106.173C239.171 104.71 236.316 103.137 233.461 101.564C230.642 99.9542 227.787 98.3445 225.151 96.8446C222.479 95.3446 220.063 93.8447 217.94 92.6375C215.817 91.3936 214.097 90.2961 212.889 89.5644C211.681 88.7962 210.986 88.3938 210.986 88.3938C210.986 88.3938 211.718 88.7596 212.999 89.3815C214.28 90.04 216.11 90.918 218.233 92.0887C220.393 93.2228 222.919 94.5398 225.591 96.0032C228.263 97.4665 231.118 99.0396 233.973 100.613C236.792 102.222 239.647 103.832 242.282 105.332C244.918 106.832 247.37 108.332 249.493 109.539C251.616 110.783 253.337 111.88 254.544 112.612C255.752 113.38 256.448 113.783 256.448 113.783C256.448 113.783 255.716 113.417 254.435 112.795ZM253.154 118.429C251.872 117.77 250.079 116.856 247.919 115.722C245.76 114.551 243.234 113.271 240.562 111.771C237.89 110.307 235.035 108.734 232.179 107.125C229.361 105.515 226.542 103.869 223.87 102.369C221.235 100.869 218.782 99.3689 216.696 98.125C214.609 96.8812 212.889 95.7837 211.645 95.052C210.437 94.2837 209.741 93.8447 209.741 93.8447C209.741 93.8447 210.473 94.2106 211.754 94.8325C213.036 95.491 214.829 96.4056 216.989 97.5397C219.148 98.7103 221.674 99.9908 224.346 101.491C227.018 102.954 229.873 104.527 232.728 106.137C235.547 107.746 238.365 109.393 241.038 110.893C243.673 112.393 246.126 113.893 248.212 115.136C250.298 116.38 252.019 117.478 253.263 118.209C254.471 118.978 255.167 119.417 255.167 119.417C255.167 119.417 254.435 119.051 253.154 118.429ZM251.872 123.99C250.628 123.331 248.798 122.417 246.638 121.246C244.478 120.075 241.953 118.758 239.281 117.258C236.609 115.758 233.753 114.185 230.935 112.612C228.116 110.966 225.298 109.356 222.662 107.82C220.027 106.283 217.611 104.783 215.488 103.539C213.402 102.296 211.681 101.198 210.473 100.43C209.265 99.6615 208.57 99.2225 208.57 99.2225C208.57 99.2225 209.302 99.5883 210.583 100.247C211.828 100.905 213.658 101.82 215.817 102.991C217.977 104.161 220.503 105.478 223.175 106.978C225.847 108.478 228.702 110.051 231.521 111.624C234.339 113.271 237.158 114.88 239.793 116.417C242.429 117.953 244.844 119.453 246.967 120.697C249.054 121.941 250.774 123.038 251.982 123.807C253.19 124.575 253.886 125.014 253.886 125.014L251.872 123.99ZM250.555 129.587C249.31 128.928 247.48 128.014 245.32 126.843C243.161 125.672 240.635 124.355 237.999 122.856C235.327 121.356 232.509 119.746 229.654 118.173C226.835 116.527 224.017 114.88 221.381 113.344C218.746 111.807 216.33 110.307 214.243 109.027C212.157 107.783 210.437 106.649 209.229 105.917C208.021 105.149 207.325 104.71 207.325 104.71C207.325 104.71 208.057 105.076 209.338 105.734C210.583 106.393 212.413 107.307 214.573 108.478C216.733 109.649 219.258 110.966 221.894 112.466C224.566 113.966 227.384 115.575 230.239 117.148C233.058 118.795 235.876 120.441 238.512 121.978C241.147 123.514 243.563 125.014 245.65 126.294C247.736 127.538 249.457 128.672 250.664 129.404C251.872 130.172 252.568 130.611 252.568 130.611C252.568 130.611 251.836 130.245 250.555 129.587Z" fill="#333030"/>
<path d="M219.331 45.9933C220.356 41.8959 223.98 37.762 227.458 36.701C228.19 36.4815 228.885 36.4084 229.471 36.4815C231.521 36.7376 272.59 60.7365 279.618 64.9436C279.765 65.0168 278.264 69.736 276.031 76.5772L219.331 45.9933Z" fill="url(#paint0_linear_210_937)"/>
<path d="M164.206 130.026L184.851 118.137C187.34 121.173 190.012 124.1 192.794 126.917L187.266 130.1L208.167 147.038L218.087 157.208L209.229 172.902C209.229 172.902 160.363 144.696 159.155 143.965C158.166 143.379 157.581 142.209 157.581 140.562C157.581 136.868 160.582 132.148 164.279 130.026H164.206Z" fill="url(#paint1_linear_210_937)"/>
<path d="M164.059 130.099L214.317 159.11L253.3 136.538C238.109 129.99 212.56 115.868 204.8 106.503L164.059 130.136V130.099Z" fill="#655E5E"/>
<path d="M214.097 172.281L264.537 143.087C266.88 141.733 266.88 128.38 264.537 129.734L214.097 158.928C210.4 161.049 207.398 165.769 207.398 169.464C207.398 173.159 210.4 174.402 214.097 172.281Z" fill="#333030"/>
<path d="M235.767 127.941C235.767 127.941 235.657 127.904 235.62 127.867C235.254 128.05 234.815 128.27 234.266 128.562C232.875 129.294 230.862 130.282 228.482 131.526C226.103 132.77 223.321 134.269 220.393 135.916C217.428 137.525 214.317 139.318 211.205 141.111C208.094 142.94 205.019 144.732 202.127 146.488C200.7 147.366 199.309 148.208 197.991 149.013C197.662 149.196 197.296 149.452 197.003 149.635C196.673 149.891 196.344 150.11 196.088 150.366C195.502 150.878 195.026 151.391 194.55 151.939C192.757 154.061 191.878 156.256 191.512 157.793C191.329 158.561 191.293 159.183 191.293 159.622C191.293 160.061 191.293 160.28 191.293 160.28C191.293 160.28 191.293 160.061 191.366 159.659C191.439 159.256 191.586 158.634 191.842 157.903C192.318 156.439 193.452 154.464 195.283 152.598C195.758 152.122 196.234 151.683 196.82 151.281C197.113 151.061 197.369 150.878 197.662 150.696C197.991 150.513 198.284 150.33 198.65 150.147C200.004 149.415 201.432 148.61 202.896 147.805C205.861 146.196 208.972 144.403 212.084 142.611C215.195 140.781 218.27 138.989 221.162 137.233C224.053 135.477 226.725 133.83 228.995 132.404C231.264 130.977 233.131 129.733 234.449 128.855C234.998 128.489 235.437 128.197 235.803 127.977L235.767 127.941ZM172.295 148.574C172.259 148.976 172.222 149.196 172.222 149.196C172.222 149.196 172.222 148.976 172.222 148.537C172.222 148.098 172.259 147.476 172.442 146.708C172.808 145.171 173.65 142.976 175.48 140.855C175.919 140.342 176.431 139.794 177.017 139.281C177.273 139.025 177.639 138.806 177.932 138.55C178.225 138.367 178.591 138.111 178.921 137.928C180.238 137.123 181.629 136.282 183.057 135.404C185.949 133.648 189.023 131.855 192.135 130.026C195.246 128.233 198.357 126.441 201.322 124.831C204.251 123.185 207.032 121.721 209.412 120.441C211.791 119.16 213.804 118.173 215.195 117.478C216 117.075 216.586 116.783 216.952 116.6C216.952 116.6 216.989 116.6 217.025 116.636C216.696 116.856 216.11 117.258 215.342 117.77C214.024 118.612 212.157 119.892 209.888 121.319C207.618 122.746 204.946 124.429 202.054 126.148C199.163 127.904 196.088 129.697 192.976 131.526C189.865 133.318 186.754 135.111 183.789 136.721C182.325 137.525 180.897 138.294 179.543 139.062C179.213 139.245 178.921 139.428 178.555 139.611C178.262 139.83 177.969 139.977 177.713 140.196C177.164 140.598 176.651 141.074 176.175 141.513C174.345 143.379 173.247 145.354 172.734 146.818C172.478 147.549 172.332 148.135 172.259 148.574H172.295Z" fill="#57534F"/>
<path d="M253.117 136.94L268.161 74.1264C269.15 69.9925 272.81 65.7488 276.361 64.6879C279.911 63.627 281.961 66.1146 280.973 70.2852L266.221 135.953C265.599 138.587 252.458 139.575 253.117 136.94Z" fill="#333030"/>
<path d="M171.819 194.999C174.564 192.439 172.844 187.975 172.478 184.28C172.258 182.232 172.551 180.183 172.99 178.171L160.216 176.817C160.142 178.134 160.069 179.488 159.996 180.805C159.85 184.098 159.667 187.463 158.276 190.463C156.848 193.609 142.39 198.255 146.416 203.011C146.855 203.523 147.514 203.853 148.136 204.109C152.016 205.609 156.592 205.17 160.142 203.011C163.071 201.255 165.267 198.402 168.342 196.902C169.55 196.316 170.904 195.914 171.856 195.036L171.819 194.999Z" fill="#513D37"/>
<path d="M192.683 205.205C195.429 202.645 193.708 198.181 193.342 194.486C193.123 192.438 193.415 190.389 193.818 188.377L181.043 187.023C180.97 188.34 180.897 189.694 180.824 191.011C180.677 194.304 180.494 197.669 179.103 200.669C177.676 203.815 163.217 208.461 167.244 213.217C167.683 213.729 168.342 214.059 168.964 214.315C172.844 215.815 177.419 215.376 180.97 213.217C183.898 211.461 186.095 208.608 189.169 207.108C190.377 206.523 191.732 206.12 192.683 205.242V205.205Z" fill="#513D37"/>
<path d="M218.929 112.978C211.132 111.149 204.177 108.295 200.883 102.332C200.114 100.942 199.455 98.8935 198.723 97.8691C198.723 98.7106 198.211 105.625 197.479 106.32C190.268 112.868 179.14 117.954 162.851 131.563C160.655 133.392 159.301 136.099 159.191 138.953L158.679 187.572C159.228 192.365 171.38 193.608 173.393 187.572L176.834 145.794C176.834 145.428 177.017 145.135 177.31 144.916C180.568 142.684 195.1 130.575 203.958 125.892C193.928 132.367 185.949 141.66 181.007 145.72C179.799 146.708 179.104 148.135 179.03 149.672C178.664 158.342 179.689 197.12 179.689 197.12C179.836 201.547 192.794 202.169 194.001 197.486L197.552 163.5C197.662 161.378 198.87 159.439 200.773 158.452C210.363 153.513 238.146 136.831 238.658 129.953C239.134 123.478 239.464 118.173 239.5 117.039C233.351 116.234 225.554 114.551 218.929 112.978Z" fill="#202021"/>
<path d="M195.612 105.662C202.493 110.966 206.447 112.247 215.231 113.344C222.369 114.259 232.033 111.881 234.119 110.417C234.632 111.478 234.485 115.393 234.302 116.564C233.424 117.368 226.323 119.929 215.89 119.271C206.007 118.649 198.943 115.429 195.136 110.82C194.88 110.308 195.246 106.43 195.648 105.625L195.612 105.662Z" fill="#232121"/>
<path d="M237.816 49.3586C235.181 41.9321 205.092 30.8107 202.31 32.7497C197.332 36.1885 194.77 38.6762 194.66 52.0292C194.514 67.3943 196.307 66.6992 194.587 93.4784C193.489 110.782 196.82 102.88 175.662 116.197C169.623 120.002 160.838 125.27 158.202 132.257C165.084 124.867 193.306 141.183 199.199 147.329C202.786 151.061 201.798 155.122 202.347 159.731C207.215 157.792 223.687 146.671 231.447 142.208C248.212 132.513 239.829 104.49 240.305 97.3929C240.671 91.6492 239.866 85.6861 240.049 79.8328C240.305 69.6625 241.33 59.1996 237.853 49.3952L237.816 49.3586Z" fill="#28282A"/>
<path d="M204.946 42.1874C205.202 40.5045 205.422 38.4192 206.227 36.8462C206.922 35.5291 208.899 35.9682 210.034 36.4437C212.01 37.2486 214.207 38.6387 215.122 40.6874C215.561 41.6386 215.671 42.8824 215.89 43.9434C216.183 45.2604 216.366 46.614 216.366 47.9676C216.366 49.4309 212.633 51.1138 211.059 51.7357C210.436 52.2113 211.315 59.0524 209.192 58.9061C206.959 58.7232 206.996 57.1501 207.252 49.3943C207.362 46.6506 204.69 44.6019 204.726 43.7239C204.726 43.2117 204.799 42.6995 204.909 42.1874H204.946Z" fill="#D6D6D4"/>
<path d="M208.057 37.5415C208.057 37.5415 208.13 37.2488 208.203 37.1025C208.386 36.5537 209.704 34.505 209.631 33.9197C209.594 33.3344 209.228 34.2855 207.654 36.2976C203.847 41.0535 207.727 46.6874 207.727 46.6874C207.727 46.6874 210.326 43.212 210.363 42.9924C210.509 42.4437 208.02 40.3218 207.91 39.6999C207.801 39.0048 207.874 38.2366 208.057 37.5415Z" fill="#EDEFE8"/>
<path d="M225.041 28.25C224.236 26.9695 221.893 27.4451 220.466 27.4085C218.233 27.372 216 27.3354 213.767 27.4451C213.218 27.4451 210.473 27.4085 210.29 28.2134C209.997 29.6401 208.13 32.6034 207.984 34.0302C207.069 38.7494 207.508 41.7859 210.363 42.9566L212.376 44.2004C218.892 48.7002 223.687 42.0054 224.748 41.2737C224.309 36.0057 225.59 30.8474 225.261 28.8353C225.224 28.5792 225.151 28.3597 225.041 28.1768V28.25Z" fill="#EFB289"/>
<path d="M210.363 42.9932L211.717 48.5539C218.123 50.3465 228.153 46.6881 226.579 38.8592C225.078 36.1155 224.748 36.5179 224.748 36.335C224.419 41.9323 220.502 43.2858 218.233 43.6883C216.549 43.9809 211.974 43.7614 210.363 42.9932Z" fill="#EDEFE8"/>
<path d="M204.397 39.4079C205.019 36.2983 207.252 34.1033 210.4 33.4082C210.4 33.4082 207.581 34.6886 206.703 37.908C206.007 40.3957 207.215 45.8832 207.947 47.1271C208.094 47.3831 208.167 47.6758 208.167 48.0051C208.094 49.5416 208.935 56.8583 208.935 56.8583C208.935 56.8583 210.107 51.3708 210.363 49.6513C210.473 48.9928 211.095 48.8099 211.754 48.7002C230.385 45.7735 225.371 36.8836 225.371 36.8836C228.702 38.8226 230.056 42.298 230.056 42.298C227.86 51.3708 211.425 53.0536 211.425 53.0536L211.205 60.5898L206.593 57.8095V50.2732C206.007 49.505 203.042 46.0296 204.397 39.3348V39.4079Z" fill="#28282A"/>
<path d="M205.861 34.3228C206.41 36.591 206.922 39.6274 209.155 40.103C213.182 40.981 221.82 38.786 222.918 35.7861C224.749 30.7376 226.506 25.5427 224.2 19.0308C223.284 16.4334 229.91 10.9824 227.64 9.08008C225.993 7.72648 220.576 1.06827 218.562 0.921932C206.849 0.00734216 203.884 6.73873 203.591 12.2994C203.445 15.1164 203.189 17.787 203.372 20.6039C203.958 29.5669 205.092 31.0668 205.898 34.3593L205.861 34.3228Z" fill="#F3BC97"/>
<path d="M209.522 0.812567C208.606 0.775983 208.094 1.94665 206.337 2.09299C205.166 2.16615 204.69 3.00758 203.592 4.76359C203.043 5.6416 203.152 6.59277 202.823 7.39761C202.567 7.98295 202.164 8.0927 201.871 9.04388C201.652 9.73897 201.725 11.4584 201.652 11.934C201.432 13.3607 200.846 13.4705 201.176 15.0436C201.652 17.1654 201.944 21.4457 203.445 22.5066C203.043 18.3361 202.091 10.5072 207.838 10.2511C209.741 10.178 211.388 10.6901 213.036 11.7145C214.939 12.9217 218.014 14.0558 219.112 16.1777C219.844 17.5679 219.222 17.8605 219.039 19.2141C218.819 20.9335 219.222 22.5798 219.697 24.2261C219.807 24.6285 220.32 24.7017 220.539 24.3358C221.235 23.2017 222.736 22.0676 224.2 23.4944C225.737 24.9578 225.115 27.4089 224.602 29.6405C224.126 31.616 223.651 33.9573 223.651 33.9573C225.444 33.4086 227.457 31.7623 228.629 29.3112C228.995 28.5429 228.958 27.8479 229.214 27.0796C229.361 26.6406 229.654 26.2748 229.764 25.8358C229.837 25.4699 229.764 25.1041 229.873 24.7382C230.02 24.1163 230.496 23.8237 230.715 23.2749C230.825 22.9822 230.715 22.5798 230.862 22.2506C231.045 21.8847 231.521 21.8481 231.704 21.4823C231.923 21.0067 231.704 17.8971 231.813 17.3118C232.216 15.7021 232.582 14.7143 231.996 13.0315C231.594 11.8608 231.63 10.7633 231.338 9.55605C231.008 8.23904 230.056 9.15362 229.69 7.83661C229.361 6.7391 228.995 5.82453 228.153 5.01969C226.433 3.37342 224.529 0.812562 222.296 0.922313C220.503 0.99548 218.929 -0.102028 217.025 0.00772283C214.5 0.190641 212.084 0.958895 209.522 0.849144V0.812567Z" fill="#21201B"/>
<path d="M212.084 189.694L224.53 144.733C226.287 138.44 231.228 132.001 236.792 128.782L263.22 113.49C263.623 113.271 263.952 113.198 264.245 113.307C264.355 113.344 268.93 115.795 268.528 115.868L239.391 132.697C236.243 134.636 230.862 140.196 229.325 145.794C229.325 145.794 216.806 190.901 216.074 193.169C216.074 193.608 217.611 196.901 217.611 196.901C217.611 196.974 212.999 194.34 212.999 194.34C211.864 193.499 211.535 191.816 212.121 189.694H212.084Z" fill="#BFC5C7"/>
<path d="M217.648 196.096C217.648 196.096 217.135 192.694 217.062 192.584C217.208 192.511 217.318 192.474 217.465 192.364L259.706 167.926C260.182 167.67 260.548 167.67 260.84 167.817C261.353 168.073 265.343 170.231 265.087 170.414C265.087 170.414 244.735 182.816 224.932 193.425C218.087 197.084 217.831 196.681 217.648 196.096Z" fill="#E0E0E0"/>
<g style="mix-blend-mode:screen" opacity="0.4">
<path d="M236.792 128.745L246.162 123.331L250.848 126.038L239.354 132.66C236.206 134.599 230.825 140.16 229.288 145.757C229.288 145.757 227.458 152.378 225.152 160.683L220.832 158.195L224.566 144.696C226.323 138.403 231.265 131.965 236.828 128.745H236.792Z" fill="#E6EDEF"/>
</g>
<g style="mix-blend-mode:screen" opacity="0.5">
<path d="M234.852 130.026L239.391 132.66H239.354C236.206 134.636 230.825 140.16 229.288 145.757C229.288 145.757 229.288 145.757 229.288 145.83L224.969 143.343C226.726 138.221 230.496 133.209 234.852 130.026Z" fill="#E6EDEF"/>
</g>
<path d="M216.147 191.889L228.592 146.928C230.349 140.635 235.291 134.196 240.855 130.977L267.283 115.685C268.088 115.21 268.71 115.502 268.71 116.307L240.855 132.44C235.877 135.294 231.521 141.001 229.983 146.598L217.611 191.377C217.208 192.877 217.318 194.194 218.014 194.889C218.819 195.657 220.1 195.584 221.564 194.779L263.805 170.341C264.611 169.865 265.233 170.158 265.233 170.963L221.784 196.132C219.954 197.193 218.197 197.449 217.062 196.608C215.927 195.767 215.598 194.047 216.184 191.925L216.147 191.889Z" fill="#A8AEAF"/>
<path d="M135.252 27.4453L135.435 157.427L27.8554 219.473L27.4894 85.4303L135.252 27.4453Z" fill="#68362C"/>
<path d="M301.324 159.293V163.976L240.268 199.389V194.706L301.324 159.293Z" fill="#773C2C"/>
<path d="M240.268 194.706V199.389L46.5598 87.6622V82.9795L240.268 194.706Z" fill="#6B3529"/>
<path d="M301.324 159.293L240.268 194.706L46.56 82.9793L107.615 47.5664L301.324 159.293Z" fill="#94513A"/>
<path opacity="0.7" d="M107.615 47.5664L117.682 53.3466L58.3099 87.8084L241.952 193.718L240.269 194.706L46.56 82.9793L107.615 47.5664Z" fill="#773C2C"/>
<path d="M222.479 199.717L20.2784 82.21V216.179L222.845 333.795L222.479 199.717Z" fill="#68362C"/>
<path d="M330.241 141.731L330.424 271.713L222.845 333.795L222.479 199.716L330.241 141.731Z" fill="#542A21"/>
<path opacity="0.5" d="M164.791 190.938C164.791 190.938 165.047 191.194 165.047 191.377V287.079C165.047 287.079 164.938 287.409 164.791 287.518C164.718 287.555 164.645 287.591 164.535 287.591C164.425 287.591 164.352 287.592 164.279 287.518L82.9446 240.764C82.9446 240.764 82.6884 240.508 82.6884 240.325V144.623C82.6884 144.623 82.7982 144.294 82.9446 144.184C83.091 144.111 83.2741 144.111 83.4205 144.184L164.755 190.938H164.791ZM164.059 191.633L83.6767 145.428V239.996L164.059 286.201V191.633Z" fill="#542A21"/>
<g opacity="0.9">
<path d="M98.5379 201.108C98.5379 219.656 111.569 242.192 127.638 251.484C143.707 260.776 156.738 253.24 156.738 234.692C156.738 216.144 143.707 193.608 127.638 184.316C111.569 175.024 98.5379 182.56 98.5379 201.108Z" fill="#F0B71A"/>
<path d="M106.261 205.718L112.704 197.377C112.484 197.121 112.228 196.865 112.045 196.572C111.898 196.352 112.008 196.133 112.155 196.243C112.155 196.243 112.191 196.243 112.228 196.279C112.521 196.535 112.814 196.755 113.07 196.938L113.143 196.828C113.143 196.828 113.436 196.974 113.472 197.011L113.546 197.194C114.021 197.413 114.497 197.56 114.973 197.523L125.515 203.596V202.389L126.32 202.864C126.32 200.596 126.503 198.73 126.796 197.706C126.357 197.231 126.064 196.572 126.064 196.06C126.064 195.292 126.686 195.035 127.455 195.474C128.224 195.913 128.846 196.901 128.846 197.633C128.846 198.182 128.553 198.438 128.114 198.401C128.407 199.755 128.59 201.877 128.59 204.108L129.395 204.584V205.791L139.864 211.827C140.34 212.413 140.816 212.815 141.291 213.144L141.365 213.035C141.365 213.035 141.657 213.144 141.694 213.218L141.767 213.437C142.06 213.583 142.353 213.73 142.609 213.766C142.609 213.766 142.646 213.766 142.682 213.766C142.865 213.876 142.975 214.205 142.792 214.242C142.573 214.315 142.353 214.315 142.133 214.278L148.576 230.083L149.198 230.448C149.198 231.729 148.173 232.168 146.892 231.436L135.947 225.144C134.666 224.412 133.641 222.802 133.641 221.522L134.41 221.961L140.706 213.803L129.359 207.767V211.315L128.26 210.693C128.7 218.449 128.992 229.973 128.992 234.985L133.641 237.655C134.446 238.094 135.105 239.046 135.252 239.887L135.471 239.997C136.643 240.655 137.594 242.155 137.594 243.326L117.316 231.619C117.316 230.448 118.267 230.046 119.439 230.741L119.658 230.851C119.805 230.192 120.464 230.009 121.269 230.485L125.918 233.156C125.918 228.144 126.211 216.949 126.65 209.706L125.552 209.084V205.535L114.131 198.401L120.427 213.803L121.196 214.242C121.196 215.522 120.171 215.961 118.89 215.23L107.945 208.937C106.664 208.206 105.639 206.596 105.639 205.315L106.261 205.681V205.718ZM141.548 226.095L148.319 230.009L141.914 214.352C141.914 214.352 141.657 214.242 141.511 214.205V226.095H141.548ZM134.703 222.144L141.328 225.985V214.132C141.328 214.132 141.145 214.096 141.072 214.022H140.999L134.703 222.144ZM113.509 209.925L120.134 213.766L113.838 198.365L113.765 198.291C113.765 198.291 113.582 198.145 113.509 198.072V209.925ZM113.289 209.779V197.889C113.289 197.889 113.033 197.706 112.887 197.596L106.481 205.864L113.253 209.779H113.289ZM116.071 183.914C119.768 183.914 123.758 185.121 127.931 187.536C142.39 195.877 154.139 216.217 154.139 232.9C154.139 244.46 148.283 251.96 139.242 251.96C135.545 251.96 131.555 250.752 127.382 248.338C112.923 239.997 101.173 219.656 101.173 202.974C101.173 191.414 107.03 183.914 116.071 183.914ZM127.931 247.35C131.921 249.655 135.728 250.825 139.242 250.825C147.734 250.825 153.041 243.948 153.041 232.9C153.041 216.583 141.548 196.682 127.419 188.524C123.429 186.219 119.622 185.048 116.108 185.048C107.616 185.048 102.345 191.926 102.345 202.974C102.345 219.29 113.838 239.192 127.968 247.35H127.931Z" fill="#D89000"/>
</g>
<path d="M71.1949 253.824L52.234 242.812L52.0144 110.489L70.9753 121.501L71.1949 253.824Z" fill="#68362C"/>
<path d="M77.6371 117.294L77.9299 249.946L71.1948 253.824L70.902 121.172L77.6371 117.294Z" fill="#542A21"/>
<path opacity="0.5" d="M56.1869 131.964C55.8941 131.782 55.6379 131.891 55.6379 132.184V238.789C55.6379 239.081 55.8941 239.484 56.1869 239.63C56.4798 239.813 56.736 239.703 56.736 239.41V132.806C56.736 132.513 56.4798 132.111 56.1869 131.964ZM61.4945 135.55V242.154C61.4945 242.447 61.2383 242.557 60.9455 242.374C60.6526 242.191 60.3964 241.825 60.3964 241.532V134.928C60.3964 134.635 60.6526 134.525 60.9455 134.708C61.2383 134.891 61.4945 135.257 61.4945 135.55ZM66.2531 138.33V244.935C66.2531 245.227 65.9968 245.337 65.704 245.154C65.4112 244.971 65.1549 244.605 65.1549 244.313V137.708C65.1549 137.415 65.4112 137.306 65.704 137.489C65.9968 137.671 66.2531 138.037 66.2531 138.33Z" fill="#542A21"/>
<path d="M35.6523 233.301L16.6548 222.29L16.4352 89.9668L35.4327 100.978L35.6523 233.301Z" fill="#68362C"/>
<path d="M42.0945 96.7715L42.3873 229.424L35.6522 233.301L35.3594 100.686L42.0945 96.7715Z" fill="#542A21"/>
<path opacity="0.5" d="M20.6079 111.442C20.3151 111.259 20.0589 111.369 20.0589 111.661V218.266C20.0589 218.559 20.3151 218.961 20.6079 219.108C20.9008 219.29 21.157 219.181 21.157 218.888V112.283C21.157 111.991 20.9008 111.588 20.6079 111.442ZM25.9155 115.064V221.668C25.9155 221.961 25.6593 222.071 25.3665 221.888C25.0736 221.705 24.8174 221.339 24.8174 221.046V114.442C24.8174 114.149 25.0736 114.039 25.3665 114.222C25.6593 114.405 25.9155 114.771 25.9155 115.064ZM30.7107 117.808V224.412C30.7107 224.705 30.4544 224.815 30.1616 224.632C29.8688 224.449 29.6126 224.083 29.6126 223.79V117.186C29.6126 116.893 29.8688 116.783 30.1616 116.966C30.4544 117.149 30.7107 117.515 30.7107 117.808Z" fill="#542A21"/>
<path d="M216.33 337.564L197.332 326.552L197.113 194.229L216.11 205.241L216.33 337.564Z" fill="#68362C"/>
<path d="M222.736 201.034L223.065 333.686L216.33 337.564L216 204.912L222.736 201.034Z" fill="#542A21"/>
<path opacity="0.5" d="M201.286 193.388C200.993 193.205 200.737 193.315 200.737 193.608V322.492C200.737 322.784 200.993 323.187 201.286 323.333C201.579 323.516 201.835 323.406 201.835 323.114V194.23C201.835 193.937 201.579 193.535 201.286 193.388ZM206.593 197.01V325.894C206.593 326.187 206.337 326.296 206.044 326.114C205.751 325.931 205.495 325.565 205.495 325.272V196.388C205.495 196.095 205.751 195.986 206.044 196.169C206.337 196.352 206.593 196.717 206.593 197.01ZM211.352 199.754V328.638C211.352 328.93 211.096 329.04 210.803 328.857C210.51 328.674 210.254 328.309 210.254 328.016V199.132C210.254 198.839 210.51 198.729 210.803 198.912C211.096 199.095 211.352 199.461 211.352 199.754Z" fill="#542A21"/>
<path d="M180.751 317.042L161.79 306.03L161.57 173.707L180.531 184.719L180.751 317.042Z" fill="#68362C"/>
<path d="M187.193 180.512L187.486 313.164L180.75 317.042L180.458 184.39L187.193 180.512Z" fill="#542A21"/>
<path opacity="0.5" d="M165.743 172.866C165.45 172.683 165.194 172.793 165.194 173.085V301.969C165.194 302.262 165.45 302.664 165.743 302.811C166.036 302.957 166.292 302.884 166.292 302.591V173.707C166.292 173.415 166.036 173.012 165.743 172.866ZM171.051 176.488V305.372C171.051 305.664 170.795 305.774 170.502 305.591C170.209 305.408 169.953 305.042 169.953 304.75V175.866C169.953 175.573 170.209 175.463 170.502 175.646C170.795 175.829 171.051 176.195 171.051 176.488ZM175.809 179.231V308.115C175.809 308.408 175.553 308.518 175.26 308.335C174.967 308.152 174.711 307.786 174.711 307.493V178.609C174.711 178.317 174.967 178.207 175.26 178.39C175.553 178.573 175.809 178.939 175.809 179.231Z" fill="#542A21"/>
<path d="M143.89 15.665L143.817 29.1644L39.7516 89.4176L39.8249 75.9182L143.89 15.665Z" fill="#773C2C"/>
<path d="M219.844 196.572L220.026 210.071L12.262 90.1868L12.3718 76.6875L219.844 196.572Z" fill="#773C2C"/>
<path d="M338.514 127.978L338.441 141.477L220.027 210.071L219.844 196.572L338.514 127.978Z" fill="#6B3529"/>
<path d="M338.514 127.977L219.844 196.571L12.372 76.687L130.749 8.09277L143.89 15.6656L39.825 75.9188L221.344 180.658L325.373 120.404L338.514 127.977Z" fill="#94513A"/>
<path d="M121.086 104.307L144.842 119.416L181.849 100.027L158.093 84.918L121.086 104.307Z" fill="url(#paint2_linear_210_937)"/>
<path d="M119.585 105.442L148.063 117.514L177.639 94.2835L149.161 82.2109L119.585 105.442Z" fill="url(#paint3_linear_210_937)"/>
<path d="M116.181 103.502L141.365 117.807L176.431 97.2466L151.284 82.9424L116.181 103.502Z" fill="url(#paint4_linear_210_937)"/>
<path d="M119.329 103.357L144.329 117.77L179.652 97.3934L154.652 82.9795L119.329 103.357Z" fill="url(#paint5_linear_210_937)"/>
<path d="M173.723 138.44L198.687 152.854L234.046 132.477L209.045 118.026L173.723 138.44Z" fill="url(#paint6_linear_210_937)"/>
<path d="M157.397 72.1872C158.568 70.358 159.447 69.48 161.423 71.0165C162.888 72.1506 163.876 74.0896 164.132 75.8822C164.645 79.5039 170.062 83.2355 169.183 86.7475C168.525 89.4181 165.486 100.54 162.009 99.1128C157.946 97.4665 154.578 76.5773 157.397 72.2238V72.1872Z" fill="#202021"/>
<path d="M158.935 77.1633C157.104 73.1757 156.775 71.5294 157.58 71.0172C158.422 70.5051 161.314 71.9318 161.314 71.9318L162.924 76.0292L163.29 79.0656L161.936 80.2363C161.936 80.2363 160.765 81.1143 158.898 77.1633H158.935Z" fill="#D6D6D4"/>
<path d="M140.413 78.7727C140.047 77.4191 143.268 77.9679 145.757 78.5166C146.343 78.3703 146.892 78.1874 147.404 77.9313C145.904 78.0044 144.366 78.041 143.854 77.602C143.231 77.0899 144.915 75.4802 145.684 75.2607C147.258 74.8217 148.393 74.5656 150.442 74.2729C151.321 74.1632 152.639 73.7973 153.554 73.5413C154.652 72.8462 155.75 72.1511 156.921 71.5657C158.276 70.8706 159.886 69.6268 161.46 69.4805C161.46 69.4805 164.938 71.1633 165.084 75.5533C165.084 75.5533 161.058 80.5287 159.264 81.6262C156.592 83.2725 157.47 83.4188 154.323 84.0042C153.298 84.1871 152.236 84.1139 151.248 84.0042C148.905 83.7481 146.453 83.3091 144.33 82.2481C143.012 81.5896 140.669 80.2726 140.45 78.6995L140.413 78.7727Z" fill="#F3BC97"/>
<path d="M166.072 77.3824C166.146 77.6019 166.329 77.7117 166.475 77.8946C164.206 79.1385 161.936 80.2726 161.936 80.2726C163.839 77.7483 159.996 70.7608 157.58 71.0535C157.58 71.0535 159.63 69.8096 161.314 68.9316C163.73 71.5291 164.791 74.1631 166.072 77.3824Z" fill="#EDEFE8"/>
<path d="M159.337 68.7849L179.14 59.4927C183.349 51.7004 190.853 35.1646 194.806 31.5062C196.929 29.5307 201.542 28.982 205.019 31.3965C205.165 31.8721 205.312 32.3111 205.422 32.7866C203.848 32.494 202.713 32.4574 202.274 32.7866C197.296 36.2255 194.733 38.7132 194.623 52.0662C194.55 60.0414 194.989 63.6998 195.209 69.1142C194.477 70.5043 193.928 71.6018 193.745 72.114C192.647 74.9675 165.889 97.8323 165.889 97.8323C163.217 99.8444 162.046 99.1859 162.046 99.1859C165.267 97.8323 167.683 76.5406 160.033 70.5775C159.154 69.8824 158.202 70.797 158.202 70.797C158.202 70.797 157.873 69.6629 159.337 68.8946V68.7849Z" fill="url(#paint7_linear_210_937)"/>
<path d="M182.801 86.894L194.807 102.661L183.826 83.0527L171.856 67.2852L182.801 86.894Z" fill="url(#paint8_linear_210_937)"/>
<path d="M186.425 90.1498L198.394 105.917L198.76 105.369L186.754 89.5645L186.425 90.1498Z" fill="#4C2A2A"/>
<path d="M181.3 87.625L193.306 103.393L198.394 105.917L186.425 90.1493L181.3 87.625Z" fill="#592E2E"/>
<path d="M210.876 87.7353L222.882 103.503L222.736 102.515L210.73 86.7109L210.876 87.7353Z" fill="#4C2A2A"/>
<path d="M186.754 89.5645L198.76 105.369L222.882 103.503L210.876 87.7354L186.754 89.5645Z" fill="#592E2E"/>
<path d="M171.856 67.2852L170.795 67.7241L181.666 87.0769L181.3 87.6256L186.425 90.1499L186.754 89.5646L210.876 87.7354L210.73 86.711L186.241 88.5768L182.801 86.894L171.856 67.2852Z" fill="#633939"/>
<path d="M199.602 99.4784C200.187 97.3932 200.773 96.2957 203.116 97.1737C204.873 97.8322 206.373 99.4053 207.106 101.052C208.643 104.381 208.497 108.295 208.68 111.88C208.789 114.624 209.155 126.148 205.385 125.819C200.993 125.416 198.211 104.49 199.602 99.4784Z" fill="#202021"/>
<path d="M200.92 95.8565L225.261 81.406C225.993 73.3576 231.008 46.2126 237.743 47.4564C242.246 48.2613 246.455 53.8586 246.931 60.6265C247.883 74.5283 240.598 94.6127 240.415 97.0638C240.196 100.1 208.423 124.465 208.423 124.465C207.801 124.904 206.886 126.075 205.385 125.782C205.385 125.782 209.375 125.782 208.167 112.283C207.618 105.99 207.252 97.9418 201.615 97.0638C200.846 96.9541 200.297 97.6126 200.297 97.6126C200.297 97.6126 199.931 96.7346 200.883 95.8931L200.92 95.8565Z" fill="url(#paint9_linear_210_937)"/>
<path d="M200.92 97.1368C200.224 97.4294 199.492 97.9782 198.943 98.6733C197.845 100.137 197.845 101.527 198.467 102.917C199.895 106.027 202.677 108.844 205.385 106.685C207.948 104.636 204.544 96.3319 200.92 97.1368Z" fill="#EDEFE8"/>
<path d="M203.848 101.819C205.019 104.087 204.873 106.502 203.555 107.197C202.237 107.928 200.188 106.648 199.053 104.38C197.882 102.112 198.028 99.6972 199.346 99.0021C200.663 98.2704 202.713 99.5508 203.848 101.819Z" fill="#D6D6D4"/>
<path d="M193.635 99.6611C193.635 99.6611 195.026 99.9172 196.307 99.6611C196.015 99.5147 195.722 99.3318 195.429 99.2221C194.514 98.8562 192.94 98.1611 193.196 96.8807C193.416 95.8564 194.953 96.4783 195.539 96.8807C196.234 97.3197 199.529 98.6367 200.48 99.0026C203.116 99.4781 204.397 103.502 204.397 103.502C203.994 104.271 197.991 106.283 196.49 106.246C193.892 106.173 189.353 101.015 189.243 100.539C188.987 99.5879 188.804 97.4661 188.804 97.4661C189.938 98.4538 193.635 99.6611 193.635 99.6611Z" fill="#F3BC97"/>
<path d="M188.291 334.345C188.291 334.345 188.401 335.259 188.474 335.625C188.401 336.649 188.511 338.808 187.669 339.539C185.656 341.369 183.825 341.771 181.263 343.49C179.543 344.698 176.944 347.185 174.894 347.954C172.844 348.685 169.623 349.417 167.427 349.307C164.535 349.124 162.192 348.429 161.9 345.356C161.753 343.527 163.254 342.1 163.437 341.991C164.901 340.93 170.794 340.491 173.869 338.991C177.09 337.381 180.385 335.881 183.496 334.162C184.887 333.393 188.804 331.455 188.291 334.381V334.345Z" fill="#232020"/>
<path d="M187.046 338.003C189.719 335.589 188.145 331.309 187.852 327.723C187.669 325.748 187.998 323.809 188.437 321.87L176.248 320.37C176.138 321.651 176.065 322.931 175.955 324.175C175.736 327.321 175.516 330.54 174.162 333.394C172.844 336.138 162.449 338.955 161.936 344.808C161.826 345.905 162.632 347.076 163.657 347.515C167.354 349.015 172.258 347.479 175.699 345.466C178.518 343.82 180.677 341.15 183.642 339.759C184.814 339.211 186.095 338.881 187.046 338.003Z" fill="#232020"/>
<path d="M216.623 349.49C216.623 349.49 216.916 350.112 217.025 350.515C217.025 351.539 217.025 353.771 216.476 354.722C213.072 360.356 208.167 367.233 203.445 368.111C199.236 368.88 195.1 367.599 194.148 365.221C193.855 364.49 194.038 363.173 194.331 361.929C194.843 359.88 196.381 358.307 198.394 357.649C199.785 357.21 201.286 356.588 202.603 355.234C205.129 352.637 208.863 351.429 211.864 349.527C213.219 348.686 217.025 346.527 216.659 349.527L216.623 349.49Z" fill="#232020"/>
<path d="M215.744 353.844C218.416 351.43 216.842 347.149 216.55 343.564C216.55 343.491 216.55 343.418 216.55 343.345C216.33 340.052 213.987 337.308 210.693 336.906L204.946 336.211C204.836 337.491 204.763 338.772 204.653 340.016C204.434 343.162 204.214 346.381 202.86 349.235C201.725 351.613 195.283 356.698 194.258 361.783C193.965 363.246 194.843 364.892 196.234 365.478C197.918 366.173 200.261 366.648 202.091 366.502C207.911 366.063 214.829 354.686 215.781 353.844H215.744Z" fill="#232020"/>
<path d="M175.736 246.874C178.774 249.398 210.217 247.496 213.877 248.52C216.257 260.044 215.561 281.665 214.719 301.201C216.806 319.163 217.135 345.503 217.135 345.503C216.147 349.089 203.701 348.576 203.372 345.796C203.152 345.357 197.772 318.614 194.99 304.676C194.99 304.676 193.233 287.811 192.793 283.97C191.22 295.677 189.719 324.98 188.987 331.529C188.547 335.406 175.663 334.053 174.711 330.98C174.345 328.675 172.698 290.811 172.698 290.811C172.698 290.811 173.576 269.739 175.699 246.874H175.736Z" fill="#2D2A2A"/>
<path d="M166.292 240.178C166.988 239.593 167.72 239.483 169.001 235.312C171.746 236.776 172.844 236.849 175.809 237.8C174.748 239.885 174.711 242.373 173.869 244.495C173.869 244.495 172.185 251.373 171.014 252.763C169.696 254.373 164.462 253.275 164.755 250.165C164.791 249.69 166.439 243.617 166.439 243.617C166.439 243.617 164.865 246.909 163.986 246.47C162.522 245.702 165.231 241.093 166.329 240.142L166.292 240.178Z" fill="#F3BC97"/>
<path d="M188.328 190.827C188.694 184.462 187.413 175.938 177.896 175.389C172.368 175.06 172.552 213.216 172.552 213.216L167.39 238.386C166.878 240.8 173.869 242.447 175.077 241.166L183.533 217.606C183.533 217.606 188.145 194.559 188.328 190.827Z" fill="#7DBFD9"/>
<path d="M212.742 188.925C210.29 187.059 205.605 184.718 202.457 183.255L184.813 176.267C181.556 174.987 179.945 174.877 178.627 175.462C174.638 177.328 176.028 188.413 176.175 193.535C176.285 197.925 177.859 230.667 176.065 243.142C175.919 244.13 176.175 245.154 176.834 245.922C182.288 252.105 202.017 254.227 212.559 249.032C212.559 235.386 217.464 208.57 217.537 206.961C217.794 200.742 218.196 193.169 212.669 188.925H212.742Z" fill="#6DAEC7"/>
<path d="M176.248 241.972C182.764 246.984 186.497 248.191 194.807 249.252C201.542 250.093 210.693 247.862 212.669 246.471C213.145 247.459 213.035 251.191 212.816 252.288C212.01 253.057 205.275 255.471 195.392 254.849C186.058 254.264 179.36 251.191 175.736 246.874C175.516 246.398 175.846 242.74 176.248 241.972Z" fill="#232121"/>
<path d="M216.549 255.691C216.842 255.252 217.099 249.581 217.208 246.106C217.245 244.569 215.854 243.362 214.353 243.691C211.059 244.386 206.74 246.179 204.617 247.971C204.031 248.447 203.775 249.179 203.775 249.947C203.921 255.142 205.275 271.385 206.593 271.751C208.789 272.409 211.608 271.458 211.791 269.227L212.413 262.129C212.999 259.349 215.049 257.922 216.549 255.691Z" fill="#232121"/>
<path d="M202.237 169.317C202.237 169.317 188.254 169.61 188.108 170.927C187.961 172.207 187.705 173.817 187.705 175.097C187.705 177.073 187.266 179.926 186.497 181.755C187.12 182.048 188.803 182.341 188.803 182.341C188.803 182.341 189.426 186.401 189.462 186.548L191.988 184.243C191.988 184.243 198.028 187.572 199.748 187.023C200.956 186.621 202.31 186.182 202.53 184.755C202.603 184.353 202.64 183.95 202.64 183.511C202.64 182.121 202.42 180.585 202.383 179.231C202.237 176.012 201.725 172.463 202.274 169.28L202.237 169.317Z" fill="#EFB289"/>
<path d="M204.324 252.471C205.056 248.154 205.532 247.715 205.861 247.532C206.264 247.02 206.776 246.325 207.398 245.483C207.142 242.484 205.385 240.728 200.334 241.898C199.638 243.105 198.906 244.276 198.321 245.008C197.259 246.361 194.074 247.825 193.745 249.105L197.149 249.617C196.82 250.459 196.6 252.142 196.454 252.617C196.161 253.715 196.271 254.922 196.747 255.946C197.735 258.032 199.126 259.056 202.201 258.983C204.36 258.91 203.884 254.885 204.287 252.507L204.324 252.471Z" fill="#F3BC97"/>
<path d="M222.589 198.327C220.576 193.023 218.416 190.352 214.61 191.486C211.242 192.51 209.448 195.327 209.485 198.839C209.631 210.4 214.39 228.582 214.39 228.582C214.39 228.582 195.722 240.837 198.98 244.093C199.163 243.069 205.056 243.142 205.495 247.971C205.495 247.971 208.094 246.435 211.498 244.752C217.538 241.789 226.067 237.289 227.092 231.728C228.226 225.545 223.907 201.839 222.553 198.327H222.589Z" fill="#7DBFD9"/>
<path d="M222.955 203.486C222.699 202.535 222.003 202.022 221.052 202.022C219.88 202.022 218.709 202.864 218.087 203.339C216.293 204.766 214.719 207.034 215.232 208.973C215.891 211.424 218.05 214.9 220.283 214.863C220.722 214.863 221.162 214.717 221.528 214.424C223.724 212.705 223.687 206.266 222.955 203.486Z" fill="#353131"/>
<path d="M222.223 203.961C222.918 206.485 222.882 212.192 221.088 213.619C219.258 215.046 216.732 211.387 216.073 208.863C215.634 207.29 217.062 205.314 218.563 204.144C220.063 202.973 221.857 202.424 222.26 203.997L222.223 203.961ZM221.747 204.327C221.454 203.229 219.99 203.705 218.672 204.729C217.355 205.753 216.22 207.363 216.513 208.46C217.172 210.948 219.514 214.058 220.905 212.96C222.296 211.863 222.406 206.778 221.747 204.29V204.327ZM218.892 205.461C218.05 206.119 217.281 207.217 217.501 208.095C217.867 209.485 219.295 211.534 220.283 210.729C221.271 209.924 221.308 206.778 220.905 205.351C220.686 204.473 219.661 204.802 218.855 205.424L218.892 205.461Z" fill="#7DBFD9"/>
<path d="M206.447 190.28C206.447 190.28 213.328 194.707 213.585 194.853C214.024 195.109 216.586 194.048 217.208 192.914C217.721 191.963 210.986 188.012 210.071 188.085C210.034 188.085 206.593 189.841 206.483 190.28H206.447Z" fill="#353131"/>
<path d="M216.806 192.146C216.586 191.926 216.294 191.67 215.964 191.414L211.938 193.829C212.304 194.085 212.67 194.304 212.926 194.45L216.806 192.146Z" fill="#FFD671"/>
<path d="M210.473 192.877C210.803 193.097 211.132 193.316 211.462 193.499L215.525 191.048C215.232 190.829 214.902 190.609 214.573 190.39L210.473 192.841V192.877Z" fill="#FFD671"/>
<path d="M182.801 178.389C182.801 178.389 176.761 176.963 175.773 176.524C175.333 176.341 177.932 174.621 179.287 174.768C180.348 174.841 185.18 176.085 185.729 176.78C185.729 176.78 183.789 178.024 182.837 178.389H182.801Z" fill="#353131"/>
<path d="M182.068 175.389C181.629 175.279 181.226 175.169 180.824 175.06L178.005 177.181C178.408 177.291 178.811 177.401 179.25 177.511L182.068 175.389Z" fill="#FFD671"/>
<path d="M177.42 177.036L180.202 174.914C179.799 174.841 179.47 174.768 179.25 174.768C179.067 174.768 178.884 174.768 178.701 174.768L176.212 176.67C176.541 176.78 176.944 176.889 177.42 177.036Z" fill="#FFD671"/>
<path d="M187.925 189.511C187.376 188.23 186.791 186.401 186.937 184.974C187.047 183.767 186.937 182.377 188.218 182.853C189.463 183.292 191.549 184.206 192.464 185.011C193.672 186.072 193.453 187.096 193.233 188.45C192.867 190.791 188.987 191.998 187.925 189.547V189.511Z" fill="#353131"/>
<path d="M187.523 177.658C187.523 177.658 187.12 179.78 187.047 180.109C186.974 180.658 187.486 181.792 188.804 182.377C187.376 183.475 185.875 184.975 184.375 186.365C184.265 185.926 184.924 182.012 185.802 179.89C186.315 178.683 187.523 177.695 187.523 177.658Z" fill="#86CBE0"/>
<path d="M191.988 184.243C191.988 184.243 193.306 187.792 194.111 191.743C204.104 190.938 204.983 187.829 205.642 186.219C205.239 185.012 204.104 182.085 203.555 180.366C203.555 180.366 202.457 180.036 202.42 179.78C202.677 182.487 199.236 183.878 197.332 184.353C195.942 184.682 193.416 184.829 191.988 184.28V184.243Z" fill="#86CBE0"/>
<path d="M204.617 199.425C204.69 198.584 204.287 197.669 203.555 196.974C202.677 196.133 201.542 195.803 200.956 195.694C199.236 195.401 197.442 195.84 197.223 197.486C196.966 199.572 197.479 203.486 199.199 205.132C199.529 205.462 199.931 205.681 200.297 205.791C202.53 206.376 204.397 201.949 204.58 199.462L204.617 199.425Z" fill="#E0B555"/>
<path d="M203.885 199.169C203.702 201.438 202.018 205.316 200.151 204.84C198.321 204.401 197.552 200.084 197.808 197.926C197.991 196.572 199.565 196.243 201.029 196.499C202.494 196.792 203.994 197.779 203.885 199.169ZM203.445 199.06C203.518 198.072 202.274 197.304 200.993 197.048C199.748 196.792 198.394 197.048 198.284 197.999C198.028 200.157 198.833 203.962 200.224 204.291C201.652 204.657 203.226 201.291 203.409 199.06H203.445ZM200.92 197.706C200.114 197.56 199.199 197.706 199.126 198.474C198.98 199.682 199.419 202.096 200.444 202.352C201.469 202.572 202.384 200.45 202.494 199.206C202.567 198.438 201.725 197.889 200.92 197.743V197.706Z" fill="#FFD671"/>
<path d="M185.583 178.207C186.351 180.073 188.145 182.56 190.085 182.45C193.709 182.231 199.675 181.207 200.517 178.573C201.908 174.109 203.226 169.5 200.956 164.012C200.041 161.817 198.54 159.586 196.454 158.086C194.953 156.988 193.269 156.33 191.622 155.708C186.791 153.952 182.874 154.318 182.874 159.147C182.874 161.598 182.545 164.049 182.837 166.463C183.716 174.183 184.485 175.573 185.583 178.207Z" fill="#F3BC97"/>
<path d="M182.728 161.122C182.728 161.122 183.277 157.684 184.338 157.501C186.644 157.135 193.343 160.647 194.368 161.708C195.429 162.805 195.173 164.598 196.088 165.988C197.04 167.415 196.088 170.817 196.893 171.329C198.357 172.28 199.273 170.561 200.627 170.963C201.871 171.329 201.835 172.683 201.762 173.488C201.652 175.061 201.139 176.89 201.139 176.89C207.325 173.927 209.339 168.586 209.888 163.391C210.181 160.427 210.473 150.623 203.226 148.538C203.226 148.538 199.968 143.892 193.416 145.135C190.854 145.611 188.657 146.709 186.608 148.355C183.203 151.099 181.044 156.732 182.728 161.122Z" fill="#352920"/>
<path d="M188.803 188.999L190.158 190.426L191.109 230.485C191.109 231.29 190.926 232.058 190.487 232.753L187.046 238.314C186.827 238.643 186.314 238.57 186.241 238.167L183.715 227.741C183.606 227.229 183.569 226.717 183.642 226.205L188.803 188.999Z" fill="#353131"/>
<path d="M178.555 210.985L182.288 212.595C183.094 212.924 183.972 212.339 183.972 211.498V205.864L177.31 202.974V209.083C177.31 209.888 177.786 210.656 178.555 210.949V210.985Z" fill="#7DBFD9"/>
<path d="M196.417 218.632L200.261 219.802C201.066 220.058 201.981 219.363 201.981 218.485V212.851L195.136 210.803V216.912C195.136 217.717 195.648 218.412 196.417 218.632Z" fill="#7DBFD9"/>
<path d="M176.761 202.718L184.704 206.303V201.84L176.761 198.255V202.718Z" fill="#353131"/>
<path d="M194.55 210.583L202.713 213.217V208.754L194.55 206.12V210.583Z" fill="#353131"/>
<path d="M177.566 241.313L179.543 242.082C180.348 242.411 180.97 243.289 180.97 244.13L180.751 252.252C180.751 252.91 178.92 254.227 178.188 253.935L176.212 253.166C175.406 252.837 174.784 251.959 174.784 251.118L175.004 242.996C175.004 242.338 176.834 241.021 177.566 241.313Z" fill="#232121"/>
<path d="M183.203 243.289L185.18 244.057C185.985 244.386 186.607 245.264 186.607 246.106L186.388 254.227C186.388 254.886 184.557 256.203 183.825 255.91L181.849 255.142C181.043 254.813 180.421 253.935 180.421 253.093L180.641 244.972C180.641 244.313 182.471 242.996 183.203 243.289Z" fill="#232121"/>
<defs>
<linearGradient id="paint0_linear_210_937" x1="253.959" y1="49.9809" x2="247.047" y2="61.9837" gradientUnits="userSpaceOnUse">
<stop stop-color="#655E5E"/>
<stop offset="0.04" stop-color="#625C5C"/>
<stop offset="0.63" stop-color="#4C4646"/>
<stop offset="1" stop-color="#443F3F"/>
</linearGradient>
<linearGradient id="paint1_linear_210_937" x1="199.931" y1="126.844" x2="182.303" y2="157.399" gradientUnits="userSpaceOnUse">
<stop stop-color="#514B4B"/>
<stop offset="0.28" stop-color="#4C4646"/>
<stop offset="1" stop-color="#443F3F"/>
</linearGradient>
<linearGradient id="paint2_linear_210_937" x1="156.226" y1="110.38" x2="157.725" y2="112.942" gradientUnits="userSpaceOnUse">
<stop stop-color="#F0EFEF"/>
<stop offset="1" stop-color="#F5F5F5"/>
</linearGradient>
<linearGradient id="paint3_linear_210_937" x1="153.078" y1="91.2471" x2="145.398" y2="106.067" gradientUnits="userSpaceOnUse">
<stop stop-color="#F0EFEF"/>
<stop offset="1" stop-color="#F5F5F5"/>
</linearGradient>
<linearGradient id="paint4_linear_210_937" x1="144.952" y1="109.612" x2="142.429" y2="126.404" gradientUnits="userSpaceOnUse">
<stop stop-color="#F0EFEF"/>
<stop offset="1" stop-color="#F5F5F5"/>
</linearGradient>
<linearGradient id="paint5_linear_210_937" x1="163.067" y1="113.946" x2="135.905" y2="86.7687" gradientUnits="userSpaceOnUse">
<stop stop-color="#F5F5F5"/>
<stop offset="1" stop-color="#F9F8F8"/>
</linearGradient>
<linearGradient id="paint6_linear_210_937" x1="217.447" y1="148.997" x2="190.285" y2="121.82" gradientUnits="userSpaceOnUse">
<stop stop-color="#F5F5F5"/>
<stop offset="1" stop-color="#F9F8F8"/>
</linearGradient>
<linearGradient id="paint7_linear_210_937" x1="197.918" y1="66.5167" x2="162.01" y2="62.1219" gradientUnits="userSpaceOnUse">
<stop stop-color="#28282A"/>
<stop offset="1" stop-color="#363638"/>
</linearGradient>
<linearGradient id="paint8_linear_210_937" x1="194.807" y1="84.9916" x2="171.856" y2="84.9916" gradientUnits="userSpaceOnUse">
<stop stop-color="#DBDBDB"/>
<stop offset="1" stop-color="#F9F8F8"/>
</linearGradient>
<linearGradient id="paint9_linear_210_937" x1="243.6" y1="87.1131" x2="198.797" y2="86.1242" gradientUnits="userSpaceOnUse">
<stop stop-color="#28282A"/>
<stop offset="1" stop-color="#363638"/>
</linearGradient>
</defs>
</svg>
