<svg width="303" height="376" viewBox="0 0 303 376" fill="none" xmlns="http://www.w3.org/2000/svg">
<path d="M301.48 214.159V210.894H288.815L235.424 180.068L220.221 191.64L210.346 185.939L67.894 268.179L124.022 300.584H138.93L143.124 298.163H155.32V294.898H148.78L288.632 214.159H301.48Z" fill="#BFAB99"/>
<path d="M291.857 23.0928L254.502 1.52601C248.358 -2.02085 243.362 0.826459 243.362 7.87742V180.803H243.371C243.367 181.074 243.542 181.344 243.898 181.551C244.609 181.961 245.765 181.958 246.48 181.546C246.846 181.334 247.013 181.059 247.006 180.782H247.013V9.9849C247.013 5.24651 250.373 3.33153 254.502 5.71583L291.857 27.2826C295.987 29.6669 299.349 35.4622 299.349 40.2006V213.105H299.351C299.347 213.376 299.522 213.646 299.88 213.852C300.591 214.263 301.747 214.261 302.461 213.847C302.818 213.642 302.995 213.373 302.997 213.105H303V42.3081C303 35.2584 298.001 26.6397 291.857 23.0928Z" fill="#B7B7B7"/>
<path d="M157.026 268.925L100.898 236.52V226.893L157.026 259.298V268.925Z" fill="#7A727A"/>
<path d="M157.026 259.297L100.898 226.892L243.466 144.602L299.594 177.008L157.026 259.297Z" fill="#676063"/>
<path d="M299.594 177.008V186.636L157.026 268.924V259.297L299.594 177.008Z" fill="#DCDCDC"/>
<path d="M266.451 119.899V159.977C266.459 160.276 266.265 160.576 265.87 160.807C265.087 161.258 263.817 161.256 263.031 160.799C262.636 160.573 262.439 160.276 262.439 159.977V117.581L266.451 119.899Z" fill="#B7B7B7"/>
<path d="M282.524 129.358V169.436C282.532 169.735 282.338 170.035 281.943 170.266C281.16 170.717 279.889 170.715 279.104 170.258C278.709 170.032 278.512 169.733 278.512 169.436V127.04L282.524 129.358Z" fill="#B7B7B7"/>
<path d="M299.54 141.292L246.997 110.962C246.997 110.962 244.214 109.768 244.914 107.947C245.749 105.773 246.997 106.129 246.997 106.129L299.54 136.458V141.292Z" fill="#7A727A"/>
<path d="M157.026 256.833L100.898 224.428V217.516L299.478 167.682V174.593L157.026 256.833Z" fill="#7389AF"/>
<path d="M100.898 217.517V224.428L157.026 256.833V249.922L100.898 217.517Z" fill="#49628F"/>
<path d="M157.026 249.921L100.898 217.516L243.349 135.276L299.478 167.681L157.026 249.921Z" fill="#A0B4E1"/>
<path d="M160.023 183.374L104.872 217.52L157.091 247.848L216.151 215.78L157.026 249.923L100.898 217.518L160.023 183.374Z" fill="#B7C7EB"/>
<path d="M190.225 230.787C190.225 230.787 183.621 223.949 182.225 222.649C180.83 221.35 175.855 213.381 175.855 213.381C175.855 213.381 166.182 205.086 175.903 199.696C185.624 194.307 213.905 199.011 214.47 199.423C215.035 199.834 231.736 206.827 231.736 206.827L190.225 230.787Z" fill="#5D627A"/>
<path d="M231.056 244.18L230.697 248.207C230.697 248.207 230.976 249.564 232.572 250.082C234.166 250.601 237.635 251.358 237.635 251.358L244.468 255.027C244.468 255.027 248.121 256.98 249.316 256.98C250.513 256.98 252.068 255.823 252.068 255.823L251.829 252.154L249.078 248.816L243.935 246.373L240.227 243.263L231.056 244.18Z" fill="#322C2D"/>
<path d="M214.43 259.769L217.26 265.271C217.26 265.271 221.168 269.896 221.207 270.215C221.248 270.534 221.965 273.684 221.207 274.322C220.45 274.959 217.06 275.518 217.06 275.518C217.06 275.518 212.156 274.68 211.398 273.923C210.641 273.165 208.369 269.895 207.889 268.421C207.411 266.946 206.454 264.593 206.454 264.593C206.454 264.593 204.261 263.234 203.862 260.785C203.465 258.334 208.887 252.353 214.43 259.769Z" fill="#322C2D"/>
<path d="M244.8 225.96V242.437L244.468 244.492L244.321 245.417L242.726 247.279L239 248.817L232.301 247.969L229.38 245.843L228.582 243.662L229.38 241.428C229.38 241.428 229.38 240.58 229.38 240.153C229.38 239.725 230.228 238.131 230.228 238.131L231.134 235.529C231.134 235.529 229.858 233.245 229.858 233.027C229.858 232.817 228.85 227.924 228.85 227.924C228.85 227.924 228.742 224.683 228.69 224.365C228.632 224.046 226.987 220.008 226.987 219.529C226.987 219.051 226.298 216.55 226.298 216.55L217.896 214.476L210.771 210.221L205.246 208.148L205.884 211.605L209.921 218.144L211.357 222.265L212.047 224.255C212.047 224.255 211.727 228.402 211.677 230.054C211.67 230.239 211.721 230.578 211.81 231.043C212.556 234.769 216.091 246.373 216.091 246.373L216.671 250.679C216.671 250.679 217.844 253.39 217.896 255.304C217.902 255.572 217.883 255.89 217.838 256.229V256.241C217.595 258.308 216.62 261.313 216.62 261.313L213.111 262.749C213.111 262.749 209.972 263.967 208.434 264.344C206.89 264.714 201.895 261.575 201.895 261.575C201.895 261.575 201.098 258.705 201.149 257.965C201.201 257.219 201.895 255.995 201.947 255.094C201.997 254.188 202.317 252.804 202.572 252.542C202.828 252.274 202.477 250.201 201.309 248.077C200.141 245.947 199.605 244.671 198.757 241.698C197.909 238.718 197.533 236.964 197.533 236.964C197.533 236.964 197.003 233.456 197.003 232.817C197.003 232.179 196.206 231.382 195.887 230.534C195.568 229.679 195.09 227.766 194.93 227.126C194.77 226.489 190.413 224.097 188.123 221.705C185.839 219.313 181.904 215.542 180.576 213.47C179.249 211.396 178.503 210.063 178.184 208.737C177.866 207.41 176.641 206.874 176.219 205.547C175.957 204.724 175.894 202.67 175.887 201.229C175.887 200.348 175.899 199.698 175.899 199.698L177.959 197.963L191.101 186.889L206.941 185.186C206.941 185.186 213.748 187.737 218.959 190.129C224.164 192.521 235.915 200.074 235.915 200.074C235.915 200.074 239.851 203.263 240.489 204.801C241.126 206.345 243.78 215.225 243.78 215.225L244.8 225.96Z" fill="#FF683B"/>
<path d="M212.049 224.255C212.049 224.255 211.729 228.402 211.679 230.054C211.673 230.239 211.723 230.578 211.812 231.043L211.538 230.634L211.135 225.321L209.444 221.493L207.263 218.992L211.358 222.265L212.049 224.255Z" fill="#EB4A31"/>
<path d="M216.992 258.602C217.356 257.588 217.63 256.822 217.84 256.242C217.598 258.309 216.623 261.314 216.623 261.314L213.113 262.749C213.113 262.749 209.974 263.967 208.437 264.345C206.893 264.715 201.898 261.575 201.898 261.575C201.898 261.575 201.1 258.705 201.152 257.966C201.203 257.22 201.898 255.995 201.949 255.094C202 254.189 202.319 252.805 202.575 252.543C202.83 252.275 202.479 250.201 201.311 248.077C200.144 245.947 199.608 244.672 198.76 241.698C197.912 238.719 197.535 236.965 197.535 236.965C197.535 236.965 197.006 233.457 197.006 232.818C197.006 232.18 196.208 231.382 195.89 230.534C195.57 229.68 195.092 227.766 194.932 227.127C194.772 226.489 190.415 224.097 188.125 221.706C185.842 219.314 181.906 215.543 180.579 213.471C179.251 211.397 178.505 210.063 178.187 208.737C177.868 207.411 176.643 206.875 176.221 205.548C175.96 204.725 175.897 202.67 175.889 201.23L177.963 197.963L187.864 194.812L190.837 195.597L187.213 197.843L182.812 199.698L179.342 201.192L178.238 203.424L178.614 207.092L180.47 211.181L184.726 216.87C184.726 216.87 185.951 219.53 188.075 220.328C190.199 221.124 191.794 222.215 194.084 224.781C196.368 227.345 196.368 227.345 196.368 227.345L198.014 227.185L197.592 230.904L198.39 232.608L199.449 227.715L202.575 224.781L201.579 227.664L200.246 229.418L199.238 234.464V235.638L201.63 233.666L202.159 230.425C202.159 230.425 204.711 227.981 204.819 227.822C204.927 227.662 202.957 234.462 202.957 234.462L201.152 236.536L200.514 237.492L201.101 241.11L201.899 244.619L202.856 247.49L204.074 250.31C204.074 250.31 205.618 245.786 205.778 245.684C205.938 245.576 207.584 242.117 207.532 240.683C207.48 239.247 207.424 235.848 207.64 236.377C207.85 236.913 209.337 244.778 209.337 244.778L208.062 249.136L206.576 251.209L204.98 254.239C204.98 254.239 204.82 255.515 204.552 255.891C204.291 256.261 203.225 258.283 203.225 258.283L203.333 260.298C203.333 260.298 203.913 261.153 205.189 261.204C206.465 261.256 207.371 262.748 207.531 262.748C207.69 262.748 209.285 260.139 209.285 260.139L206.733 258.175L209.603 256.21L210.343 254.935C210.343 254.935 211.625 256.37 211.835 256.632C212.045 256.9 211.885 257.908 211.885 257.908L210.342 258.386L210.08 261.843L212.951 261.314L215.293 259.662C215.295 259.66 215.507 262.748 216.992 258.602Z" fill="#EB4A31"/>
<path d="M244.468 244.491L244.321 245.416L242.725 247.278L239 248.816L232.301 247.968L229.379 245.843L228.582 243.661L229.379 241.428C229.379 241.428 229.379 240.58 229.379 240.152C229.379 239.724 230.227 238.13 230.227 238.13L231.133 235.528C231.133 235.528 229.857 233.244 229.857 233.027C229.857 232.816 228.85 227.923 228.85 227.923C228.85 227.923 228.741 224.682 228.69 224.364C228.632 224.046 226.986 220.007 226.986 219.529C226.986 219.051 226.298 216.549 226.298 216.549L217.896 214.476L210.77 210.22L205.245 208.147V202.674L204.231 199.694L206.892 203.924L207.53 206.075L209.75 206.929L212.844 207.35L214.228 207.3L212.314 204.749L213.162 201.769L213.27 200.283L215.076 204.481L219.223 204.43L223.268 204.908L223.428 206.714L228.473 208.149L230.604 209.483L228.473 211.34L227.255 212.354L227.893 214L230.286 215.276L231.664 212.673L232.092 210.331L233.796 209.055C233.796 209.055 233.476 215.326 233.476 215.913C233.476 216.5 233.316 216.659 233.796 216.87C234.274 217.08 234.752 221.335 234.752 222.343C234.752 223.357 235.6 222.343 235.6 222.343L237.724 217.188L237.883 215.964L238.26 224.047L237.246 228.142L235.81 231.013L236.026 234.523L237.564 235.32L239.216 236.966L240.173 238.452L238.26 241.75C238.26 241.75 235.867 242.018 235.548 242.598C235.229 243.185 235.548 244.569 235.548 244.569L235.172 245.845L237.724 247.173L239.854 244.889C239.854 244.889 240.81 246.216 240.81 246.484C240.81 246.746 242.086 246.165 242.086 246.165L243.042 245.789L244.468 244.491Z" fill="#EB4A31"/>
<path d="M207.264 185.905C207.264 185.905 211.027 188.107 214.01 188.905C216.994 189.703 219.935 191.191 219.935 191.191L221.673 192.627C221.673 192.627 221.245 193.955 220.236 194.168C219.227 194.381 217.208 194.807 217.208 194.807L213.327 195.868L209.657 196.824L206.523 197.249L203.546 197.462C203.546 197.462 202.216 197.117 201.632 197.249C201.047 197.381 198.39 196.771 198.123 196.93C197.858 197.089 195.677 200.704 195.677 200.704L196.155 205.552L195.185 206.818L192.382 205.731L189.617 205.063C189.617 205.063 188.607 202.883 188.395 202.404C188.182 201.926 186.701 199.959 186.701 199.959L184.606 198.935L182.429 194.194L193.977 188.386L207.264 185.905Z" fill="#EB4A31"/>
<path d="M210.084 171.366C210.019 171.627 209.905 171.978 209.753 172.386C208.757 175.039 206.187 180.245 206.046 180.615C205.886 181.036 206.098 183.977 206.333 184.053C206.416 184.078 206.697 184.257 207.035 184.487C207.679 184.928 208.527 185.534 208.527 185.534L207.334 187.047C207.334 187.047 205.861 189.56 203.825 190.995C203.2 191.435 202.568 191.907 201.924 192.379C200.476 193.438 199.003 194.477 197.567 195.059C195.487 195.894 187.793 197.731 187.793 197.731C187.793 197.731 187.334 197.814 186.638 197.948C184.648 198.33 180.699 199.121 179.902 199.568C178.823 200.161 175.927 203 175.927 203L174.836 200.36L174.875 196.137C174.875 196.137 171.845 191.952 171.883 190.274C171.928 188.603 173.121 183.537 173.458 181.707C173.797 179.87 173.599 179.55 173.478 176.922C173.364 174.287 173.721 172.176 174.678 169.42C175.635 166.671 178.53 162.512 179.035 161.765C179.538 161.026 181.586 159.985 184.566 158.576C187.545 157.172 187.647 156.822 189.006 156.024C190.359 155.227 194.429 154.379 194.429 154.379L197.51 153.447C197.51 153.447 199.667 152.969 202.882 153.128C206.096 153.288 210.671 157.435 211.359 159.297C212.049 161.159 210.562 169.395 210.084 171.366Z" fill="#DDE8F6"/>
<path d="M174.638 173.092L174.958 176.995L175.889 180.508L176.805 182.581L177.23 184.813L175.555 184.368L178.186 187.047L179.708 188.072L181.536 191.192L184.048 190.595L183.091 185.186L177.787 178.355L174.638 173.092Z" fill="#CFDAE8"/>
<path d="M206.333 184.054C206.416 184.079 206.697 184.257 207.035 184.488L206.416 185.904V187.315L205.3 188.055L203.596 189.866L204.808 187.525L205.886 184.705L205.504 183.321L204.139 183.646L205.886 178.594V175.296L204.317 174.875L202.487 172.585L199.451 176.732L197.161 176.79L194.245 179.552L193.786 183.323L194.187 184.707L195.731 183.009L198.002 179.973L200.382 178.327L196.899 187.896L198.411 190.984L201.927 192.38C200.479 193.44 199.005 194.479 197.57 195.06C195.49 195.896 187.796 197.733 187.796 197.733C187.796 197.733 187.336 197.816 186.641 197.949L186.271 196.725L184.409 195.449L183.183 195.711L181.805 196.087L180.53 197.203L182.227 198.689H181.269L180.37 198.479L178.348 196.935L179.036 195.499L178.079 195.129L174.571 194.81L173.295 192.788L174.093 193.694L176.804 194.064L178.826 194.492L180.05 195.499L181.058 194.912L180.312 194.274L177.6 193.055L175.635 191.301L178.933 192.577L181.108 192.947L181.804 194.911H182.226L183.661 194.541L184.037 193.316L183.042 189.31L184.299 186.516L187.067 184.366L190.001 176.991L190.786 180.308L191.507 179.868L191.711 178.043V174.643L189.064 169.763L186.639 166.726L188.636 167.669L190.703 171.625L192.42 174.725L192.802 176.716L194.664 176.384L195.015 175.363L194.058 173.449L193.617 171.025L192.801 167.669L207.211 167L209.75 172.384C208.755 175.037 206.184 180.242 206.044 180.612C205.886 181.036 206.096 183.977 206.333 184.054Z" fill="#CFDAE8"/>
<path d="M209.339 170.167C209.339 170.167 210.922 172.799 211.539 173.383C212.157 173.968 214.071 175.722 214.071 175.722C214.071 175.722 216.117 175.057 217.552 174.073C218.988 173.09 220.981 171.362 221.54 170.698C222.098 170.033 222.151 169.475 222.151 169.475C222.151 169.475 219.652 166.551 218.816 165.076C217.979 163.6 215.626 159.136 213.911 157.979C212.196 156.822 206.017 160.092 205.538 161.129C205.06 162.166 209.339 170.167 209.339 170.167Z" fill="#DDE8F6"/>
<path d="M214.01 175.284C214.01 175.284 217.619 178.953 218.097 179.67C218.575 180.387 220.31 183.139 222.722 184.236C225.134 185.332 227.786 179.272 227.786 178.474C227.786 177.677 227.187 175.603 225.433 173.651C223.68 171.697 221.527 169.623 221.527 169.623L214.01 175.284Z" fill="url(#paint0_linear_210_622)"/>
<path d="M210.243 173.086C209.561 173.558 207.289 175.083 207.289 175.083L206.574 176.384L204.341 175.721C204.341 175.721 199.423 175.083 198.255 174.177C197.087 173.278 196.366 171.868 195.333 170.828C195.205 170.701 195.059 170.547 194.906 170.375C193.84 169.176 192.348 167.109 192.098 166.548C191.824 165.91 189.189 162.363 189.15 161.687C189.106 161.01 188.787 158.816 189.705 157.731C190.624 156.653 192.059 155.786 193.973 155.786C195.28 155.786 196.269 156.099 196.768 156.297C196.997 156.393 197.125 156.463 197.125 156.463C197.125 156.463 209.973 159.135 210.241 160.891C210.511 162.645 210.925 172.621 210.243 173.086Z" fill="url(#paint1_linear_210_622)"/>
<path d="M196.965 167.629C196.965 167.629 196.009 166.473 195.232 166.233C194.454 165.994 194.195 166.473 193.836 166.533C193.478 166.592 195.073 168.208 195.073 168.208C195.073 168.208 197.903 170.738 196.965 167.629Z" fill="url(#paint2_linear_210_622)"/>
<path d="M198.327 166.088L198.359 169.763C198.359 169.763 198.264 165.911 198.359 165.477C198.366 165.445 198.385 165.407 198.411 165.35L198.327 166.088Z" fill="url(#paint3_linear_210_622)"/>
<path d="M201.745 166.344C201.796 166.216 201.829 166.126 201.847 166.089C201.854 166.07 201.885 166.018 201.937 165.941L201.745 166.344Z" fill="url(#paint4_linear_210_622)"/>
<path d="M204.138 168.196C204.145 168.183 204.145 168.177 204.145 168.177C204.145 168.151 204.209 168.017 204.317 167.807L204.138 168.196Z" fill="url(#paint5_linear_210_622)"/>
<path d="M208.33 163.756C208.246 164.068 208.138 164.406 208.049 164.687L208.33 163.756Z" fill="url(#paint6_linear_210_622)"/>
<path d="M193.421 185.181V186.272L192.981 186.681L189.88 188.391L189.67 188.428L184.515 189.386L180.368 189.168L178.876 186.681L176.802 179.6V173.757L177.868 170.848L182.225 171.045L184.649 171.702L186.531 172.213L189.51 175.134L189.855 176.435L190.518 178.962L191.003 181.418L191.054 181.673L191.686 182.604L191.711 182.65L192.17 183.319L193.421 185.181Z" fill="#EBF4FF"/>
<path d="M193.421 185.183V186.274L192.98 186.683L189.88 188.393L189.67 188.431L189.593 188.393V186.727L187.194 185.904L184.49 184.852L183.45 183.94L188.393 184.973L187.476 183.94L185.28 182.9L184.05 181.86L187.194 181.745L187.437 181.426L185.963 180.788L184.566 179.947H186.518L185.402 179.155L182.225 178.045L179.979 175.691L184.847 177.56L187.316 177.879L183.45 175.922L183.009 174.767L185.363 175.442L185.108 173.931L184.783 172.776L183.73 171.627L184.649 171.704L186.04 171.819L186.518 171.972L185.785 170.499L184.05 168.585H186.601L188.112 169.624L188.196 168.196L189.727 169.765L192.062 174.926V176.643L189.855 176.438L189.274 176.387L189.064 177.516L189.912 179.55L190.996 181.407L191.003 181.42L191.686 182.606L191.711 182.652L193.421 185.183Z" fill="#CFDAE8"/>
<path d="M190.468 157.734C190.468 157.734 189.46 159.617 189.46 160.171C189.46 160.733 190.494 163.444 190.494 163.444L191.98 165.657L193.422 167.648L194.908 170.378C193.842 169.179 192.35 167.112 192.101 166.55C191.827 165.913 189.192 162.366 189.153 161.69C189.109 161.013 188.789 158.819 189.708 157.734C190.626 156.656 192.062 155.789 193.976 155.789C195.283 155.789 196.272 156.102 196.77 156.3L195.405 156.599C195.405 156.599 193.255 156.72 193.045 156.797C192.833 156.879 190.468 157.734 190.468 157.734Z" fill="url(#paint7_linear_210_622)"/>
<path d="M209.206 152.798C209.206 152.798 205.897 151.761 205.1 151.761C204.302 151.761 201.671 151.921 201.671 151.921C201.671 151.921 198.202 153.595 197.724 154.114C197.246 154.632 194.773 157.184 194.255 157.981C193.737 158.779 193.418 160.972 193.418 161.331C193.418 161.689 193.896 163.483 193.896 163.483C193.896 163.483 194.694 164.52 195.012 164.799C195.331 165.079 196.527 165.517 196.687 165.757C196.847 165.996 197.843 167.871 197.843 167.871L197.325 169.067L196.527 169.865L197.086 170.702L198.202 171.141L201.671 170.264L205.897 172.935C205.897 172.935 209.167 174.45 210.004 174.33C210.841 174.211 212.436 172.376 212.436 172.376L214.51 167.871C214.51 167.871 214.709 162.727 214.291 161.273C213.872 159.817 214.67 159.06 213.274 156.468C211.878 153.873 210.238 153.108 209.206 152.798Z" fill="#7C3F4E"/>
<path d="M210.083 165.815C210.064 166.293 209.567 167.87 209.324 168.462C209.171 168.859 208.552 170.179 208.144 171.039V171.045C207.928 171.492 207.774 171.818 207.774 171.818C207.774 171.818 207.532 172.73 207.398 173.578C207.27 174.426 206.696 176.169 205.503 177.674C204.311 179.178 203.781 184.296 202.575 191.51C201.37 198.725 197.842 204.307 197.842 204.307C197.842 204.307 196.406 206.585 193.338 205.386C190.269 204.187 188.114 200.359 187.559 198.649C186.998 196.933 182.225 189.093 182.225 189.093C182.225 189.093 182.468 189.06 182.863 188.997C183.546 188.902 184.687 188.729 185.785 188.532C186.493 188.405 187.187 188.27 187.73 188.137C189.593 187.684 193.229 186.275 193.229 186.275C193.229 186.275 193.728 186.607 194.665 189.362C195.438 188.214 199.361 175.723 199.361 175.723C199.361 175.723 197.682 172.75 197.16 171.954C196.63 171.156 196.19 169.504 196.204 169.007C196.21 168.509 195.948 166.474 195.948 166.474C195.948 166.474 195.892 164.523 196.069 164.504C196.146 164.498 196.389 164.676 196.637 164.88C196.956 165.148 197.287 165.46 197.287 165.46L197.67 167.546L198.359 169.766C198.359 169.766 198.264 165.913 198.359 165.479C198.365 165.448 198.384 165.41 198.411 165.352C198.749 164.6 200.701 161.62 201.097 161.155C201.428 160.76 201.901 160.906 202.213 161.155C202.29 161.219 202.36 161.283 202.411 161.352C202.672 161.691 202.213 162.431 202.092 162.487C201.972 162.545 200.798 165.479 200.798 165.479V168.126L201.097 168.108C201.097 168.108 201.524 166.934 201.741 166.373V166.366L201.748 166.347C201.798 166.219 201.831 166.13 201.849 166.092C201.856 166.073 201.887 166.021 201.939 165.945V165.938C202.398 165.186 204.401 162.066 204.401 162.066C204.401 162.066 204.879 161.191 205.741 161.052C206.597 160.911 206.755 161.671 206.755 161.671L206.723 161.728C206.538 162.08 205.53 163.993 205.224 164.484C204.879 165.02 203.987 167.673 203.987 167.673L203.495 169.614L203.547 169.505C203.572 169.454 203.605 169.385 203.636 169.314C203.808 168.944 204.076 168.371 204.141 168.211V168.198C204.147 168.186 204.147 168.179 204.147 168.179C204.147 168.154 204.211 168.02 204.319 167.809L204.383 167.676C205.015 166.419 206.655 163.248 206.655 163.248C206.655 163.248 207.274 162.471 207.554 162.33C207.835 162.189 208.39 162.546 208.473 162.929C208.492 163.043 208.454 163.286 208.383 163.573L208.332 163.758C208.249 164.07 208.141 164.408 208.051 164.689L208.007 164.824C207.918 165.092 207.854 165.277 207.854 165.277C207.854 165.277 206.597 168.69 206.559 168.766C206.52 168.842 205.73 170.374 205.634 170.565L207.376 168.275V168.269C207.376 168.269 208.531 165.94 209.028 165.418C209.522 164.897 210.102 165.337 210.083 165.815Z" fill="url(#paint8_linear_210_622)"/>
<path d="M230.019 183.645C230.019 183.645 229.776 184.104 229.425 184.602C229.113 185.068 228.71 185.566 228.34 185.77C227.575 186.198 225.763 185.502 224.646 185.317C223.53 185.132 220.742 182.58 220.206 181.355C219.676 180.137 217.654 175.932 216.538 173.648C215.422 171.365 213.681 170.771 213.463 170.139L214.248 167.671V167.288L213.214 166.727C213.214 166.727 211.415 166.185 211.256 165.936C211.192 165.828 211.109 165.655 211.046 165.476C210.963 165.215 210.938 164.94 211.098 164.801C211.378 164.558 212.615 164.801 212.615 164.801L214.886 165.476L215.569 165.63L214.555 164.693L212.156 163.818C212.156 163.818 210.159 163.327 209.961 163.047C209.93 162.995 209.891 162.932 209.866 162.856C209.745 162.523 209.745 162.008 210.082 161.829C210.504 161.611 212.276 161.829 212.276 161.829L215.026 162.403L213.75 161.733L211.657 161.012C211.657 161.012 210.521 161.031 210.139 160.669C209.954 160.497 209.877 160.203 209.896 159.91C209.909 159.591 210.031 159.279 210.26 159.139C210.7 158.858 213.194 159.355 213.194 159.355L214.553 159.796L213.009 158.896L211.394 157.506C211.394 157.506 210.897 156.785 211.139 156.371C211.197 156.275 211.286 156.217 211.394 156.186C211.746 156.084 212.275 156.269 212.275 156.269L214.789 157.443C214.789 157.443 216.588 160.378 216.856 161.251C217.131 162.132 217.399 163.663 217.399 164.001C217.399 164.345 217.418 165.519 217.54 166.214C217.66 166.916 221.419 170.839 221.419 170.839C221.419 170.839 223.301 172.848 224.864 173.889C226.42 174.934 228.876 176.312 229.591 178.462C230.312 180.615 230.019 183.645 230.019 183.645Z" fill="url(#paint9_linear_210_622)"/>
<path d="M211.397 157.503C211.397 157.503 210.9 156.783 211.141 156.369C211.199 156.273 211.289 156.215 211.397 156.184C211.436 156.433 211.486 156.72 211.538 156.961C211.659 157.542 212.456 157.732 212.456 157.732L213.828 158.198L215.065 159.595L215.945 160.902L215.467 160.43L214.555 159.792L213.011 158.893L211.397 157.503Z" fill="url(#paint10_linear_210_622)"/>
<path d="M212.157 163.817C212.157 163.817 210.16 163.326 209.963 163.046C209.931 162.994 209.892 162.931 209.867 162.854C210.569 163.32 212.176 163.461 212.176 163.461L213.574 163.621L214.887 163.762L215.825 165.037L216.342 165.956L215.583 165.636C215.583 165.636 215.577 165.636 215.571 165.63L214.557 164.693L212.157 163.817Z" fill="url(#paint11_linear_210_622)"/>
<path d="M210.141 160.668C209.956 160.496 209.88 160.202 209.898 159.909C210.096 160.152 210.301 160.356 210.301 160.356L211.022 160.592L212.26 160.809L214.015 161.23L215.528 162.29L216.542 163.706L215.029 162.405L213.754 161.736L211.661 161.015C211.659 161.011 210.524 161.032 210.141 160.668Z" fill="url(#paint12_linear_210_622)"/>
<path d="M229.426 184.602C229.114 185.068 228.711 185.566 228.341 185.77C227.576 186.198 225.765 185.502 224.647 185.317C223.531 185.132 220.743 182.581 220.207 181.355C219.677 180.137 217.655 175.932 216.539 173.649C215.423 171.365 213.682 170.771 213.464 170.139L214.249 167.671V167.288L213.215 166.727C213.215 166.727 211.416 166.185 211.257 165.936C211.193 165.828 211.11 165.655 211.047 165.477L212.119 166.166L213.829 166.472L214.945 167.429L216.183 168.865L216.782 171.895L218.378 175.244L221.172 179.626L222.601 182.861L224.476 184.367C224.476 184.367 226.55 185.452 227.429 185.184C227.932 185.03 228.788 184.787 229.426 184.602Z" fill="url(#paint13_linear_210_622)"/>
<path d="M185.843 188.723L185.785 188.532C186.493 188.405 187.188 188.27 187.73 188.137C189.594 187.684 193.23 186.274 193.23 186.274C193.23 186.274 193.728 186.607 194.665 189.362L192.739 192.788L191.023 195.021L189.99 198.249L189.595 197.292L190.667 194.581L193.422 190.754C193.422 190.754 193.62 188.406 193.62 188.285C193.62 188.164 192.982 186.683 192.982 186.683C192.982 186.683 191.106 187.845 190.871 187.921C190.628 188.004 187.796 188.445 187.796 188.445L185.843 188.723Z" fill="url(#paint14_linear_210_622)"/>
<path d="M197.025 166.35L196.637 164.877C196.956 165.145 197.287 165.457 197.287 165.457L197.67 167.543L198.359 169.763C198.359 169.763 198.282 170.726 198.308 170.828C198.334 170.936 197.855 170.458 197.855 170.458C197.855 170.458 197.695 168.94 197.695 168.864C197.695 168.781 197.025 166.35 197.025 166.35Z" fill="url(#paint15_linear_210_622)"/>
<path d="M200.38 170.165L200.488 168.545L200.38 166.606L200.59 164.405L201.789 162.593L202.209 161.151C202.286 161.216 202.357 161.28 202.407 161.349C202.669 161.687 202.209 162.427 202.089 162.484C201.968 162.542 200.794 165.476 200.794 165.476V168.123L201.093 168.104C201.093 168.104 201.52 166.93 201.738 166.369L201.125 168.545L200.38 170.165Z" fill="url(#paint16_linear_210_622)"/>
<path d="M203.487 169.623L202.886 171.027L203.225 169.178L204.208 166.389L205.114 164.291L206.72 161.727C206.535 162.078 205.527 163.991 205.222 164.482C204.877 165.018 203.985 167.672 203.985 167.672L203.493 169.612L203.487 169.623Z" fill="url(#paint17_linear_210_622)"/>
<path d="M206.556 168.762C206.517 168.839 205.727 170.37 205.631 170.561L207.372 168.272C207.372 168.584 205.778 171.123 205.643 171.282C205.51 171.442 205.299 171.627 205.299 171.627C205.299 171.627 205.567 170.485 205.503 170.377C205.432 170.275 206.07 168.864 206.07 168.864L208.003 164.82C207.913 165.088 207.849 165.273 207.849 165.273C207.849 165.273 206.595 168.686 206.556 168.762Z" fill="url(#paint18_linear_210_622)"/>
<path d="M207.532 171.844L208.144 171.046C207.928 171.493 207.774 171.818 207.774 171.818C207.774 171.818 207.532 172.731 207.398 173.579C207.27 174.427 206.696 176.169 205.503 177.674C204.311 179.179 203.781 184.296 202.575 191.511C201.37 198.725 197.842 204.308 197.842 204.308C197.842 204.308 196.406 206.585 193.338 205.386C190.269 204.187 188.114 200.359 187.559 198.65C186.998 196.933 182.225 189.094 182.225 189.094C182.225 189.094 182.468 189.061 182.863 188.998L186.639 195.549L188.712 199.913L191.474 203.364C191.474 203.364 192.636 204.908 193.784 204.908C194.932 204.908 195.251 203.9 195.251 203.9C195.251 203.9 197.375 201.189 198.281 199.964C199.187 198.739 201.433 194.402 201.93 192.372C202.427 190.344 203.436 182.529 203.436 182.529L205.248 176.992C205.248 176.992 206.339 175.704 206.734 175.161C207.13 174.624 207.532 171.844 207.532 171.844Z" fill="url(#paint19_linear_210_622)"/>
<path d="M280.65 159.195C280.65 159.195 286.906 162.141 285.559 163.873C284.211 165.606 267.601 175.451 264.935 176.351C262.269 177.251 242.723 164.418 238.3 161.163C233.877 157.907 231.408 155.672 231.408 155.672C231.408 155.672 231.957 150.784 238.018 146.743C244.079 142.702 280.65 159.195 280.65 159.195Z" fill="#5D627A"/>
<path d="M230.125 152.272C230.125 152.272 242.341 163.027 246.498 165.741C248.303 166.91 251.497 168.506 254.745 170.019C256.755 170.946 258.8 171.875 260.551 172.63C263.455 173.918 265.603 174.811 265.603 174.811C265.603 174.811 275.878 167.716 278.901 164.675C281.152 162.407 286.839 154.281 286.839 154.281C286.839 154.281 274.778 143.354 270.071 140.416C265.742 137.718 251.344 131.739 251.344 131.739C251.344 131.739 242.856 137.752 240.314 140.192C237.496 142.874 230.125 152.272 230.125 152.272Z" fill="#C4BEC8"/>
<path d="M265.605 174.806C265.605 174.806 251.256 165.002 246.505 161.915C242.349 159.215 230.122 152.267 230.122 152.267C230.122 152.267 237.505 142.878 240.31 140.193C242.865 137.746 251.35 131.739 251.35 131.739C251.35 131.739 265.743 137.716 270.075 140.421C274.773 143.355 286.834 154.277 286.834 154.277C286.834 154.277 278.115 158.972 275.855 161.242C272.841 164.271 265.605 174.806 265.605 174.806Z" fill="#F5F4F6"/>
<path d="M157.026 183.851L100.898 151.445V141.817L157.026 174.222V183.851Z" fill="#7A727A"/>
<path d="M157.026 174.222L100.898 141.817L243.466 59.5273L299.594 91.9336L157.026 174.222Z" fill="#676063"/>
<path d="M267.151 11.3762V65.1605C267.159 65.4587 266.965 65.7594 266.57 65.9897C265.787 66.4414 264.516 66.4376 263.731 65.9821C263.336 65.7556 263.139 65.4587 263.139 65.1605V9.05859L267.151 11.3762Z" fill="#B7B7B7"/>
<path d="M283.223 20.8355V74.6198C283.231 74.918 283.037 75.2187 282.642 75.4489C281.859 75.9006 280.589 75.8969 279.803 75.4414C279.408 75.2149 279.211 74.918 279.211 74.6198V18.5166L283.223 20.8355Z" fill="#B7B7B7"/>
<path d="M299.594 91.9336V101.561L157.026 183.851V174.222L299.594 91.9336Z" fill="#DCDCDC"/>
<path d="M157.026 171.759L100.898 139.355V132.443L299.478 82.6084V89.5197L157.026 171.759Z" fill="#7389AF"/>
<path d="M100.898 132.443V139.355L157.026 171.76V164.848L100.898 132.443Z" fill="#49628F"/>
<path d="M157.026 164.848L100.898 132.443L243.349 50.2031L299.478 82.6081L157.026 164.848Z" fill="#A0B4E1"/>
<path d="M160.023 98.2988L104.872 132.445L157.091 162.773L216.151 130.704L157.026 164.848L100.898 132.443L160.023 98.2988Z" fill="#B7C7EB"/>
<path d="M280.65 74.1206C280.65 74.1206 286.906 77.066 285.559 78.7985C284.211 80.5311 267.601 90.3765 264.935 91.2761C262.269 92.1758 242.723 79.3434 238.3 76.0884C233.877 72.8322 231.408 70.5976 231.408 70.5976C231.408 70.5976 231.957 65.7095 238.018 61.6681C244.079 57.6255 280.65 74.1206 280.65 74.1206Z" fill="#5D627A"/>
<path d="M230.125 67.1976C230.125 67.1976 242.341 77.9527 246.499 80.6667C248.303 81.8355 251.497 83.4322 254.745 84.9445C256.756 85.8718 258.8 86.8004 260.552 87.5553C263.456 88.8437 265.603 89.737 265.603 89.737C265.603 89.737 275.878 82.642 278.901 79.601C281.152 77.3324 286.839 69.207 286.839 69.207C286.839 69.207 274.778 58.2795 270.071 55.3416C265.742 52.644 251.344 46.665 251.344 46.665C251.344 46.665 242.856 52.678 240.314 55.1176C237.496 57.8001 230.125 67.1976 230.125 67.1976Z" fill="#C4BEC8"/>
<path d="M265.605 89.733C265.605 89.733 251.256 79.9291 246.505 76.8415C242.349 74.1414 230.122 67.1936 230.122 67.1936C230.122 67.1936 237.505 57.8049 240.31 55.1199C242.865 52.6727 251.35 46.666 251.35 46.666C251.35 46.666 265.743 52.6425 270.075 55.3476C274.773 58.2817 286.834 69.2042 286.834 69.2042C286.834 69.2042 278.115 73.8985 275.855 76.1696C272.841 79.1968 265.605 89.733 265.605 89.733Z" fill="#F5F4F6"/>
<path d="M145.883 107.115L108.528 85.5483C102.384 82.0014 97.3877 84.8499 97.3877 91.8996V264.826H97.3953C97.3915 265.096 97.5664 265.367 97.9237 265.573C98.6346 265.983 99.7909 265.981 100.506 265.568C100.872 265.357 101.039 265.081 101.031 264.804H101.039V94.0071C101.039 89.2687 104.398 87.3538 108.528 89.7381L145.883 111.305C150.012 113.689 153.374 119.484 153.374 124.223V297.127H153.377C153.373 297.398 153.548 297.668 153.905 297.875C154.616 298.285 155.771 298.282 156.487 297.87C156.843 297.665 157.021 297.395 157.023 297.127H157.026V126.33C157.026 119.281 152.027 110.662 145.883 107.115Z" fill="#B7B7B7"/>
<path d="M120.353 194.677V234.756C120.36 235.054 120.166 235.355 119.771 235.585C118.989 236.037 117.718 236.034 116.933 235.577C116.538 235.351 116.34 235.053 116.34 234.756V192.359L120.353 194.677Z" fill="#B7B7B7"/>
<path d="M136.425 204.135V244.214C136.433 244.512 136.239 244.813 135.844 245.043C135.061 245.495 133.791 245.492 133.005 245.035C132.61 244.809 132.413 244.512 132.413 244.214V201.817L136.425 204.135Z" fill="#B7B7B7"/>
<path d="M120.353 96.1392V149.922C120.36 150.22 120.166 150.521 119.771 150.751C118.989 151.203 117.718 151.199 116.933 150.744C116.538 150.517 116.34 150.22 116.34 149.922V93.8203L120.353 96.1392Z" fill="#B7B7B7"/>
<path d="M136.425 105.599V159.383C136.433 159.681 136.239 159.982 135.844 160.212C135.061 160.664 133.791 160.66 133.006 160.205C132.611 159.978 132.413 159.681 132.413 159.383V103.281L136.425 105.599Z" fill="#B7B7B7"/>
<path d="M153.441 216.069L100.898 185.739C100.898 185.739 98.1151 184.545 98.8147 182.725C99.6502 180.55 100.898 180.906 100.898 180.906L153.441 211.235V216.069Z" fill="#877E87"/>
<path d="M192.719 375.641L0 264.375V259.446L202.414 370.044L192.719 375.641Z" fill="#495A69"/>
<path d="M192.719 370.712L0 259.447L9.69459 253.85L202.414 365.115L192.719 370.712Z" fill="#A1A6AB"/>
<path d="M202.414 365.115V370.044L192.72 375.641V370.712L202.414 365.115Z" fill="#7C858E"/>
<path d="M202.414 228.835V365.114L192.719 370.711V234.432L202.414 228.835Z" fill="#7C858E"/>
<path d="M189.366 232.496V368.775L192.72 370.711V234.432L189.366 232.496Z" fill="#495A69"/>
<path d="M13.0476 119.507V255.786L3.35303 261.383V125.104L13.0476 119.507Z" fill="#7C858E"/>
<path d="M0 123.168V259.447L3.35301 261.383V125.104L0 123.168Z" fill="#495A69"/>
<path d="M22.6363 133.525V264.941C22.6528 265.417 22.3248 265.909 21.6844 266.286C20.4209 267.024 18.3548 267.024 17.0757 266.27C16.4362 265.909 16.1082 265.417 16.1082 264.941V129.752L22.6363 133.525Z" fill="#495A69"/>
<path d="M34.0144 140.241V271.657C34.0308 272.133 33.7028 272.625 33.0624 273.002C31.799 273.74 29.7398 273.728 28.4538 272.986C27.8177 272.619 27.4862 272.133 27.4862 271.657V136.468L34.0144 140.241Z" fill="#495A69"/>
<path d="M45.3925 146.956V278.372C45.409 278.847 45.081 279.339 44.4406 279.717C43.178 280.455 41.118 280.442 39.8319 279.7C39.1959 279.333 38.8644 278.847 38.8644 278.372V143.183L45.3925 146.956Z" fill="#495A69"/>
<path d="M56.7703 153.671V285.088C56.7868 285.563 56.4588 286.055 55.8184 286.433C54.555 287.17 52.4958 287.158 51.2097 286.416C50.5737 286.049 50.2422 285.563 50.2422 285.088V149.898L56.7703 153.671Z" fill="#495A69"/>
<path d="M68.1484 160.386V291.803C68.1649 292.278 67.8369 292.77 67.1965 293.148C65.9339 293.885 63.8669 293.885 62.5878 293.131C61.9483 292.77 61.6202 292.278 61.6202 291.803V156.613L68.1484 160.386Z" fill="#495A69"/>
<path d="M135.507 198.976V330.392C135.523 330.868 135.195 331.36 134.555 331.737C133.291 332.475 131.225 332.475 129.946 331.721C129.306 331.36 128.978 330.868 128.978 330.392V195.203L135.507 198.976Z" fill="#495A69"/>
<path d="M147.985 206.403V337.819C148.001 338.295 147.673 338.787 147.033 339.164C145.77 339.902 143.71 339.89 142.424 339.148C141.788 338.781 141.457 338.295 141.457 337.819V202.631L147.985 206.403Z" fill="#495A69"/>
<path d="M160.464 213.831V345.247C160.481 345.722 160.153 346.214 159.512 346.592C158.25 347.33 156.189 347.317 154.903 346.575C154.267 346.208 153.936 345.722 153.936 345.247V210.058L160.464 213.831Z" fill="#495A69"/>
<path d="M172.942 221.255V352.672C172.959 353.147 172.631 353.639 171.99 354.017C170.728 354.755 168.668 354.742 167.382 354C166.746 353.633 166.414 353.147 166.414 352.672V217.482L172.942 221.255Z" fill="#495A69"/>
<path d="M185.422 228.682V360.098C185.438 360.574 185.11 361.066 184.47 361.443C183.207 362.181 181.14 362.181 179.861 361.427C179.222 361.066 178.894 360.574 178.894 360.098V224.909L185.422 228.682Z" fill="#495A69"/>
<path d="M192.719 234.433L0 123.167V118.238L202.414 228.836L192.719 234.433Z" fill="#495A69"/>
<path d="M192.719 229.504L0 118.239L9.69459 112.642L202.414 223.907L192.719 229.504Z" fill="#A1A6AB"/>
<path d="M202.414 223.907V228.836L192.72 234.433V229.504L202.414 223.907Z" fill="#7C858E"/>
<path d="M76.911 182.026L78.2066 186.57L117.82 209.452V315.032L121.1 326.579L125.676 324.168V205.139L121.1 207.549L76.911 182.026Z" fill="#7C858E"/>
<path d="M75.6146 185.076V296.512L80.1912 294.101V183.92L75.6146 185.076Z" fill="#7C858E"/>
<path d="M117.82 259.77L75.6146 235.395L80.1912 232.984L117.82 254.803V259.77Z" fill="#A1A6AB"/>
<path d="M89.714 191.003V238.816C89.714 239.182 89.4823 239.548 89.0059 239.816C88.0662 240.365 86.5293 240.365 85.5774 239.816C85.0897 239.536 84.8572 239.182 84.8572 238.816V188.196L89.714 191.003Z" fill="#495A69"/>
<path d="M100.904 197.579V245.392C100.904 245.758 100.672 246.124 100.196 246.392C99.2557 246.942 97.7189 246.942 96.767 246.392C96.2793 246.112 96.0468 245.758 96.0468 245.392V194.772L100.904 197.579Z" fill="#495A69"/>
<path d="M112.094 204.154V251.967C112.094 252.333 111.862 252.699 111.385 252.968C110.446 253.517 108.909 253.517 107.957 252.968C107.469 252.687 107.237 252.333 107.237 251.967V201.349L112.094 204.154Z" fill="#495A69"/>
<path d="M117.82 320.887L75.6146 296.513L80.1912 294.102L117.82 315.921V320.887Z" fill="#A1A6AB"/>
<path d="M89.7139 244.265V300.257C89.7139 300.623 89.4822 300.989 89.0058 301.257C88.066 301.807 86.5292 301.807 85.5773 301.257C85.0896 300.977 84.8571 300.623 84.8571 300.257V241.459L89.7139 244.265Z" fill="#495A69"/>
<path d="M100.904 250.84V306.831C100.904 307.197 100.672 307.563 100.196 307.832C99.2557 308.381 97.7189 308.381 96.767 307.832C96.2793 307.551 96.0468 307.197 96.0468 306.831V248.033L100.904 250.84Z" fill="#495A69"/>
<path d="M112.094 257.416V313.407C112.094 313.773 111.862 314.14 111.385 314.408C110.446 314.957 108.909 314.957 107.957 314.408C107.469 314.127 107.237 313.773 107.237 313.407V254.609L112.094 257.416Z" fill="#495A69"/>
<path d="M125.676 205.139L76.911 176.974L72.3345 179.385L121.1 207.549L125.676 205.139Z" fill="#A1A6AB"/>
<path d="M72.3346 179.385V298.415L121.1 326.579V207.548L76.9103 182.026L72.3346 179.385ZM75.6147 185.076L78.2067 186.57L117.82 209.451V320.887L75.6156 296.513L75.6147 185.076Z" fill="#495A69"/>
<path d="M76.9204 240.457L77.2901 241.753L88.5952 248.283V260.881L89.5315 264.176L90.8375 263.488V247.053L89.5315 247.741L76.9204 240.457Z" fill="#7C858E"/>
<path d="M75.6146 239.702V256.138L89.5317 264.175V247.739L76.9206 240.455L75.6146 239.702Z" fill="#495A69"/>
<path d="M117.82 264.076L75.6146 239.701V235.396L117.82 259.109V264.076Z" fill="#495A69"/>
<path d="M89.7141 171.448V184.786C89.7141 185.152 89.4825 185.518 89.0061 185.787C88.0663 186.336 86.5295 186.336 85.5775 185.787C85.0899 185.506 84.8573 185.152 84.8573 184.786V168.642L89.7141 171.448Z" fill="#495A69"/>
<path d="M79.3391 165.7V179.038C79.3391 179.404 79.1074 179.77 78.631 180.039C77.6913 180.588 76.1545 180.588 75.2025 180.039C74.7148 179.758 74.4832 179.404 74.4832 179.038V162.894L79.3391 165.7Z" fill="#495A69"/>
<path d="M100.904 178.024V191.362C100.904 191.728 100.672 192.095 100.196 192.363C99.256 192.912 97.7192 192.912 96.7672 192.363C96.2796 192.082 96.047 191.728 96.047 191.362V175.218L100.904 178.024Z" fill="#495A69"/>
<path d="M112.094 184.6V197.938C112.094 198.305 111.862 198.671 111.385 198.939C110.446 199.488 108.909 199.488 107.957 198.939C107.469 198.659 107.237 198.305 107.237 197.938V181.794L112.094 184.6Z" fill="#495A69"/>
<path d="M123.528 191.293V204.631C123.528 204.997 123.296 205.363 122.82 205.631C121.88 206.181 120.343 206.181 119.391 205.631C118.904 205.351 118.671 204.997 118.671 204.631V188.486L123.528 191.293Z" fill="#495A69"/>
<defs>
<linearGradient id="paint0_linear_210_622" x1="214.011" y1="176.994" x2="227.786" y2="176.994" gradientUnits="userSpaceOnUse">
<stop offset="0.0495" stop-color="#FEB9B8"/>
<stop offset="0.9922" stop-color="#FEA5A4"/>
</linearGradient>
<linearGradient id="paint1_linear_210_622" x1="189.063" y1="166.086" x2="210.615" y2="166.086" gradientUnits="userSpaceOnUse">
<stop offset="0.0495" stop-color="#FEB9B8"/>
<stop offset="0.9922" stop-color="#FEA5A4"/>
</linearGradient>
<linearGradient id="paint2_linear_210_622" x1="193.784" y1="167.672" x2="197.156" y2="167.672" gradientUnits="userSpaceOnUse">
<stop offset="0.0495" stop-color="#FEB9B8"/>
<stop offset="0.9922" stop-color="#FEA5A4"/>
</linearGradient>
<linearGradient id="paint3_linear_210_622" x1="198.316" y1="167.556" x2="198.409" y2="167.556" gradientUnits="userSpaceOnUse">
<stop offset="0.0495" stop-color="#FEB9B8"/>
<stop offset="0.9922" stop-color="#FEA5A4"/>
</linearGradient>
<linearGradient id="paint4_linear_210_622" x1="201.746" y1="166.144" x2="201.937" y2="166.144" gradientUnits="userSpaceOnUse">
<stop offset="0.0495" stop-color="#FEB9B8"/>
<stop offset="0.9922" stop-color="#FEA5A4"/>
</linearGradient>
<linearGradient id="paint5_linear_210_622" x1="204.138" y1="168" x2="204.316" y2="168" gradientUnits="userSpaceOnUse">
<stop offset="0.0495" stop-color="#FEB9B8"/>
<stop offset="0.9922" stop-color="#FEA5A4"/>
</linearGradient>
<linearGradient id="paint6_linear_210_622" x1="208.048" y1="164.221" x2="208.329" y2="164.221" gradientUnits="userSpaceOnUse">
<stop offset="0.0495" stop-color="#FEB9B8"/>
<stop offset="0.9922" stop-color="#FEA5A4"/>
</linearGradient>
<linearGradient id="paint7_linear_210_622" x1="189.063" y1="163.083" x2="196.77" y2="163.083" gradientUnits="userSpaceOnUse">
<stop offset="0.2656" stop-color="#F07A7A"/>
<stop offset="0.9922" stop-color="#FEA5A4"/>
</linearGradient>
<linearGradient id="paint8_linear_210_622" x1="182.225" y1="183.321" x2="210.084" y2="183.321" gradientUnits="userSpaceOnUse">
<stop offset="0.0495" stop-color="#FEB9B8"/>
<stop offset="0.9922" stop-color="#FEA5A4"/>
</linearGradient>
<linearGradient id="paint9_linear_210_622" x1="209.793" y1="171.029" x2="230.078" y2="171.029" gradientUnits="userSpaceOnUse">
<stop offset="0.0495" stop-color="#FEB9B8"/>
<stop offset="0.9922" stop-color="#FEA5A4"/>
</linearGradient>
<linearGradient id="paint10_linear_210_622" x1="211.076" y1="158.543" x2="215.946" y2="158.543" gradientUnits="userSpaceOnUse">
<stop offset="0.2656" stop-color="#F07A7A"/>
<stop offset="0.9922" stop-color="#FEA5A4"/>
</linearGradient>
<linearGradient id="paint11_linear_210_622" x1="209.867" y1="164.404" x2="216.342" y2="164.404" gradientUnits="userSpaceOnUse">
<stop offset="0.2656" stop-color="#F07A7A"/>
<stop offset="0.9922" stop-color="#FEA5A4"/>
</linearGradient>
<linearGradient id="paint12_linear_210_622" x1="209.896" y1="161.806" x2="216.539" y2="161.806" gradientUnits="userSpaceOnUse">
<stop offset="0.2656" stop-color="#F07A7A"/>
<stop offset="0.9922" stop-color="#FEA5A4"/>
</linearGradient>
<linearGradient id="paint13_linear_210_622" x1="211.047" y1="175.692" x2="229.425" y2="175.692" gradientUnits="userSpaceOnUse">
<stop offset="0.2656" stop-color="#F07A7A"/>
<stop offset="0.9922" stop-color="#FEA5A4"/>
</linearGradient>
<linearGradient id="paint14_linear_210_622" x1="185.785" y1="192.261" x2="194.665" y2="192.261" gradientUnits="userSpaceOnUse">
<stop offset="0.2656" stop-color="#F07A7A"/>
<stop offset="0.9922" stop-color="#FEA5A4"/>
</linearGradient>
<linearGradient id="paint15_linear_210_622" x1="196.636" y1="167.861" x2="198.358" y2="167.861" gradientUnits="userSpaceOnUse">
<stop offset="0.2656" stop-color="#F07A7A"/>
<stop offset="0.9922" stop-color="#FEA5A4"/>
</linearGradient>
<linearGradient id="paint16_linear_210_622" x1="200.381" y1="165.658" x2="202.488" y2="165.658" gradientUnits="userSpaceOnUse">
<stop offset="0.2656" stop-color="#F07A7A"/>
<stop offset="0.9922" stop-color="#FEA5A4"/>
</linearGradient>
<linearGradient id="paint17_linear_210_622" x1="202.888" y1="166.376" x2="206.722" y2="166.376" gradientUnits="userSpaceOnUse">
<stop offset="0.2656" stop-color="#F07A7A"/>
<stop offset="0.9922" stop-color="#FEA5A4"/>
</linearGradient>
<linearGradient id="paint18_linear_210_622" x1="205.299" y1="168.223" x2="208.004" y2="168.223" gradientUnits="userSpaceOnUse">
<stop offset="0.2656" stop-color="#F07A7A"/>
<stop offset="0.9922" stop-color="#FEA5A4"/>
</linearGradient>
<linearGradient id="paint19_linear_210_622" x1="182.225" y1="188.39" x2="208.144" y2="188.39" gradientUnits="userSpaceOnUse">
<stop offset="0.2656" stop-color="#F07A7A"/>
<stop offset="0.9922" stop-color="#FEA5A4"/>
</linearGradient>
</defs>
</svg>
