<svg width="392" height="320" viewBox="0 0 392 320" fill="none" xmlns="http://www.w3.org/2000/svg">
<g opacity="0.1">
<path d="M19.8413 287.801L207.298 179.574C224.8 169.469 249.473 158.534 271.153 150.364C286.007 144.764 299.456 140.461 308.238 138.604C310.301 138.168 312.104 137.865 313.61 137.715C313.351 138.585 312.825 139.626 312.07 140.816C308.854 145.887 301.401 153.652 291.702 162.227C288.944 164.665 286.003 167.17 282.93 169.695C270.225 180.136 255.198 190.958 241.107 199.094L53.6508 307.321C25.105 323.802 4.86093 320.699 1.34888 315.431C-3.92474 307.52 12.7953 290.879 19.8413 287.801Z" fill="black"/>
<path d="M356.435 296.908L358.689 295.173C358.689 295.173 344.039 293.221 341.409 292.57C341.24 292.529 340.549 292.329 339.407 291.991C334.763 290.616 322.641 286.961 307.554 282.402C295.676 278.815 281.96 274.662 268.606 270.621C264.068 269.246 259.567 267.884 255.198 266.563C253.955 266.188 252.719 265.817 251.498 265.446C241.096 262.299 231.599 259.424 224.236 257.198C222.933 256.806 221.7 256.433 220.536 256.081C214.105 254.138 209.931 252.882 209.176 252.663C208.759 252.544 208.147 252.303 207.38 251.965C206.11 251.41 204.409 250.588 202.459 249.605C201.46 249.098 200.385 248.547 199.27 247.972C199.074 247.868 198.879 247.764 198.676 247.66C197.906 247.258 197.121 246.844 196.321 246.421C187.339 241.678 177.181 236 177.181 236L119.329 269.401C119.329 269.401 130.959 269.158 152.094 271.505C159.254 272.298 167.507 273.389 176.767 274.888C178.278 275.131 179.814 275.389 181.377 275.654C220.821 282.377 324.88 300.378 324.88 300.378L356.435 296.908Z" fill="black"/>
<path d="M198.746 284.702C203.412 281.661 207.397 278.739 210.5 276.332C215.14 272.729 217.803 270.272 217.803 270.272C208.543 268.773 200.29 267.682 193.13 266.889C189.681 268.377 185.669 270.198 181.462 272.289C180.718 272.658 179.963 273.037 179.211 273.424C172.927 276.636 170.594 278.759 169.865 280.099C169.069 281.566 170.195 282.099 170.195 282.099L183.719 289.907C183.719 289.907 184.643 290.558 187.183 290.098C189.504 289.677 193.182 288.33 198.746 284.702Z" fill="black"/>
<path d="M392 168.005L369.618 160.393L324.144 144.922L312.07 140.814C310.913 142.636 309.212 144.807 307.052 147.239C303.205 151.572 297.915 156.734 291.702 162.226L307.532 163.844L382.86 171.547L392 168.005Z" fill="black"/>
<path d="M38.1664 113.159L41.1718 111.857C41.1718 111.857 44.5528 120.316 45.6798 121.834C45.7512 121.932 46.0967 122.331 46.6827 122.99C49.0644 125.671 55.3944 132.67 63.2907 141.38C69.5042 148.238 76.698 156.157 83.6966 163.867C86.0783 166.487 88.4374 169.085 90.7252 171.608C91.3752 172.325 92.0174 173.039 92.6599 173.744C98.1107 179.749 103.092 185.232 106.946 189.483C107.626 190.236 108.272 190.947 108.881 191.62C112.247 195.333 114.422 197.742 114.801 198.178C115.008 198.419 115.425 198.773 116.011 199.215C116.972 199.948 118.396 200.931 120.098 202.056C120.977 202.633 121.931 203.254 122.927 203.898C123.107 204.011 123.287 204.123 123.468 204.241C124.163 204.685 124.88 205.139 125.613 205.6C133.829 210.786 143.663 216.651 143.663 216.651L85.8112 250.051C85.8112 250.051 86.232 243.337 82.1674 231.134C80.7925 227 78.9029 222.236 76.3071 216.889C75.8863 216.017 75.4394 215.13 74.9811 214.228C63.3358 191.455 32.156 131.377 32.156 131.377L38.1664 113.159Z" fill="black"/>
<path d="M59.3081 204.198C64.5748 201.504 69.635 199.203 73.805 197.412C80.0447 194.733 84.301 193.195 84.301 193.195C86.8968 198.542 88.7864 203.307 90.1613 207.44C87.5842 209.431 84.4287 211.748 80.8072 214.177C80.1686 214.606 79.5111 215.042 78.8424 215.476C73.2788 219.105 69.601 220.451 67.2794 220.872C64.74 221.332 63.8157 220.681 63.8157 220.681L50.292 212.873C50.292 212.873 49.165 212.34 49.9614 210.874C50.6902 209.534 53.0232 207.41 59.3081 204.198Z" fill="black"/>
<path d="M261.434 92.625L274.62 105.547L301.416 131.801L308.531 138.772C305.375 139.44 301.615 140.422 297.404 141.67C289.898 143.89 280.957 146.944 271.446 150.532L268.643 141.392L255.3 97.9018L261.434 92.625Z" fill="black"/>
</g>
<path d="M32.9469 281.021L33.8954 281.455L34.2496 280.943C34.0041 280.048 32.7135 278.809 31.4745 279.097C31.2684 279.128 31.0489 279.206 30.8207 279.338C29.6456 280.016 28.6931 281.836 28.6931 283.403C28.6931 283.629 28.7135 283.836 28.751 284.025C28.9252 285.208 30.1955 286.106 31.3762 286.075L31.917 285.266L31.1195 284.81C32.1352 284.034 32.92 282.434 32.9469 281.021Z" fill="url(#paint0_linear_210_1111)"/>
<path d="M34.3522 281.754C34.3522 283.321 33.3996 285.141 32.2247 285.819C31.0496 286.498 30.0971 285.778 30.0971 284.211C30.0971 282.644 31.0498 280.824 32.2247 280.146C33.3996 279.468 34.3522 280.188 34.3522 281.754Z" fill="#878A8F"/>
<path d="M33.3895 282.311C33.3895 283.169 32.8679 284.166 32.2245 284.537C31.5811 284.909 31.0595 284.514 31.0595 283.657C31.0595 282.799 31.5811 281.802 32.2245 281.431C32.8679 281.059 33.3895 281.454 33.3895 282.311Z" fill="#CCCCCC"/>
<path d="M32.5007 282.824C32.5007 283.027 32.3772 283.263 32.2246 283.351C32.0721 283.439 31.9485 283.346 31.9485 283.143C31.9485 282.939 32.0721 282.703 32.2245 282.615C32.377 282.527 32.5007 282.621 32.5007 282.824Z" fill="#878A8F"/>
<path d="M33.9721 276.002V283.072H32.0655V276.002H32.0665C32.0665 276.144 32.1589 276.284 32.345 276.392C32.7171 276.606 33.3204 276.606 33.6934 276.392C33.8795 276.284 33.9721 276.144 33.9721 276.002Z" fill="url(#paint1_linear_210_1111)"/>
<path d="M35.9619 282.394L36.9104 282.828L37.2645 282.316C37.019 281.421 35.7285 280.182 34.4894 280.47C34.2834 280.501 34.0638 280.579 33.8356 280.711C32.6606 281.389 31.7081 283.209 31.7081 284.776C31.7081 285.002 31.7284 285.209 31.7659 285.398C31.9401 286.582 33.2105 287.479 34.3912 287.448L34.932 286.639L34.1345 286.183C35.1501 285.407 35.935 283.807 35.9619 282.394Z" fill="url(#paint2_linear_210_1111)"/>
<path d="M37.3673 283.127C37.3673 284.694 36.4146 286.514 35.2397 287.192C34.0648 287.871 33.1122 287.151 33.1122 285.584C33.1122 284.017 34.0648 282.197 35.2399 281.519C36.4148 280.841 37.3673 281.561 37.3673 283.127Z" fill="#878A8F"/>
<path d="M36.4045 283.685C36.4045 284.542 35.8829 285.539 35.2396 285.91C34.5962 286.282 34.0746 285.888 34.0746 285.03C34.0746 284.172 34.5962 283.175 35.2396 282.804C35.8829 282.432 36.4045 282.827 36.4045 283.685Z" fill="#CCCCCC"/>
<path d="M35.5159 284.197C35.5159 284.4 35.3924 284.636 35.24 284.724C35.0876 284.812 34.9639 284.719 34.9639 284.516C34.9639 284.313 35.0874 284.076 35.24 283.988C35.3925 283.9 35.5159 283.994 35.5159 284.197Z" fill="#878A8F"/>
<path d="M31.5089 277.195C31.5089 277.195 34.2281 279.173 35.1346 281.727L42.5507 278.843C42.5507 278.843 41.2322 275.877 39.0897 274.805C36.9474 273.734 31.5089 277.195 31.5089 277.195Z" fill="#E6E6E5"/>
<path d="M291.179 117.636C290.678 118.21 290.177 118.783 289.669 119.363C284.158 125.678 278.285 132.053 272.701 137.755C270.302 140.214 267.955 142.547 265.714 144.696C260.308 149.884 255.542 153.991 252.173 156.186C252.14 156.213 252.101 156.233 252.068 156.259C251.857 156.397 251.646 156.523 251.448 156.648C251.356 156.701 251.264 156.753 251.178 156.806C251.152 156.819 251.125 156.839 251.099 156.852L79.9477 255.66L62.3007 265.852L61.8195 266.135L61.7337 266.181C61.7337 266.181 26.5252 284.619 7.8959 280.4C5.57541 279.873 3.51212 278.996 1.80472 277.691C-0.0608521 276.181 -0.904541 272.206 1.37622 266.122C2.68814 262.615 5.04147 258.409 8.83847 253.571C8.85815 253.525 8.87146 253.478 8.89114 253.432C9.88 250.828 11.1852 248.343 12.741 245.97C12.741 245.97 12.741 245.97 12.741 245.964C19.3331 235.878 30.3024 227.842 39.7818 221.949C40.4542 221.533 41.1331 221.125 41.8254 220.723C41.832 220.723 41.8451 220.716 41.8518 220.709L201.196 128.717C201.203 128.717 201.203 128.711 201.203 128.711C201.203 128.711 201.203 128.711 201.209 128.704L226.569 114.063C226.569 114.063 226.602 114.05 226.655 114.017L229.371 112.448C229.378 112.442 229.391 112.442 229.397 112.435C230.03 112.066 230.722 111.683 231.461 111.295C251.705 100.437 309.465 78.9803 313.486 84.4913C315.491 87.2337 304.653 102.033 291.179 117.636Z" fill="url(#paint3_linear_210_1111)"/>
<path d="M45.9784 246.037L43.2821 252.2L43.1767 254.876C43.1767 254.876 19.7548 263.294 10.9478 259.326C9.76123 258.917 9.17458 256.294 8.89111 253.433C9.87997 250.829 11.1852 248.344 12.741 245.971C13.0837 247.731 13.743 250.539 14.7054 251.989C15.3778 253.004 37.1845 250.025 45.9784 246.037Z" fill="#C7C8C7"/>
<path d="M17.318 259.73C14.7512 259.73 12.6993 259.392 11.2189 258.724C10.9778 258.639 9.78105 256.953 9.30882 252.387C10.0604 250.435 10.9446 248.898 12.103 246.975C12.5076 248.681 13.4112 251.23 14.1563 252.353C14.4014 252.723 14.8738 252.848 16.028 252.848C20.527 252.848 36.3671 250.479 44.7175 247.274L42.6286 252.05L42.5358 254.402C40.0126 255.273 26.6433 259.729 17.3194 259.73C17.3189 259.73 17.3186 259.73 17.318 259.73Z" fill="#878A8F"/>
<path d="M291.179 117.636C290.678 118.21 290.177 118.783 289.669 119.363C284.158 125.678 278.285 132.053 272.701 137.755C260.539 128.882 204.117 144.057 199.746 138.803C196.549 134.96 200.986 128.994 201.196 128.717C201.203 128.717 201.203 128.711 201.203 128.711C201.203 128.711 201.203 128.711 201.21 128.704L226.569 114.063C226.569 114.063 226.602 114.05 226.655 114.017L229.371 112.448C229.378 112.442 229.391 112.442 229.398 112.435C230.03 112.066 230.723 111.683 231.461 111.295C251.705 100.437 309.465 78.9803 313.487 84.4913C315.491 87.2335 304.653 102.033 291.179 117.636Z" fill="#FCB138"/>
<path opacity="0.1" d="M291.179 117.636C290.678 118.21 290.177 118.783 289.669 119.363C284.158 125.678 278.285 132.053 272.701 137.755C260.539 128.882 204.117 144.057 199.746 138.803C196.549 134.96 200.986 128.994 201.196 128.717C201.203 128.717 201.203 128.711 201.203 128.711C201.203 128.711 201.203 128.711 201.21 128.704L226.569 114.063C226.569 114.063 226.602 114.05 226.655 114.017L229.371 112.448C229.378 112.442 229.391 112.442 229.398 112.435C230.03 112.066 230.723 111.683 231.461 111.295C251.705 100.437 309.465 78.9803 313.487 84.4913C315.491 87.2335 304.653 102.033 291.179 117.636Z" fill="url(#paint4_linear_210_1111)"/>
<path d="M265.714 144.696C260.308 149.884 255.542 153.991 252.173 156.186C252.14 156.212 252.101 156.232 252.068 156.258C251.857 156.397 251.646 156.522 251.448 156.647C251.356 156.7 251.264 156.753 251.178 156.805C251.152 156.818 251.125 156.838 251.099 156.851L79.9476 255.66C107.595 217.868 130.568 205.573 149.363 194.723C168.15 183.879 196.087 167.518 210.438 159.231C224.79 150.945 252.002 142.718 265.714 144.696Z" fill="url(#paint5_linear_210_1111)"/>
<path d="M10.7278 259.193C12.5381 255.83 14.8074 252.102 14.8302 252.065L14.5804 251.912C14.5577 251.949 12.2843 255.684 10.4701 259.054L10.7278 259.193Z" fill="#C7C8C7"/>
<path d="M21.7367 260.111L22.0288 260.094C21.8812 257.547 22.6589 251.687 22.6667 251.629L22.3767 251.59C22.369 251.649 21.5875 257.536 21.7367 260.111Z" fill="#C7C8C7"/>
<path d="M32.5283 258.066L32.8116 257.993C31.9289 254.542 32.0237 250.093 32.0249 250.048L31.7324 250.041C31.7314 250.086 31.6353 254.575 32.5283 258.066Z" fill="#C7C8C7"/>
<g opacity="0.5">
<path d="M63.4763 254.981C63.744 254.981 64.0336 254.896 64.3276 254.726L66.0403 253.737C67.1905 253.073 68.1262 251.288 68.1262 249.758V240.837C68.1262 240.016 67.8546 239.389 67.3813 239.116C66.9856 238.887 66.4834 238.926 65.9671 239.224L64.2544 240.213C63.1042 240.877 62.1684 242.662 62.1684 244.192V253.113C62.1684 253.934 62.44 254.561 62.9133 254.834C63.0838 254.932 63.2739 254.981 63.4763 254.981ZM65.9671 253.611L64.2544 254.599C63.7852 254.87 63.3349 254.909 62.9864 254.707C62.5594 254.461 62.3145 253.88 62.3145 253.113V244.192C62.3145 242.709 63.2175 240.98 64.3275 240.339L66.0402 239.351C66.5094 239.08 66.9597 239.041 67.308 239.243C67.7351 239.489 67.9799 240.07 67.9799 240.837V249.758C67.9799 251.241 67.0771 252.97 65.9671 253.611Z" fill="#878A8F"/>
</g>
<g opacity="0.5">
<path d="M257.393 142.987C257.661 142.987 257.95 142.902 258.244 142.732L259.957 141.743C261.107 141.079 262.043 139.294 262.043 137.764V128.843C262.043 128.022 261.771 127.395 261.298 127.122C260.902 126.893 260.4 126.932 259.884 127.23L258.171 128.219C257.021 128.883 256.085 130.668 256.085 132.198V141.119C256.085 141.939 256.357 142.567 256.83 142.84C257 142.938 257.19 142.987 257.393 142.987ZM259.884 141.616L258.171 142.605C257.702 142.876 257.252 142.915 256.903 142.713C256.476 142.467 256.231 141.886 256.231 141.119V132.198C256.231 130.715 257.134 128.986 258.244 128.346L259.957 127.357C260.426 127.086 260.876 127.048 261.225 127.249C261.652 127.495 261.897 128.076 261.897 128.843V137.764C261.897 139.247 260.994 140.975 259.884 141.616Z" fill="#878A8F"/>
</g>
<path d="M79.7952 240.279L78.89 240.802C78.291 241.148 77.8053 240.781 77.8053 239.982V236.741C77.8053 235.942 78.291 235.014 78.89 234.668L79.7952 234.146C80.3942 233.8 80.8799 234.167 80.8799 234.966V238.207C80.8797 239.006 80.3942 239.934 79.7952 240.279Z" fill="#878A8F"/>
<path d="M87.7287 235.686L86.8235 236.208C86.2245 236.554 85.7388 236.187 85.7388 235.388V232.147C85.7388 231.348 86.2243 230.42 86.8235 230.075L87.7287 229.552C88.3276 229.206 88.8134 229.573 88.8134 230.372V233.613C88.8134 234.412 88.3276 235.34 87.7287 235.686Z" fill="#878A8F"/>
<path d="M95.6625 231.09L94.7573 231.612C94.1583 231.958 93.6726 231.591 93.6726 230.792V227.551C93.6726 226.752 94.1583 225.825 94.7573 225.479L95.6625 224.956C96.2615 224.611 96.7472 224.978 96.7472 225.776V229.018C96.747 229.816 96.2615 230.744 95.6625 231.09Z" fill="#878A8F"/>
<path d="M103.596 226.498L102.691 227.021C102.092 227.366 101.606 226.999 101.606 226.201V222.959C101.606 222.161 102.092 221.233 102.691 220.887L103.596 220.365C104.195 220.019 104.68 220.386 104.68 221.184V224.426C104.68 225.224 104.195 226.152 103.596 226.498Z" fill="#878A8F"/>
<path d="M111.53 221.902L110.625 222.425C110.026 222.771 109.54 222.404 109.54 221.605V218.364C109.54 217.565 110.026 216.637 110.625 216.291L111.53 215.769C112.129 215.423 112.615 215.79 112.615 216.589V219.83C112.615 220.629 112.129 221.557 111.53 221.902Z" fill="#878A8F"/>
<path d="M119.463 217.309L118.558 217.831C117.959 218.177 117.473 217.81 117.473 217.011V213.77C117.473 212.971 117.959 212.043 118.558 211.698L119.463 211.175C120.062 210.829 120.548 211.196 120.548 211.995V215.236C120.548 216.035 120.062 216.963 119.463 217.309Z" fill="#878A8F"/>
<path d="M127.397 212.715L126.492 213.237C125.893 213.583 125.407 213.216 125.407 212.417V209.176C125.407 208.377 125.893 207.45 126.492 207.104L127.397 206.581C127.996 206.236 128.482 206.603 128.482 207.401V210.643C128.482 211.441 127.996 212.369 127.397 212.715Z" fill="#878A8F"/>
<path d="M135.33 208.119L134.425 208.642C133.826 208.988 133.341 208.62 133.341 207.822V204.58C133.341 203.782 133.826 202.854 134.425 202.508L135.33 201.986C135.929 201.64 136.415 202.007 136.415 202.806V206.047C136.415 206.846 135.929 207.773 135.33 208.119Z" fill="#878A8F"/>
<path d="M143.264 203.525L142.359 204.048C141.76 204.394 141.274 204.027 141.274 203.228V199.987C141.274 199.188 141.76 198.26 142.359 197.914L143.264 197.392C143.863 197.046 144.349 197.413 144.349 198.212V201.453C144.349 202.252 143.863 203.18 143.264 203.525Z" fill="#878A8F"/>
<path d="M151.198 198.932L150.293 199.454C149.694 199.8 149.208 199.433 149.208 198.634V195.393C149.208 194.594 149.693 193.666 150.293 193.321L151.198 192.798C151.797 192.452 152.282 192.819 152.282 193.618V196.859C152.282 197.658 151.797 198.586 151.198 198.932Z" fill="#878A8F"/>
<path d="M159.132 194.338L158.227 194.86C157.628 195.206 157.142 194.839 157.142 194.041V190.799C157.142 190.001 157.628 189.073 158.227 188.727L159.132 188.204C159.731 187.859 160.216 188.226 160.216 189.024V192.266C160.216 193.064 159.731 193.992 159.132 194.338Z" fill="#878A8F"/>
<path d="M167.065 189.742L166.159 190.265C165.56 190.611 165.075 190.243 165.075 189.445V186.203C165.075 185.405 165.56 184.477 166.16 184.131L167.065 183.609C167.664 183.263 168.15 183.63 168.15 184.429V187.67C168.149 188.469 167.664 189.396 167.065 189.742Z" fill="#878A8F"/>
<path d="M174.999 185.148L174.094 185.671C173.495 186.017 173.009 185.65 173.009 184.851V181.61C173.009 180.811 173.495 179.883 174.094 179.537L174.999 179.015C175.598 178.669 176.084 179.036 176.084 179.835V183.076C176.083 183.875 175.598 184.803 174.999 185.148Z" fill="#878A8F"/>
<path d="M182.932 180.557L182.027 181.079C181.428 181.425 180.942 181.058 180.942 180.259V177.018C180.942 176.219 181.428 175.291 182.027 174.946L182.932 174.423C183.531 174.077 184.017 174.444 184.017 175.243V178.484C184.017 179.283 183.531 180.211 182.932 180.557Z" fill="#878A8F"/>
<path d="M190.866 175.961L189.96 176.484C189.361 176.829 188.876 176.462 188.876 175.664V172.422C188.876 171.624 189.361 170.696 189.961 170.35L190.866 169.827C191.465 169.482 191.951 169.849 191.951 170.647V173.889C191.95 174.687 191.465 175.615 190.866 175.961Z" fill="#878A8F"/>
<path d="M198.8 171.367L197.895 171.89C197.296 172.236 196.81 171.868 196.81 171.07V167.828C196.81 167.03 197.296 166.102 197.895 165.756L198.8 165.234C199.399 164.888 199.885 165.255 199.885 166.054V169.295C199.884 170.094 199.399 171.021 198.8 171.367Z" fill="#878A8F"/>
<path d="M206.733 166.772L205.828 167.294C205.229 167.64 204.743 167.273 204.743 166.474V163.233C204.743 162.434 205.229 161.506 205.828 161.16L206.733 160.638C207.332 160.292 207.817 160.659 207.817 161.458V164.699C207.818 165.498 207.332 166.426 206.733 166.772Z" fill="#878A8F"/>
<path d="M214.667 162.178L213.762 162.7C213.163 163.046 212.677 162.679 212.677 161.88V158.639C212.677 157.84 213.163 156.913 213.762 156.567L214.667 156.044C215.266 155.698 215.752 156.066 215.752 156.864V160.106C215.752 160.904 215.266 161.832 214.667 162.178Z" fill="#878A8F"/>
<path d="M222.601 157.582L221.695 158.105C221.096 158.45 220.611 158.083 220.611 157.285V154.043C220.611 153.245 221.096 152.317 221.695 151.971L222.601 151.448C223.2 151.103 223.685 151.47 223.685 152.268V155.51C223.685 156.308 223.2 157.236 222.601 157.582Z" fill="#878A8F"/>
<path d="M230.534 152.99L229.628 153.513C229.029 153.859 228.544 153.492 228.544 152.693V149.451C228.544 148.653 229.029 147.725 229.628 147.379L230.533 146.857C231.132 146.511 231.618 146.878 231.618 147.677V150.918C231.618 151.717 231.133 152.644 230.534 152.99Z" fill="#878A8F"/>
<path d="M238.468 148.395L237.563 148.917C236.964 149.263 236.478 148.896 236.478 148.097V144.856C236.478 144.057 236.964 143.129 237.563 142.784L238.468 142.261C239.067 141.915 239.553 142.282 239.553 143.081V146.322C239.552 147.121 239.067 148.049 238.468 148.395Z" fill="#878A8F"/>
<path d="M246.401 143.801L245.496 144.323C244.897 144.669 244.411 144.302 244.411 143.503V140.262C244.411 139.463 244.897 138.536 245.496 138.19L246.401 137.667C247 137.321 247.486 137.689 247.486 138.487V141.729C247.486 142.527 247 143.455 246.401 143.801Z" fill="#878A8F"/>
<path d="M204.336 237.786C204.336 238.194 204.298 238.567 204.223 238.903C204.223 238.911 204.223 238.922 204.219 238.93C204.219 238.934 204.219 238.934 204.215 238.937C204.106 239.303 203.962 239.673 203.774 240.032C201.517 244.427 193.903 248.295 189.646 250.714C190.627 250.091 191.243 248.733 191.243 246.824C191.243 246.514 191.228 246.201 191.194 245.888C190.926 243.175 189.541 240.292 187.718 238.541C187.288 238.122 186.832 237.771 186.36 237.5C185.198 236.828 184.13 236.753 183.292 237.175C187.556 234.704 193.861 230.961 198.71 230.568H198.721C199.099 230.534 199.472 230.527 199.831 230.538H199.835C200.121 230.606 200.423 230.727 200.736 230.908C202.725 232.055 204.336 235.134 204.336 237.786Z" fill="#CCCCCC"/>
<path d="M162.325 256.943C159.494 250.29 160.251 243.599 164.015 241.998C167.778 240.397 173.123 244.492 175.954 251.144C178.784 257.797 178.028 264.487 174.264 266.089C170.5 267.69 165.155 263.595 162.325 256.943Z" fill="#DFE1DF"/>
<path d="M176.341 258.992C176.341 260.594 176.077 261.959 175.556 263.007C175.444 263.264 175.299 263.501 175.148 263.719C174.482 264.668 173.599 265.143 172.524 265.143C171.687 265.143 170.771 264.859 169.795 264.299C165.457 261.794 161.931 254.997 161.931 249.15C161.931 245.413 163.427 243 165.754 243C165.991 243 166.235 243.02 166.486 243.073C167.112 243.185 167.778 243.442 168.477 243.844C172.814 246.349 176.341 253.145 176.341 258.992Z" fill="#A3A6A8"/>
<path d="M176.341 258.992C176.341 260.594 176.077 261.958 175.556 263.007C174.93 262.895 174.264 262.637 173.572 262.235C169.234 259.73 165.701 252.934 165.701 247.08C165.701 245.472 165.978 244.107 166.485 243.072C167.112 243.184 167.778 243.441 168.476 243.844C172.814 246.349 176.341 253.145 176.341 258.992Z" fill="#C7C8C7"/>
<path d="M175.134 253.362C175.134 253.762 175.068 254.103 174.938 254.365C174.91 254.429 174.873 254.488 174.836 254.542C174.669 254.779 174.449 254.898 174.181 254.898C173.972 254.898 173.743 254.827 173.499 254.687C172.416 254.062 171.536 252.365 171.536 250.905C171.536 249.971 171.909 249.369 172.49 249.369C172.55 249.369 172.611 249.374 172.673 249.387C172.829 249.415 172.996 249.479 173.17 249.58C174.253 250.205 175.134 251.902 175.134 253.362Z" fill="#DFE1DF"/>
<path d="M200.54 243.205C200.54 243.917 200.474 244.57 200.343 245.156C200.343 245.17 200.343 245.189 200.336 245.203C200.336 245.209 200.336 245.209 200.329 245.216C200.138 245.855 199.888 246.501 199.558 247.127C195.616 254.807 182.313 261.564 174.877 265.789C176.591 264.702 177.666 262.329 177.666 258.993C177.666 258.453 177.639 257.905 177.58 257.358C177.112 252.619 174.693 247.582 171.509 244.524C170.757 243.792 169.96 243.179 169.136 242.704C167.105 241.531 165.24 241.399 163.776 242.137C171.225 237.82 182.241 231.28 190.712 230.595H190.731C191.391 230.535 192.043 230.522 192.669 230.542H192.676C193.177 230.66 193.704 230.871 194.252 231.188C197.725 233.192 200.54 238.571 200.54 243.205Z" fill="url(#paint6_linear_210_1111)"/>
<path d="M193.359 230.76L192.469 234.841C188.02 241.38 177.663 242.698 177.663 242.698C176.345 241.933 176.338 241.683 176.338 241.676C176.338 241.676 176.239 236.106 178.83 231.162C178.83 231.162 180.129 230.8 181.876 230.364C185.027 229.587 189.628 228.578 190.656 229.072C192.245 229.844 193.359 230.76 193.359 230.76Z" fill="#D7D8D6"/>
<path d="M181.876 230.365C181.757 230.497 181.625 230.636 181.48 230.774C178.019 234.07 177.663 242.699 177.663 242.699C176.345 241.934 176.338 241.684 176.338 241.677C176.338 241.677 176.239 236.107 178.83 231.163C178.83 231.163 180.129 230.8 181.876 230.365Z" fill="#DFE1DF"/>
<path d="M101.811 162.423C101.811 162.831 101.773 163.204 101.698 163.54C101.698 163.548 101.698 163.559 101.694 163.567C101.694 163.57 101.694 163.57 101.69 163.574C101.581 163.94 101.437 164.31 101.249 164.668C98.9922 169.064 91.3775 172.932 87.1213 175.35C88.1023 174.728 88.7173 173.37 88.7173 171.46C88.7173 171.151 88.7023 170.838 88.6683 170.524C88.4004 167.811 87.0156 164.929 85.1931 163.178C84.763 162.759 84.3065 162.408 83.8347 162.136C82.6725 161.465 81.6046 161.389 80.767 161.812C85.0309 159.341 91.336 155.597 96.1847 155.205H96.1961C96.5733 155.171 96.947 155.163 97.3054 155.175H97.3091C97.5959 155.243 97.8979 155.363 98.211 155.545C100.199 156.692 101.811 159.771 101.811 162.423Z" fill="#CCCCCC"/>
<path d="M59.807 181.579C56.9767 174.927 57.7332 168.236 61.4968 166.635C65.2604 165.034 70.6058 169.128 73.4361 175.781C76.2664 182.433 75.5098 189.124 71.7463 190.725C67.9827 192.327 62.6373 188.232 59.807 181.579Z" fill="#DFE1DF"/>
<path d="M73.8157 183.631C73.8157 185.233 73.5519 186.597 73.0313 187.646C72.9191 187.903 72.7742 188.14 72.6225 188.357C71.9567 189.307 71.0732 189.781 69.9988 189.781C69.1617 189.781 68.2453 189.498 67.2697 188.938C62.9321 186.433 59.4053 179.636 59.4053 173.789C59.4053 170.051 60.9016 167.639 63.2287 167.639C63.466 167.639 63.7099 167.658 63.9604 167.711C64.5866 167.823 65.2524 168.08 65.9512 168.482C70.2889 170.987 73.8157 177.784 73.8157 183.631Z" fill="#A3A6A8"/>
<path d="M73.8157 183.629C73.8157 185.23 73.5519 186.595 73.0313 187.643C72.405 187.531 71.7392 187.274 71.047 186.872C66.7093 184.367 63.176 177.571 63.176 171.717C63.176 170.108 63.4529 168.744 63.9604 167.709C64.5866 167.821 65.2524 168.078 65.9512 168.48C70.2889 170.985 73.8157 177.782 73.8157 183.629Z" fill="#C7C8C7"/>
<path d="M72.6085 177.999C72.6085 178.399 72.5426 178.74 72.4127 179.001C72.3846 179.066 72.3484 179.125 72.3106 179.179C72.1443 179.416 71.9238 179.535 71.6555 179.535C71.4466 179.535 71.2177 179.464 70.9742 179.324C69.8911 178.698 69.0106 177.001 69.0106 175.541C69.0106 174.608 69.3842 174.006 69.9653 174.006C70.0246 174.006 70.0854 174.011 70.1479 174.024C70.3043 174.052 70.4705 174.116 70.645 174.217C71.7278 174.842 72.6085 176.539 72.6085 177.999Z" fill="#DFE1DF"/>
<path d="M98.0153 167.842C98.0153 168.554 97.9494 169.207 97.8175 169.793C97.8175 169.806 97.8175 169.826 97.8109 169.839C97.8109 169.846 97.8109 169.846 97.8044 169.853C97.6132 170.492 97.3627 171.138 97.0331 171.764C93.0909 179.444 79.7882 186.201 72.3522 190.426C74.0662 189.339 75.1406 186.966 75.1406 183.63C75.1406 183.09 75.1142 182.542 75.0549 181.995C74.5868 177.255 72.1675 172.219 68.9836 169.16C68.232 168.429 67.4345 167.816 66.6104 167.341C64.5801 166.168 62.7144 166.036 61.251 166.774C68.7001 162.456 79.7156 155.917 88.1864 155.231H88.2061C88.8653 155.172 89.518 155.159 90.1442 155.179H90.1508C90.6517 155.297 91.1791 155.508 91.7263 155.825C95.2004 157.829 98.0153 163.208 98.0153 167.842Z" fill="url(#paint7_linear_210_1111)"/>
<path d="M90.834 155.397L89.944 159.477C85.4944 166.017 75.1381 167.335 75.1381 167.335C73.8196 166.57 73.8131 166.32 73.8131 166.313C73.8131 166.313 73.7142 160.743 76.3049 155.799C76.3049 155.799 77.6035 155.436 79.3505 155.001C82.5015 154.223 87.1027 153.215 88.1312 153.709C89.72 154.481 90.834 155.397 90.834 155.397Z" fill="#D7D8D6"/>
<path d="M79.3503 155.002C79.2318 155.134 79.0999 155.272 78.9549 155.411C75.4939 158.707 75.138 167.336 75.138 167.336C73.8195 166.571 73.8129 166.321 73.8129 166.314C73.8129 166.314 73.7141 160.744 76.3047 155.8C76.3047 155.8 77.6034 155.437 79.3503 155.002Z" fill="#DFE1DF"/>
<path d="M366.521 244.036C366.541 243.994 366.557 243.951 366.565 243.906C366.611 243.663 366.494 243.39 366.205 243.305L222.975 201.029L195.817 184.246C195.817 184.246 172.609 195.628 160.798 202.605C149.62 209.207 127.919 225.117 127.919 225.117C125.43 226.927 121.931 231.423 121.931 231.423C123.524 232.676 133.742 229.511 136.818 229.511C139.894 229.511 329.198 251.375 343.398 252.227C347.611 252.479 364.579 246.142 366.397 244.198C366.441 244.16 366.477 244.118 366.505 244.07C366.513 244.058 366.515 244.048 366.521 244.036Z" fill="url(#paint8_linear_210_1111)"/>
<path d="M366.448 244.15C364.886 246.036 347.647 252.483 343.402 252.226C329.196 251.375 139.897 229.516 136.818 229.516C133.74 229.516 123.522 232.68 121.933 231.428C121.933 231.428 125.427 226.932 127.919 225.119L342.921 250.637C345.801 250.518 361.121 245.871 366.211 244.302C366.309 244.276 366.388 244.223 366.448 244.15Z" fill="#D7D6D6"/>
<path d="M126.722 143.808L52.6525 60.1602C52.6525 60.1602 45.4071 63.8324 43.8258 70.8802C43.2098 72.6768 46.6706 82.4002 49.1427 89.1569C51.6148 95.9138 90.673 199.079 90.673 199.079L92.3532 198.086L154.637 161.905L126.722 143.808Z" fill="url(#paint9_linear_210_1111)"/>
<path d="M92.3542 198.084L90.6733 199.079C90.6733 199.079 51.615 95.9135 49.143 89.1567C46.6709 82.3998 43.2101 72.6766 43.8232 70.877L92.3542 198.084Z" fill="#D7D6D6"/>
<path d="M260.888 104.443L247.248 51.7471C247.248 51.7471 248.969 47.472 254.355 45.7539L298.406 86.2803L260.888 104.443Z" fill="url(#paint10_linear_210_1111)"/>
<path d="M384.516 120.378L374.133 124.478L285.858 117.985C285.858 117.985 285.717 116.439 285.931 115.987C291.622 103.935 307.757 93.3633 307.757 93.3633L384.516 120.378Z" fill="url(#paint11_linear_210_1111)"/>
<path d="M324.317 1.01562L301.396 88.5778C301.396 88.5778 285.14 103.384 248.85 113.74C248.85 113.74 249.22 113.107 249.905 111.947C257.928 98.3342 308.957 11.7607 310.473 10.2446C311.673 9.04488 318.483 4.68757 322.082 2.41326C323.42 1.57599 324.317 1.01562 324.317 1.01562Z" fill="url(#paint12_linear_210_1111)"/>
<path opacity="0.48" d="M384.516 120.377L374.133 124.477L285.858 117.984C285.675 116.541 285.931 115.986 285.931 115.986L373.639 123.712C373.639 123.712 381.82 120.337 384.516 120.377Z" fill="#D7D6D6"/>
<path d="M324.317 1.01513C324.317 1.01513 323.42 1.5755 322.082 2.4126C318.483 4.68692 311.673 9.04422 310.473 10.244L308.872 9.22882C310.52 7.58073 322.715 0 322.715 0L324.317 1.01513Z" fill="#FCB539"/>
<path d="M310.473 10.2438C308.957 11.76 257.927 98.3334 249.905 111.946C249.219 113.106 248.85 113.739 248.85 113.739L247.248 112.724C247.248 112.724 307.223 10.8766 308.871 9.22852L310.473 10.2438Z" fill="#FCB539"/>
<g opacity="0.5">
<path d="M85.7118 105.239L90.2354 102.627L90.1623 102.5L85.7461 105.05L56.639 69.4696L59.4421 67.8512L59.3691 67.7246L56.4167 69.4289L56.4712 69.4956L85.7118 105.239Z" fill="#878A8F"/>
</g>
<g opacity="0.5">
<path d="M115.383 138.863L119.392 135.856L119.304 135.739L115.403 138.664L85.7834 105.096L85.6736 105.192L115.383 138.863Z" fill="#878A8F"/>
</g>
<g opacity="0.5">
<path d="M335.704 239.044L339.25 235.055L339.14 234.958L335.655 238.879L283.069 224.199L286.515 219.89L286.401 219.799L282.816 224.28L282.923 224.31L335.704 239.044Z" fill="#878A8F"/>
</g>
<g opacity="0.5">
<path d="M282.923 224.31L282.963 224.169L226.811 208.158L230.484 203.188L230.367 203.102L226.568 208.24L282.923 224.31Z" fill="#878A8F"/>
</g>
<g opacity="0.5">
<path d="M299.531 72.6433L306.264 69.6134L306.204 69.4801L299.753 72.3832L314.207 18.51L320.438 15.558L320.376 15.4258L314.083 18.4068L314.074 18.4395L299.531 72.6433Z" fill="#878A8F"/>
</g>
<defs>
<linearGradient id="paint0_linear_210_1111" x1="32.9716" y1="279.468" x2="29.2717" y2="285.224" gradientUnits="userSpaceOnUse">
<stop stop-color="#787B80"/>
<stop offset="0.1564" stop-color="#9B9EA6"/>
<stop offset="0.4072" stop-color="#91949B"/>
<stop offset="0.8107" stop-color="#7A7E83"/>
</linearGradient>
<linearGradient id="paint1_linear_210_1111" x1="32.0655" y1="279.537" x2="33.9721" y2="279.537" gradientUnits="userSpaceOnUse">
<stop stop-color="#7F7F7F"/>
<stop offset="0.2802" stop-color="#969595"/>
<stop offset="0.4609" stop-color="#A1A0A0"/>
<stop offset="0.7491" stop-color="#888787"/>
<stop offset="1" stop-color="#797979"/>
</linearGradient>
<linearGradient id="paint2_linear_210_1111" x1="35.9865" y1="280.841" x2="32.2867" y2="286.597" gradientUnits="userSpaceOnUse">
<stop stop-color="#787B80"/>
<stop offset="0.1564" stop-color="#9B9EA6"/>
<stop offset="0.4072" stop-color="#91949B"/>
<stop offset="0.8107" stop-color="#7A7E83"/>
</linearGradient>
<linearGradient id="paint3_linear_210_1111" x1="146.018" y1="161.675" x2="171.172" y2="204.167" gradientUnits="userSpaceOnUse">
<stop stop-color="#E6E8E6"/>
<stop offset="0.1811" stop-color="#F3F4F5"/>
<stop offset="0.4357" stop-color="#E9EAEB"/>
<stop offset="0.8576" stop-color="#D1D2D2"/>
<stop offset="1" stop-color="#C8C9C8"/>
</linearGradient>
<linearGradient id="paint4_linear_210_1111" x1="251.623" y1="102.904" x2="271.874" y2="138.663" gradientUnits="userSpaceOnUse">
<stop stop-color="#888B89"/>
<stop offset="0.1811" stop-color="#F3F4F5"/>
<stop offset="0.2564" stop-color="#E1E2E3"/>
<stop offset="0.3817" stop-color="#BEBDBE"/>
<stop offset="0.5416" stop-color="#8C8A8B"/>
<stop offset="0.7298" stop-color="#545252"/>
<stop offset="0.9395" stop-color="#1A1A1A"/>
<stop offset="1" stop-color="#010101"/>
</linearGradient>
<linearGradient id="paint5_linear_210_1111" x1="164.077" y1="185.716" x2="174.185" y2="202.416" gradientUnits="userSpaceOnUse">
<stop offset="0.0056" stop-color="#FCB138"/>
<stop offset="0.2607" stop-color="#F6AC36"/>
<stop offset="1" stop-color="#EEA333"/>
</linearGradient>
<linearGradient id="paint6_linear_210_1111" x1="177.197" y1="234.722" x2="190.161" y2="256.696" gradientUnits="userSpaceOnUse">
<stop stop-color="#E6E8E6"/>
<stop offset="0.0967" stop-color="#EDEEEE"/>
<stop offset="0.5366" stop-color="#F3F4F5"/>
<stop offset="0.8108" stop-color="#E9EAEA"/>
<stop offset="1" stop-color="#E0E1E0"/>
</linearGradient>
<linearGradient id="paint7_linear_210_1111" x1="74.6717" y1="159.359" x2="87.6361" y2="181.333" gradientUnits="userSpaceOnUse">
<stop stop-color="#E6E8E6"/>
<stop offset="0.0967" stop-color="#EDEEEE"/>
<stop offset="0.5366" stop-color="#F3F4F5"/>
<stop offset="0.8108" stop-color="#E9EAEA"/>
<stop offset="1" stop-color="#E0E1E0"/>
</linearGradient>
<linearGradient id="paint8_linear_210_1111" x1="248.715" y1="200.211" x2="244.013" y2="239.642" gradientUnits="userSpaceOnUse">
<stop stop-color="#E6E8E6"/>
<stop offset="0.87" stop-color="#F3F4F5"/>
<stop offset="0.9469" stop-color="#E9EAEA"/>
<stop offset="1" stop-color="#E0E1E0"/>
</linearGradient>
<linearGradient id="paint9_linear_210_1111" x1="109.72" y1="113.602" x2="65.7373" y2="132.114" gradientUnits="userSpaceOnUse">
<stop stop-color="#E6E8E6"/>
<stop offset="0.87" stop-color="#F3F4F5"/>
<stop offset="0.9469" stop-color="#E9EAEA"/>
<stop offset="1" stop-color="#E0E1E0"/>
</linearGradient>
<linearGradient id="paint10_linear_210_1111" x1="276.667" y1="69.244" x2="253.15" y2="76.4732" gradientUnits="userSpaceOnUse">
<stop stop-color="#E6E8E6"/>
<stop offset="0.8946" stop-color="#F3F4F5"/>
<stop offset="0.957" stop-color="#E9EAEA"/>
<stop offset="1" stop-color="#E0E1E0"/>
</linearGradient>
<linearGradient id="paint11_linear_210_1111" x1="336.697" y1="102.605" x2="334.952" y2="120.721" gradientUnits="userSpaceOnUse">
<stop stop-color="#E6E8E6"/>
<stop offset="0.8946" stop-color="#F3F4F5"/>
<stop offset="0.957" stop-color="#E9EAEA"/>
<stop offset="1" stop-color="#E0E1E0"/>
</linearGradient>
<linearGradient id="paint12_linear_210_1111" x1="248.85" y1="57.3776" x2="324.317" y2="57.3776" gradientUnits="userSpaceOnUse">
<stop offset="0.0056" stop-color="#F4A62A"/>
<stop offset="0.4338" stop-color="#F29E24"/>
<stop offset="1" stop-color="#EF9721"/>
</linearGradient>
</defs>
</svg>
