<?xml version="1.0" encoding="UTF-8"?>
<svg xmlns="http://www.w3.org/2000/svg" version="1.1" viewBox="0 0 1440 390">
  <!-- Generator: Adobe Illustrator 29.3.1, SVG Export Plug-In . SVG Version: 2.1.0 Build 151)  -->
  <defs>
    <style>
      .st0 {
        fill: #a83621;
      }

      .st1 {
        fill: #21456f;
      }

      .st2 {
        fill: #04090d;
      }

      .st3 {
        fill: #eaf6ff;
      }

      .st4 {
        fill: #cfeeff;
      }

      .st5 {
        fill: #0d1a35;
      }

      .st6 {
        fill: #e5e4ed;
      }

      .st7 {
        fill: #0d0d18;
      }

      .st8 {
        fill: #315075;
      }

      .st9 {
        fill: #d8a94c;
        fill-opacity: .4;
      }

      .st10 {
        fill: #060c11;
      }

      .st11 {
        fill: #e5e5e5;
      }

      .st12 {
        fill: #112d52;
      }

      .st13 {
        fill: #233d62;
      }

      .st14 {
        fill: #010d43;
      }

      .st15 {
        isolation: isolate;
      }

      .st16 {
        mix-blend-mode: multiply;
      }

      .st17 {
        fill: #00071c;
      }

      .st18 {
        fill: #93d0db;
      }

      .st19 {
        fill: #00092b;
      }

      .st20 {
        fill: #26558a;
      }

      .st21 {
        fill: #f3ab85;
      }

      .st22 {
        fill: #fff;
      }

      .st23 {
        fill: #000206;
      }

      .st24 {
        fill: #317bb0;
      }

      .st25 {
        fill: #cd3102;
      }

      .st26 {
        fill: #f9da22;
      }

      .st27 {
        fill: #0f1122;
      }

      .st28 {
        fill: #8fa8c3;
      }

      .st29 {
        fill: #1b3056;
      }

      .st30 {
        fill: #204775;
      }

      .st31 {
        fill: #fff6c1;
      }

      .st32 {
        fill: #28568a;
      }

      .st33 {
        fill: #848dc2;
      }

      .st34 {
        fill: #ffa877;
      }

      .st35 {
        fill: #0c0e1e;
      }

      .st36 {
        fill: #496a8a;
      }

      .st37 {
        fill: #06060d;
      }

      .st38 {
        fill: #e98e6a;
      }

      .st39 {
        fill: #1a3962;
      }

      .st40 {
        fill: #000621;
      }

      .st41 {
        fill: #0a0c19;
      }

      .st42 {
        fill: #b65a43;
      }

      .st43 {
        fill: #29669e;
      }

      .st44 {
        fill: #bbecfb;
      }

      .st45 {
        fill: #152544;
      }
    </style>
  </defs>
  <g class="st15">
    <g id="Layer_1">
      <rect class="st11" x="-1" y=".2" width="1441" height="390"/>
      <g class="st16">
        <path class="st9" d="M1335.3,122.8c27.5,16.2,15.2,49.6,4.4,59.3-51.7,46.2-171.2,98.1-241,67.5-37.9-16.6-100.9-75.9-93-107,7.9-31.1,106.2-53.3,167.8-47.7,61.5,5.6,126.1,6.9,161.8,27.9h0Z"/>
      </g>
      <g class="st16">
        <path class="st6" d="M1066.7,168.2c-15.8,9.1-25.2,7.3-41.1-1.8-15.9-9.2-21.7-20.3-5.9-29.4,15.8-9.1,30.9-6.1,46.8,3.1s16,19.1.2,28.2Z"/>
      </g>
      <path class="st33" d="M1031.2,131.6s-4.2,7.8-9.7,11.3c-2.3,1.5-8.4,7.1-5.4,9.1,3,2.1,8.3,1,11.7-1.5,3.4-2.4,5.1-3.8,8.5-4.4,3.4-.6,8.5-2.2,8.9-4.5.4-2.3-2.9-8.2-2.9-8.2l-11.1-2h0Z"/>
      <path class="st33" d="M1054,144.7s-3,6.2-5.4,9.1c-2.3,2.9-9.5,8.3-7.3,10.4,2.2,2.1,9.6,3,13.4-1.3,3.8-4.4,12-8.8,12-10.7s-2.5-10.7-2.5-10.7l-10.2,3.3h0Z"/>
      <path class="st13" d="M1031.1,130.3s-4.2,7.8-9.7,11.3c-2.2,1.4-8.4,7.1-5.3,9.1,3,2.1,8.3,1,11.7-1.5s5.1-3.8,8.5-4.4c3.4-.6,8.5-2.2,8.9-4.5.4-2.3-2.9-8.2-2.9-8.2l-11.1-2h0Z"/>
      <path class="st13" d="M1053.9,143.4s-3,6.2-5.4,9.1c-2.3,2.9-9.5,8.3-7.3,10.3,2.2,2.1,9.6,3,13.4-1.3,3.8-4.4,12-8.8,12-10.7s-2.5-10.7-2.5-10.7l-10.2,3.3h0Z"/>
      <path class="st2" d="M1027.5,29s-1.2,26.3,0,45.8c1.2,19.5,2.2,60.1,2.2,60.1,0,0-.7,4.1,4.9,3.4,5.6-.7,9-2,10.2-4.6,1.2-2.7,6.8-24.1,4.6-30.9-2.2-6.8-4.1-10.7-3.9-19.1.2-8.4,10.2-36.2,7-45.7-3.2-9.5-25.1-9.1-25.1-9.1h0Z"/>
      <path class="st10" d="M1034.3,33.5s9,45.9,9.7,54.4c.7,8.5,9.3,17.3,9.1,24.8-.1,7.5,0,32.4,0,32.4,0,0-1.6,4.1,5,2.2,6.6-2,8.3-7.3,8.3-7.3,0,0,3.4-20.9,2.2-29.7-1.2-8.8-3.7-16.1-2.7-22.4,1-6.3,5.9-33.9,2.9-43.1-2.9-9.2-6.8-13.6-6.8-13.6l-27.8,2.3Z"/>
      <path class="st21" d="M1034.5-24.8l1.2-2.5s-6.3-.3-8.7,2.5c-2.4,2.7-2.2,6.9-3.9,9.7-1.7,2.7-5.9,6.7-6.8,9.4-.8,2.7-.5,8.8.8,12.8,1.3,4,8.5,16,9.8,18,1.3,2,3.5-1,3.7-1.5.2-.5.6,0-.5-4.5-1.1-4.6-6.1-21.2-6.1-21.2,0,0,4.3-6.6,8-10.4,3.7-3.8,2.4-12.3,2.4-12.3h0Z"/>
      <path class="st30" d="M1035.7-23.3l1.8-4.4s-6.1-2-11.1,1.7c-5,3.7-8.8,14-8.8,14,0,0-1.5,6.8,3.9,8.3,5.4,1.5,5.4-1,6-1s10.1-12.4,8.3-18.6h0Z"/>
      <path class="st21" d="M1027.8,22.9s-4.4,4.7-4.1,5.2c.3.5,1.2,5,1.1,6.8,0,1.7-1.3,4.1,0,3.5,1.4-.6,2.1-.2,2.1-3.7s.8-6.5.8-6.8c0-.3,0-4.9,0-4.9h0Z"/>
      <path class="st39" d="M1031.4-23.8c-1.8,3.6-10.3,6.3-7.5,23.2.8,4.8,3.2,27.3,3.2,27.3,0,0-2.2,3.7,3.2,9.3,5.4,5.6,18.4,7.3,23,5.6s11.6-11,11.6-11c0,0,3-2.6,3.7-7.7s9.2-24.2,7.7-28.8c-1.6-4.6-14.6-17.9-23-20.3-8.4-2.4-18.9-3.5-21.9,2.4h0Z"/>
      <path class="st32" d="M1032.1-28s-4.6,2.6-3.9,3c.7.3,10,.7,11.3.2,1.3-.5,1.7-3.2,1.7-3.2,0,0-6.1-1.8-9.1,0h0Z"/>
      <path class="st23" d="M1027,26.7v7.9s3.8,10.1,19.2,10.6c15.3.5,19.3-8.9,18.6-10-.7-1.2,0-4.6,0-4.6,0,0-4.8,7.7-10.4,9-8.5,2.1-19.3-2.3-23.5-5.5-3.6-2.8-4-7.4-4-7.4h0Z"/>
      <path class="st23" d="M1044.9-25.8s-1-1.5-4.8,3.9c-.8,1.1.5,2.7.3,4-.8,5.1,0,10.7,0,10.7,0,0,21-8.1,17.3-13.8-1-1.5-9.4-5.5-12.8-4.8h0Z"/>
      <path class="st32" d="M1040.4-7.2s8.5-4.8,9.7-5.4c1.2-.5,3.2-1.2,3.2-1.2v5l-12.8,1.7Z"/>
      <path class="st32" d="M1040.4-19.4V-7.2l-3.7-10.7,3.7-1.5Z"/>
      <path class="st32" d="M1040.4-17.9l-4.7-1.3s3.6-7.9,10.2-10.3c6.7-2.4,3,.5,3,.5,0,0-6.5,6.7-8,8.9-.5.7-.5,2.3-.5,2.3h0Z"/>
      <path class="st38" d="M1039.5-29s2.2,5.2,1.2,8.2c-1,3,.8,6.7,3.7,6.8,2.9.2,5.7.7,9.4-3.7,3.7-4.5,4.3-4.9,3.6-6.6-.7-1.8-1.7-2-1.6-4.7.2-2.7-.4-3.1-.4-3.1l-15.9,3.1h0Z"/>
      <path class="st14" d="M1041.1-43.6c0-.2,0-4.7,0-4.7,0,0-1.4-.5,0-2.1,1.5-1.5,12.6-9.3,20.9,1.2,8.3,10.5-7.8,18.8-10,19.6-2.2.9-10.9-14.1-10.9-14.1h0Z"/>
      <path class="st21" d="M1041-48.3s-2.4,4.7-2.5,5.7c-.2,1,.4,2.5,0,3.2-.4.7-1.1,1.7-1.1,3s-1,9.8-.5,10.6c.5.8,3.2,2.8,5.2,2.6,1.9-.3,7.3-.9,9.2-2.2,2-1.3,3-4,3-4,0,0,.7,1.4,2.8,0,2.2-1.5,4.3-5,3.7-6.2-.6-1.2-3.4-1.1-4.4,0-1.1,1.1-1.8,2.4-2.4,2.5-.6,0,1.1-.8.1-5.3-1-4.6-1.3-4.8-5.9-6.4s-7.1-3.2-7.1-3.2Z"/>
      <path class="st32" d="M1050.6-12.8l2.6-4.1s3.8-7.1,3.2-9.1l-.6-2s.9-1.5,4.3,5.7c.7,1.6.5,6.9-.8,9.8-1.3,2.9-2.8,3.9-2.8,3.9l-5.8-4.2h0Z"/>
      <path class="st32" d="M1058.7-12s7.8,7.8,10.4,6.4c2.5-1.4,3.3-1.6,3.3-2.4s-11-9.2-12-8.6c-1.1.6-1.7,4.6-1.7,4.6h0Z"/>
      <path class="st36" d="M1070.8,29.6c-1-.5-6.3,4.7-6.3,4.7l-4-2.3s5.3-5.2,6.3-4.7l4,2.3Z"/>
      <path class="st45" d="M1064.4,34.2c-3,1.5-1.2,13.8,1.5,18.7.3.6.6.9.9,1.1l-4-2.3c-.3-.2-.6-.5-.9-1.1-2.7-5-4.5-17.3-1.5-18.7l4,2.3Z"/>
      <path class="st45" d="M1070.8,29.6c1,.6.8,11.4,1.1,14.3.2,2.5-2.6,11.7-5,10.2-.3-.2-.6-.5-.9-1.1-2.7-5-4.5-17.3-1.5-18.7,0,0,5.4-5.2,6.3-4.7h0Z"/>
      <path class="st45" d="M1047.9,40.9l.6,12.4-6.3-3.6-.6-12.4,6.3,3.6Z"/>
      <path class="st45" d="M1050.5,38.6v13.5l-2,1.1-.6-12.4,2.6-2.3Z"/>
      <path class="st44" d="M1044.6,44.2s-1,.8-.6,1.8c.3,1,1.2,1.4,1.6.8s.5-2.6-1-2.6Z"/>
      <path class="st36" d="M1050.5,38.6l-2.6,2.3v6.7l-5.9-3.3-1.9-7,4.1-2.3,6.3,3.6Z"/>
      <path class="st23" d="M1029.7,30.4c-.5-.7-1.4-.3-1.7-.3-.3,0-.6,7.2-.6,7.2,0,0-.3,3.3.1,3.9l-3.3-4.5c-.4-.6-.1-3.9-.1-3.9,0,0,.3-7.2.6-7.2.3,0,1.2-.5,1.7.3l3.3,4.5Z"/>
      <path class="st13" d="M1026.4,25.9c-.6-.7-1.4-.3-1.7-.3-.2,0-.4,3.7-.5,5.8.2.7.2,1.5.2,2.2,0,.6.2,1.3.7,1.7.4.3,1.2.7,1.7.4.4-.2.6-.8.7-1.3,0,0,0,0,0-.1.1-2,.3-4.2.5-4.3.3,0,1.2-.5,1.7.3l-3.3-4.5h0Z"/>
      <path class="st45" d="M1029.7,30.4c0,0,.1.2.2.3.5,1.1.1,7.8-.4,9.5-.5,1.7-1.2,1.1-1.8,1.1,0,0,0,0-.1,0-.4-.6-.1-3.9-.1-3.9,0,0,.3-7.2.6-7.2.3,0,1.2-.5,1.7.3Z"/>
      <path class="st12" d="M1052.9,20.2c.2-4.7,1.6-9.3,1.6-14,0,0,.2,0,.3-.2,0,4.7-1.4,9.3-1.5,14-.1,0-.2.1-.3.2h0Z"/>
      <path class="st20" d="M1052.9,20.2c-.8.4-1.6.8-2.4,1.2-2.3-1.5-4.5-3.1-7-4.3-.4-1-.9-2-1.4-3,.2-6-.8-5.7,1.2-11.6,4.7,4.2,5.8,3.4,11,6.4,0,4.7-1.3,6.7-1.4,11.4Z"/>
      <path class="st43" d="M1045.9,5.9c.8.5,2.2.1,3.1.4.1,5.3-.2,8.5-.5,13.8-.7-.5-1.5-.9-2.2-1.4.3-5-1.4-7.9-.4-12.8h0Z"/>
      <path class="st24" d="M1042.8.3c4.8,4.3,6.9,4.5,12.1,7.6,0,1.9,0,1.3-.4,3.2-.7.3-1.3.6-2,.9-3.1-1.8-6.2-3.3-9.3-4.9-.7-1.1-1.1-2.1-1.4-3.4.6-1.9.6-1.5,1.1-3.4h0Z"/>
      <path class="st12" d="M1034.9-3.7c0,0-.2,0-.2,0-.2,4.2-1.4,8.3-1.5,12.6,0,0,.2-.1.3-.2.2-4.2,1.3-8.2,1.5-12.4,0,0,0,0,0,0h0Z"/>
      <path class="st20" d="M1033.2,8.8c-.8.4-1.6.8-2.4,1.2-2.3-1.5-4.5-3.1-7-4.3-.5-1-.9-2-1.4-3,.2-6-.8-6.1,1.2-12,4.7,4.2,5.8,3.5,11,6.6,0,4.7-1.3,6.8-1.5,11.5h0Z"/>
      <path class="st43" d="M1027-8.2c.8.5,1.7.8,2.5,1.1.1,5.3-.5,10.5-.8,15.7-.7-.5-1.5-.9-2.2-1.4.3-5-.5-10.6.4-15.4h0Z"/>
      <path class="st24" d="M1023.6-11.2c4.8,4.3,6.2,3.8,11.4,7,0,1.9.1,2.1-.2,3.9-.7.3-1.3.6-2,.9-3-1.8-6.2-3.3-9.3-4.9-.7-1.1-1.1-2.1-1.4-3.4.6-1.9,1.1-1.6,1.5-3.5h0Z"/>
      <path class="st1" d="M1034.1,36.1s.4-24.7,1.6-30.3c1.2-5.5,4.7-13.1,4.7-13.1l3.5-.5s-4.9,10.4-5.4,17c-.6,8.4-1.5,28.1-1.5,28.1l-3-1.4Z"/>
      <path class="st4" d="M1032.9,35s-.2,6.7,0,7.1c.2.4,3.3,1.5,3.3,1.5v-.4l-2.9-1.3.2-6,3.5,1.6v-.8s-4.1-1.7-4.1-1.7h0Z"/>
      <path class="st4" d="M1034.1,39.3v.9c-.1,0-2.7-1.6-2.7-1.6v-1.1l2.7,1.8Z"/>
      <path class="st8" d="M1028.7-14.5l3.9-7,1.2.4-3.9,7-1.2-.4Z"/>
      <path class="st41" d="M1032.6-21.5l-5.1-3.2,1.2.4,5.1,3.2-1.2-.4Z"/>
      <path class="st13" d="M1028.7-14.5l-5.1-3.2,3.9-7,5.1,3.2-3.9,7Z"/>
      <path class="st23" d="M1025.2-17.8l-.4-.2,3.1-5.3.4.2-3.1,5.3Z"/>
      <path class="st23" d="M1026.2-17.3l-.4-.2,3.1-5.3.4.2-3.1,5.3Z"/>
      <path class="st23" d="M1027.1-16.7l-.4-.2,3-5.3.4.2-3.1,5.3Z"/>
      <path class="st23" d="M1028-16.2l-.4-.2,3.1-5.3.4.2-3.1,5.3Z"/>
      <path class="st23" d="M1025.2-15.5c0,0,0-.2.2-.3.1-.1.3-.2.5-.2.4,0,.9.3,1.2.6,0,0,0-.2,0-.2h.2s.2.1.2.1c0,.2,0,.4-.3.6,0,.3,0,.6,0,.7h-.4c0-.2,0-.3,0-.4-.4.1-1.2,0-1.5-.5,0-.1,0-.2,0-.4h0ZM1026.7-15.1c-.2-.2-.5-.3-.8-.3,0,0-.2,0-.2,0,0,0,0,0,.2.1.3.1.7.2.8.2h0Z"/>
      <path class="st23" d="M1024.9-14.2c0,0,0-.2.2-.3.1-.1.3-.2.5-.2.4,0,.9.3,1.2.5,0,0,0-.2,0-.3h.2s.2.1.2.1c0,.2,0,.4-.3.6,0,.3,0,.6,0,.7h-.4c0-.2,0-.3,0-.4-.4.1-1.2,0-1.5-.5,0-.1,0-.2,0-.4h0ZM1026.3-13.8c-.2-.2-.5-.3-.8-.3-.1,0-.2,0-.2,0,0,0,0,0,.2.1.3.1.7.2.8.2h0Z"/>
      <path class="st23" d="M1024.6-12.9c0,0,0-.2.2-.3,0-.1.3-.2.5-.2.4,0,.9.3,1.2.5,0,0,0-.2,0-.3h.2s.2.1.2.1c0,.2,0,.4-.3.6,0,.3,0,.6,0,.7h-.5c0-.2,0-.3,0-.4-.4.1-1.2,0-1.5-.5,0-.1,0-.2,0-.4h0ZM1026.1-12.5c-.2-.2-.5-.3-.8-.3,0,0-.1,0-.2,0,0,0,0,0,.2.1.3.1.7.2.8.2h0Z"/>
      <path class="st23" d="M1024.3-11.6c0,0,0-.2.2-.3.1-.1.3-.2.5-.2.4,0,.9.3,1.2.5,0,0,0-.2,0-.3h.2s.2.1.2.1c0,.2,0,.4-.3.6,0,.3,0,.6,0,.7h-.4c0-.2,0-.3,0-.4-.4.1-1.2,0-1.5-.5,0-.1,0-.2,0-.4ZM1025.8-11.2c-.2-.2-.5-.3-.8-.3,0,0-.2,0-.2,0,0,0,0,0,.2.1.3.1.7.2.8.1h0Z"/>
      <path class="st23" d="M1024-10.3c0,0,0-.2.2-.3.1-.1.3-.2.5-.2.4,0,.9.3,1.2.5,0,0,0-.2,0-.3h.2s.2.1.2.1c0,.2,0,.4-.3.6,0,.3,0,.6,0,.7h-.4c0-.2,0-.3,0-.4-.3.1-1.2,0-1.5-.4,0-.1,0-.2,0-.4h0ZM1025.5-9.9c-.2-.2-.5-.3-.8-.3-.1,0-.1,0-.2,0,0,0,0,0,.2.1.3.1.7.2.8.1h0Z"/>
      <path class="st23" d="M1023.7-8.9c0,0,0-.2.2-.3.1-.1.3-.2.5-.2.4,0,.9.3,1.2.5,0,0,0-.2,0-.3h.4c0,.3,0,.5-.3.7,0,.3,0,.6,0,.7h-.5c0-.2,0-.3,0-.4-.4.1-1.2,0-1.5-.4,0-.1,0-.2,0-.4h0ZM1025.2-8.6c-.2-.2-.5-.3-.8-.3,0,0-.1,0-.2,0,0,0,0,0,.2.1.3.1.7.2.8.1h0Z"/>
      <path class="st23" d="M1023.5-7.6c0,0,0-.2.2-.3.1-.1.3-.2.5-.2.4,0,.9.3,1.2.5,0,0,0-.2,0-.3h.5c0,.3,0,.5-.3.7,0,.3,0,.6,0,.7h-.5c0-.2,0-.3,0-.4-.3.1-1.2,0-1.5-.4,0-.1,0-.2,0-.4h0ZM1024.9-7.3c-.2-.2-.5-.3-.8-.3,0,0-.1,0-.2,0,0,0,0,0,.2.1.3.1.7.2.8.1h0Z"/>
      <path class="st23" d="M1023.2-6.3c0,0,0-.2.2-.3.1-.1.3-.2.5-.2.4,0,.9.2,1.2.5,0,0,0-.2,0-.3h.5c0,.3,0,.5-.3.7,0,.3,0,.6,0,.7h-.5c0-.2,0-.3,0-.4-.3.1-1.2,0-1.5-.4,0-.1-.1-.2,0-.4ZM1024.6-6c-.2-.1-.5-.3-.8-.3-.1,0-.1,0-.2,0,0,0,0,0,.2.1.3.1.7.2.8.1h0Z"/>
      <path class="st23" d="M1022.9-5c0,0,0-.2.2-.3,0-.1.3-.2.5-.2.4,0,.9.2,1.2.5,0,0,0-.2,0-.3h.5c0,.3,0,.5-.3.7,0,.3,0,.6,0,.7h-.5c0-.2,0-.3,0-.4-.3.1-1.2,0-1.5-.4,0-.1,0-.2,0-.3h0ZM1024.4-4.7c-.2-.1-.5-.3-.8-.3,0,0-.1,0-.2,0,0,0,0,0,.2.1.3.1.7.2.8.1h0Z"/>
      <path class="st23" d="M1022.7-3.7c0,0,0-.2.2-.3,0-.1.3-.2.5-.2.4,0,.9.2,1.2.5,0,0,0-.2,0-.3h.4c0,.3,0,.5-.3.7,0,.3,0,.6,0,.7h-.5c0-.2,0-.3,0-.4-.3.1-1.2,0-1.5-.4,0-.1,0-.2,0-.3h0ZM1024.1-3.4c-.2-.1-.5-.3-.8-.3,0,0-.1,0-.2,0,0,0,0,0,.2.1.3.1.7.2.8.1h0Z"/>
      <path class="st23" d="M1022.4-2.4c0,0,0-.2.2-.3.1-.1.3-.2.5-.2.4,0,.9.2,1.2.5,0,0,0-.2,0-.3h.5c0,.3,0,.5-.3.7,0,.3,0,.6,0,.7h-.5c0-.2,0-.3,0-.4-.3.1-1.2,0-1.5-.4,0-.1,0-.2,0-.3ZM1023.9-2.1c-.2-.1-.5-.3-.8-.3,0,0-.1,0-.2,0,0,0,0,0,.2.1.3.1.7.2.8.1h0Z"/>
      <path class="st23" d="M1022.2-1.1c0,0,0-.2.2-.3,0-.1.3-.2.5-.2.4,0,.9.2,1.2.5,0,0,0-.2,0-.3h.5c0,.3,0,.5-.3.7,0,.3,0,.6,0,.7h-.5c0-.2,0-.3,0-.4-.3.1-1.2,0-1.5-.4,0-.1,0-.2,0-.3h0ZM1023.6-.8c-.2-.1-.5-.3-.8-.3,0,0-.1,0-.2,0,0,0,0,0,.2.1.3.1.7.2.8.1h0Z"/>
      <path class="st23" d="M1021.9.3c0,0,0-.2.2-.3.1-.1.3-.2.5-.2.4,0,.9.2,1.2.5,0,0,0-.2,0-.3h.5c0,.3,0,.5-.2.7,0,.3,0,.6,0,.7h-.5c0-.2,0-.3,0-.4-.4.1-1.2,0-1.5-.4,0-.1,0-.2,0-.3ZM1023.4.6c-.2-.1-.5-.3-.8-.3,0,0-.2,0-.2,0,0,0,0,0,.2.1.3.1.7.2.8.1h0Z"/>
      <path class="st23" d="M1021.7,1.6c0,0,0-.2.2-.3.1-.1.3-.2.5-.2.4,0,.9.2,1.2.5,0,0,0-.2,0-.3h.5c0,.3,0,.5-.2.7,0,.3,0,.6,0,.7h-.5c0-.2,0-.3,0-.4-.4.1-1.2,0-1.5-.4,0-.1-.1-.2,0-.3h0ZM1023.1,1.9c-.2-.1-.5-.3-.8-.3s-.1,0-.2,0c0,0,0,0,.2.1.3.1.7.2.8.1h0Z"/>
      <path class="st23" d="M1021.5,2.9c0,0,0-.2.2-.3.1-.1.3-.2.5-.2.4,0,.9.2,1.2.5,0,0,0-.2,0-.3h.5c0,.3,0,.5-.2.7,0,.3,0,.6,0,.7h-.5c0-.2,0-.3,0-.4-.4.1-1.2,0-1.5-.4,0-.1-.1-.2,0-.3h0ZM1022.9,3.2c-.2-.1-.5-.3-.8-.3s-.1,0-.2,0c0,0,0,0,.2.1.3.1.7.2.8,0h0Z"/>
      <path class="st23" d="M1021.2,4.2c0,0,0-.2.2-.3.1-.1.3-.2.5-.2.4,0,.9.2,1.2.4,0,0,0-.2,0-.3h.5c0,.3,0,.5-.2.7.1.3,0,.6,0,.7h-.5c0-.2,0-.3,0-.4-.3.2-1.2,0-1.5-.3,0-.1-.1-.2,0-.3h0ZM1022.7,4.5c-.2-.1-.6-.3-.8-.3s-.2,0-.2,0c0,0,0,0,.2.1.3.1.7.1.8,0h0Z"/>
      <path class="st23" d="M1021,5.6c0,0,0-.2.2-.3,0-.1.3-.2.5-.2.4,0,1,.2,1.2.4,0,0,0-.2,0-.3h.5c0,.3,0,.5-.2.7.1.3,0,.6,0,.7h-.5c0-.2,0-.3,0-.3-.3.2-1.2,0-1.5-.3,0-.1-.1-.2,0-.3h0ZM1022.5,5.8c-.2-.1-.5-.3-.8-.3s-.1,0-.2,0c0,0,0,0,.2.1.3.1.7.1.8,0h0s0,0,0,0Z"/>
      <path class="st23" d="M1020.9,6.9c0,0,0-.2.1-.3,0-.1.3-.2.5-.2.4,0,.9.2,1.2.4,0,0,0-.2,0-.3h.5c0,.3,0,.5-.2.7,0,.3,0,.6,0,.7h-.5c0-.2,0-.3,0-.3-.3.2-1.2,0-1.5-.3,0-.1-.1-.2,0-.3h0ZM1022.3,7.1c-.2-.1-.5-.3-.8-.3s-.1,0-.2,0c0,0,0,0,.2.1.3.1.7.1.8,0h0s0,0,0,0Z"/>
      <path class="st23" d="M1020.7,8.2c0,0,0-.2.1-.3,0-.1.2-.2.5-.2.4,0,.9.2,1.2.4,0,0,0-.2,0-.3h.5c0,.3,0,.5-.2.7.1.3,0,.6,0,.7h-.5c0-.2,0-.3,0-.3-.3.2-1.2,0-1.5-.3,0-.1-.1-.2-.1-.3h0ZM1022.2,8.5c-.2-.1-.6-.3-.8-.3-.1,0-.1,0-.2,0,0,0,0,0,.2.1.3.1.7.1.8,0h0Z"/>
      <path class="st23" d="M1020.5,9.6c0,0,0-.2.1-.3.1-.1.2-.2.5-.2.4,0,1,.2,1.2.4,0,0,0-.2,0-.3h.5c0,.3,0,.5-.2.7.1.3,0,.6,0,.7h-.5c0-.2,0-.3,0-.3-.3.2-1.2,0-1.5-.3,0-.1-.1-.2,0-.3h0ZM1022,9.8c-.2-.1-.6-.3-.8-.3,0,0-.1,0-.2,0,0,0,0,0,.2.1.3.1.7.1.8,0h0s0,0,0,0Z"/>
      <path class="st23" d="M1020.4,10.9c0-.1,0-.2.1-.3,0-.1.2-.2.4-.2.4,0,1,.1,1.2.4,0,0,0-.2,0-.3h.2s.2,0,.2,0c0,.2,0,.4-.2.6.1.3,0,.6,0,.7h-.5c0-.2,0-.3,0-.3-.3.2-1.2.1-1.5-.3,0,0-.1-.2-.1-.3ZM1021.9,11.1c-.2-.1-.6-.3-.8-.2-.1,0-.2,0-.2,0,0,0,0,0,.2,0,.3.1.7,0,.8,0h0s0,0,0,0Z"/>
      <path class="st23" d="M1020.3,12.3c0-.1,0-.2.1-.3,0-.1.2-.2.5-.2.4,0,1,.1,1.2.4,0,0,0-.2,0-.3h.2s.2,0,.2,0c0,.2,0,.4-.2.6.1.3.1.5.1.7h-.5c0-.2,0-.3-.1-.3-.3.2-1.2.1-1.5-.2,0,0-.1-.2-.1-.3ZM1021.7,12.4c-.2-.1-.6-.2-.8-.2,0,0-.1,0-.2.1,0,0,0,0,.2,0,.3,0,.7,0,.8,0h0s0,0,0,0Z"/>
      <path class="st23" d="M1020.2,13.6c0-.1,0-.2.1-.3,0-.1.2-.2.5-.2.4,0,1,.1,1.2.3,0,0,0-.2,0-.3h.2s.2,0,.2,0c0,.2,0,.4-.2.6.1.3.1.5,0,.7h-.5c0-.1,0-.2,0-.3-.3.2-1.2.2-1.5-.2,0,0-.1-.2-.1-.3h0ZM1021.7,13.7c-.2-.1-.6-.2-.8-.2-.1,0-.1,0-.2.1,0,0,0,0,.2,0,.3,0,.7,0,.8,0h0s0,0,0,0Z"/>
      <path class="st23" d="M1020.1,15c0-.1,0-.2.1-.3,0-.1.2-.2.5-.3.4,0,1,0,1.2.3,0,0,0-.2,0-.3h.2s.2,0,.2,0c0,.2,0,.4-.2.6.1.3.1.5.1.6h-.5c0-.1,0-.2-.1-.3-.3.2-1.2.2-1.5-.1,0,0-.2-.2-.1-.3h0ZM1021.6,15.1c-.2-.1-.6-.2-.8-.2,0,0-.1,0-.2.1,0,0,0,0,.2,0,.3,0,.7,0,.8,0h0Z"/>
      <path class="st23" d="M1020.1,16.4c0-.1,0-.2.1-.3,0-.1.2-.2.4-.3.4,0,1,0,1.3.3,0,0,0-.2,0-.3h.2s.2,0,.2,0c0,.2,0,.4-.2.6.1.3.1.5.2.6h-.5c0,0,0-.2-.1-.2-.3.2-1.2.3-1.6,0,0,0-.1-.2-.1-.3h0ZM1021.6,16.4c-.2-.1-.6-.2-.9-.1,0,0-.1,0-.2.1,0,0,0,0,.2,0,.3,0,.7,0,.8,0h0Z"/>
      <path class="st23" d="M1020.2,17.8c0-.1,0-.2,0-.3,0-.1.2-.2.4-.3.4,0,1,0,1.3.2,0,0,0-.2,0-.2h.2s.2,0,.2,0c0,.2,0,.4-.1.6.2.3.2.5.2.6h-.5c0,0,0-.2-.1-.2-.3.2-1.2.3-1.6,0-.1,0-.2-.2-.2-.3h0ZM1021.6,17.7c-.2,0-.6-.2-.9-.1-.1,0-.1,0-.2.1,0,0,0,0,.2,0,.3,0,.7,0,.8,0h0s0,0,0,0Z"/>
      <path class="st23" d="M1020.3,19.1c0-.1,0-.2,0-.3,0-.2.2-.3.4-.3.4-.1,1,0,1.3.1,0,0,0-.2,0-.3h.2c0,0,.2,0,.2,0,0,.2,0,.4,0,.6.2.2.2.5.2.6h-.5s0-.1-.1-.2c-.3.2-1.2.4-1.6,0-.1,0-.2-.2-.2-.3h0ZM1021.7,19c-.2,0-.6-.1-.9,0,0,0-.1,0-.2.1,0,0,0,0,.2,0,.3,0,.7,0,.8-.1h0Z"/>
      <path class="st23" d="M1020.5,20.6c0-.1,0-.2,0-.3,0-.2.2-.3.4-.3.4-.1,1,0,1.3,0,0,0,0-.2,0-.3h.2c0,0,.2,0,.2,0,0,.2,0,.4,0,.6.2.2.3.5.3.6h-.4s0,0-.2-.1c-.3.2-1.1.5-1.5.2-.1,0-.2-.2-.2-.3h0ZM1021.9,20.3c-.2,0-.6,0-.9,0,0,0-.1,0-.1.2,0,0,0,0,.2,0,.3,0,.7,0,.8-.2h0s0,0,0,0Z"/>
      <path class="st23" d="M1020.8,22c0-.1,0-.2,0-.4,0-.2.2-.3.4-.4.4-.2,1-.2,1.3,0,0,0,0-.2,0-.2h.2c0,0,.2-.1.2-.1,0,.2,0,.4,0,.6.2.2.3.4.3.5l-.4.2c0-.1,0-.2-.2-.2-.2.3-1.1.6-1.5.4-.1,0-.2-.2-.2-.3h0ZM1022.2,21.6c-.2,0-.6,0-.9,0,0,0-.1,0-.1.2,0,0,0,0,.2,0,.3,0,.7-.2.8-.3h0s0,0,0,0Z"/>
      <path class="st23" d="M1021.3,23.4c0-.1,0-.2,0-.4,0-.2.1-.3.3-.4.3-.2.9-.3,1.3-.2,0,0,0-.1,0-.2h.2c0-.1.2-.2.2-.2,0,.2.1.3,0,.6.2.2.3.3.4.4l-.4.2c0,0-.1-.2-.2-.2-.2.3-1,.8-1.4.6-.1,0-.2-.2-.3-.3h0ZM1022.7,22.8c-.2,0-.6,0-.8.2,0,0-.1.1-.1.2,0,0,0,0,.2,0,.3,0,.7-.3.7-.4h0s0,0,0,0Z"/>
      <path class="st23" d="M1022.1,24.7c0,0-.1-.2-.1-.4,0-.2,0-.3.2-.5.3-.3.9-.4,1.2-.4,0,0,0-.1-.1-.2h.2c0-.1.2-.2.2-.2,0,.2.2.3.2.5.2.1.4.3.4.3l-.3.3c0,0-.1-.1-.2,0-.1.3-.8,1-1.3.9-.1,0-.2-.1-.3-.2h0ZM1023.3,23.9c-.2,0-.6.2-.8.4,0,0,0,.1,0,.2,0,0,0,0,.2,0,.3-.1.6-.4.6-.5h0s0,0,0,0Z"/>
      <path class="st23" d="M1023.2,25.9c-.1,0-.2-.2-.2-.3,0-.2,0-.4,0-.5.2-.3.7-.6,1.1-.7,0,0,0-.1-.2-.2l.2-.2h.2c.1,0,.2,0,.3.3.2,0,.4.1.5.1l-.2.4c0,0-.2,0-.3,0,0,.3-.4,1.2-.9,1.2-.1,0-.3,0-.4-.1h0ZM1024.2,24.8c-.2,0-.5.3-.7.6,0,0,0,.1,0,.2,0,0,0,0,.2,0,.2-.2.4-.5.5-.7h0s0,0,0,0Z"/>
      <path class="st23" d="M1024.7,26.7c-.1,0-.2-.1-.3-.2-.1-.2-.2-.3,0-.5,0-.4.5-.8.8-1,0,0-.1,0-.2-.1v-.2c0,0,.2-.2.2-.2.1,0,.2.1.4.3.2,0,.4,0,.5,0v.5c-.2,0-.2,0-.3,0,0,.3,0,1.2-.5,1.5-.1,0-.3,0-.5,0h0ZM1025.2,25.3c-.2.2-.4.5-.4.8,0,0,0,.2,0,.2,0,0,0,0,.2-.1.2-.3.2-.7.2-.8h0s0,0,0,0Z"/>
      <path class="st23" d="M1026.4,27c-.1,0-.3,0-.4,0-.2,0-.3-.3-.3-.4,0-.4.2-.9.4-1.2,0,0-.1,0-.2,0v-.5c.2,0,.3,0,.5.2.2-.1.4-.2.4-.2v.4c0,0,0,0,0,.2.2.3.5,1.2,0,1.6-.1.1-.3.2-.4.2h0ZM1026.4,25.5c0,.2-.2.6-.1.9,0,0,0,.1.2.2,0,0,0,0,0-.2,0-.3,0-.7,0-.8h0s0,0,0,0Z"/>
      <path class="st21" d="M1068.7,5.5c2.8,5.1,4.9,8.5,8.8,11.2,3.8,2.7,5.7,6.2,5.7,6.2,0,0-5.2,7-9.2,9.9-4.1,2.9-7.6,5.2-7.6,5.2,0,0-1.8-.3-3.5-.7-1.3-.3-3.4-.5-3.8-.6-.9-.2-.6-.1-3,.9-2.4,1.1-5.2.7-2.7,2.5,1.7,1.2,4.4-.7,4.4-.7l2.5,2.3s-3.4,4-4.1,4.7c-.7.7-1.6,2.6-2.1,5.7-.5,3.2-1.4,5.2-.7,6.5.8,1.3,2.9-4.3,3.2-5.4.3-1.1,1.1-1.9,1.1-1.9,0,0-1.1,5.3-1.5,7.1-.5,1.8-1,2.4,0,2.3h1.1c0-.1.8,0,1.3-.5.5-.5,3.5-7.2,3.5-7.2,0,0-2.8,6.9-2.1,6.9s3-1,5.1-5.2c2.1-4.2,4.4-8.7,4.4-8.7,0,0,19.1-11.1,21.4-14,2.3-2.9,4.3-4.3,4-6.3-.2-2-2.6-5.5-3.9-8.9-6.9-19.1-12.8-20.7-15.2-24.1-2.4-3.4-11.7,4-6.9,12.7h0Z"/>
      <path class="st30" d="M1070.6-7.2c-1.3.8-5.2,4.7-3,11.1,1.7,4.9,5,11.3,5,11.3,0,0,4,4.4,9.6,0,5.6-4.4,3.3-10.5,3.3-10.5,0,0-4.9-17.8-14.8-11.9h0Z"/>
      <path class="st26" d="M1081,9.4c-.5,0-.8-.2-.8-.2l-3.5-5.3s.2-2.7,1.5-4.7c1.3-2,2.8-2.1,2.8-2.1l2.6,6.3s.2,2.6-.6,4.6c-.5,1.2-1.3,1.4-2,1.4h0Z"/>
      <path class="st26" d="M1081.1,8l-2.9-4.4c.1-.8.4-2.4,1.2-3.6.3-.5.6-.8.9-1l2,4.7c0,.6,0,2.4-.5,3.8-.2.4-.4.5-.6.5h0Z"/>
      <path class="st3" d="M1081.9,7.6c.6-1.5.5-3.4.5-3.9l-2.1-5.1-.2.2c-.4.3-.7.7-1,1.1-.8,1.2-1.1,2.8-1.2,3.8l3,4.6h.2c.3,0,.6,0,.8-.6h0ZM1079.5.2c.2-.3.4-.6.6-.8l1.8,4.4c0,.6,0,2.3-.5,3.7-.1.3-.2.3-.3.3l-2.8-4.2c0-.7.4-2.2,1.2-3.4h0Z"/>
      <path class="st4" d="M1027.3-11.7l8.6,5v2.4l-8.6-5v-2.4Z"/>
      <path class="st26" d="M1052.4-6.4s1.3-1.5,2.7-.7c1.4.7,5.2,3.1,5.8,4,.6.9-.4,3.1-.4,3.1,0,0,.4,2.8-2.6,4.4-3,1.5-5.6,1.1-5.6,1.1,0,0-2.7-2.5-2.1-6,.6-3.5,2.1-5.9,2.1-5.9h0Z"/>
      <path class="st31" d="M1051-6.5s4.2.1,6.6,1.9c2.4,1.7,4.5,5.6,4.5,5.6l-.9,1.9s-2.8-4.8-4.8-5.9-5.9-1.9-5.9-1.9l.5-1.4h0Z"/>
      <path class="st31" d="M1053.4,3.2c-1.1-.3-1.8-2.3-1.3-3.9.5-1.7,2.9-2.3,4.1-1,1.2,1.3.4,5.9-2.8,5Z"/>
      <path class="st4" d="M1041.4-4.1c-.2.5-.7.8-1.1.6-.4-.2-.5-.7-.3-1.2.2-.5.7-.8,1.1-.6.4.2.5.7.3,1.2Z"/>
      <path class="st4" d="M1038.5,4c-.2.5-.7.8-1.1.6-.4-.2-.6-.7-.3-1.2.2-.5.7-.8,1.1-.6.4.2.5.7.3,1.2Z"/>
      <path class="st4" d="M1037.4,11.7c0,.5-.5.9-.9.9-.4,0-.7-.5-.6-1.1,0-.5.5-.9.9-.9.4,0,.7.5.6,1.1Z"/>
      <path class="st4" d="M1036.9,19.9c0,.5-.5.9-.9.9-.4,0-.7-.5-.6-1.1,0-.5.5-.9.9-.9.4,0,.7.5.6,1.1Z"/>
      <path class="st4" d="M1036.5,28.3c0,.5-.5.9-.9.8-.4,0-.7-.5-.6-1.1,0-.5.5-.9.9-.9.4,0,.7.5.6,1.1Z"/>
      <g class="st16">
        <path class="st6" d="M1166.4,237.8c-13.7,7.2-35,5.8-47.7-3.1-12.7-8.9-12-22,1.7-29.3,13.7-7.2,35-5.8,47.7,3.1,12.7,8.9,11.9,22-1.7,29.3Z"/>
      </g>
      <path class="st21" d="M1127.2,92.4s-.2,9.7-1.1,12.9c-.9,3.3-3.3,7-3.3,7l-2.7,3.3s-1.4,3-1.5,4.3c-.1,1.2.6.7,1.7,0,1.1-.7,1.4-3.1,1.4-3.1h1.3c0,0-1.4,4.1-1.4,4.1,0,0-1.3,3.7-1.3,3.8s1,2.9,1,2.9c0,0,1.3,1.1,1.5,1.2.2.2.8.1.8-.6,0-.7-1.1-1.6-1.1-1.6v-1.8l1.2-1.9v3.8c-.1,0,1.7,2.1,2.3,2.2.6.2,1-.4,1.8-.2.8.2,1.1.3,1.1-.4,0-.7-.8-1.1-.8-1.1,0,0,1.8.6,1.8.5,0-.1.4-.5.2-.9-.1-.2-.4-.4-.7-.6-.3-.3-.7-.5-.6-.6,0-.1,0-1.7,0-1.8,0-.1.6-.7.6-.7l-.3,1.9s.3.9.4.9c.1,0,1,1.5,1.3,1.9.3.3.6.7.8,0,.2-.7-.6-2-.6-2.1,0,0-.2-2.7-.2-2.8,0,0,.8-1.5,1.4-3.7s-.7-7.5-.8-7.7c0-.1.9-5.3,2.1-7.5,1.2-2.3,3.6-8.3,3.4-12.3-.2-4-9-5.1-10,.6h0Z"/>
      <path class="st28" d="M1132.2,197.6s-9.5,8.4-12.5,9.6c-3,1.2-4.6,5.2-4.1,7.6.5,2.4,3.5,4,7.5,2.9,4-1.1,8.6-3.3,9.9-5.1,1.3-1.8,6.7-3.4,8.6-4.6s1.7-3.4,1.6-6.5c-.2-3.1-1.6-4.4-1.6-4.4l-9.3.4h0Z"/>
      <path class="st28" d="M1152.3,221.6s-3.9,9.5-5,10.6c-1.2,1.1-3.9,8.3-2.3,9.3,1.6,1,9.1,3.2,12.3-1.3,3.3-4.5,3-9.8,3-9.8,0,0,1.6-6.5,1.6-7,0-.5-1.6-4.6-1.6-4.6l-8,2.8h0Z"/>
      <path class="st7" d="M1132.1,195.9s-9.5,8.4-12.5,9.6c-3,1.2-4.5,5.2-4.1,7.6.4,2.4,3.5,4,7.5,2.9,4-1.1,8.6-3.3,9.9-5.1,1.3-1.8,6.7-3.4,8.6-4.6,1.8-1.1,1.7-3.4,1.6-6.5-.2-3.1-1.6-4.4-1.6-4.4l-9.3.4h0Z"/>
      <path class="st7" d="M1152.2,219.8s-3.9,9.5-5,10.6c-1.2,1.1-3.9,8.3-2.3,9.3,1.6,1,9.1,3.2,12.3-1.3,3.3-4.5,3-9.8,3-9.8,0,0,1.6-6.5,1.6-7,0-.5-1.6-4.6-1.6-4.6l-8,2.8h0Z"/>
      <path class="st2" d="M1133.1,104.2s-3.1,1.6-5.2,6.5c-2.1,4.9-3,21.9-3.2,26.6-.1,4.6,5.2,25.1,4.4,29.8-.8,4.7,1.5,30.2,1.5,30.2,0,0,4.7,4.9,9.4,2.8,4.7-2.1,3-2.9,4.4-8.5,1.5-5.6,3.6-17.9,3.2-20.5-.5-2.6-2.5-9.8-2.5-9.8,0,0-.3-10.1,2.8-18.5,3.1-8.4-3.7-30.3-4.5-30.8-.8-.5-10.4-7.7-10.4-7.7h0Z"/>
      <path class="st10" d="M1146.5,112.1l-6.7,2.4s7.7,31.4,8.8,41.2c1.1,9.8-.4,17.3.8,22.4s5.3,16.3,2,25.8c-3.3,9.5-1.4,19.3.1,19.4,1.5,0,11.5-.7,12.1-2.9.6-2.2,7.8-27.4,6.2-33.2-1.7-5.8-4.3-10.6-4.7-14.4-.4-3.8,7.4-22,6.9-32-.5-10-.3-18-3.5-23.3-3.2-5.3-7-6.5-7-6.5l-15.1,1.1h0Z"/>
      <path class="st39" d="M1139.3,53s-2.7,6-4,10.2c-1.4,4.2-7,17.6-7.6,21.8-.6,4.2,6.4,18,6.4,18,0,0-1.9,5.2,4.8,8.6,3.5,1.8,16.6,1.5,19.8-.6,3.2-2.1,2.7-3.7,2.7-3.7,0,0,5.3-14.1,8.1-22.2,2.9-8.1,9.6-9.9,2.7-19.6-4-5.7-10.9-12.1-17.7-11.9-6.8.2-13.3-1.6-15.1-.7h0Z"/>
      <path class="st37" d="M1134.1,103.1l-.9,2.4s-2.4,10.1,10.5,10.2c12.9,0,17.9-4.6,17.9-4.6v-4.5s-1,4.5-16.1,4.9c-5.7.1-7.9-1.4-10-3s-1.4-5.4-1.4-5.4h0Z"/>
      <path class="st21" d="M1173.9,104.7s.7,24.1,1.2,25.6c.6,1.5-.8,6.7-.8,6.7l-4.4,3.6-1.9,6s-1,4.5.2,4.4c1.2-.2,1.9-4.5,1.9-4.5l2.1-1.4,1.6,4.1-1.2,3.1s-1.1,1-1.3,2.2c-.2,1.2.2.6.8.5.6,0,2-1.3,2-1.3l1.2-2.2,1.1-2.2v2.5c-.1,0-.7,1.7-.7,1.7,0,0-1.1.8-1.1,1.5,0,.7,2.1,0,2.1,0l2-2.7v-.8s1.5-.6,1.8-1.4c.3-.8,0-1.9.2-2,.1,0,1.3-.8,1.5-1.6.2-.8-1.7-7.9-1.7-8.7s1.3-1.6,1.2-2.4c-.1-.8.5-5.7,1-8.7.5-3,2-13.8,1.2-17.4-.7-3.6-1.6-6-1.6-7.1-3-40-11.3-16-13.6-15.2-1.4.5,5.1,17.5,5.1,17.5h0Z"/>
      <path class="st25" d="M1143.5,35.4c.2,5.2,7,11.5,8.1,15.6.6,2.1,7.4-4.9,7.4-4.9l2.2.9s6-5,6.4-11.8c.3-4.5-3.9-8.7-6.4-9.6-14.4-4.9-17.8,5.5-17.7,9.7Z"/>
      <path class="st25" d="M1159.1,46.2l-1.8,2.5s-.2,3,0,3.7c.2.8.3,1.7.9,2,.6.3,4.4,3.8,4.4,3.8,0,0,.1-4.2-.7-6.8-.7-2.3-3-5.3-3-5.3h0Z"/>
      <path class="st18" d="M1135.1,111.3s1.8,1.6,2.2,1.4c.3-.1.2-.6.2-.6l-2.4-1.2v.4Z"/>
      <path class="st22" d="M1130.5,75.9s1.4,2.3,2.5,3c1.1.7,3.3,1.4,3.3,1.4l-1.2,3.4s-3,.4-4.6-1c-1.5-1.4-2.2-2.5-2.2-2.5,0,0,.7-3.4,2.2-4.3h0Z"/>
      <path class="st30" d="M1139.8,56.2l1.6-4s-5.5-1.8-10,1.5c-4.5,3.3-1.2,12.8-1.2,12.8,0,0-3.4,15.6,1.4,17,4.8,1.4,4.7,0,5.1.3,8.7,5.8,4.7-22.1,3.1-27.7Z"/>
      <path class="st32" d="M1136.6,51.9s-4.1,2.4-3.5,2.7c.6.3,9,.6,10.1.2,1.2-.5,1.5-2.9,1.5-2.9,0,0-5.5-1.6-8.1,0h0Z"/>
      <path class="st23" d="M1132,101v7.1s3.4,9.1,17.2,9.5c13.7.4,17.3-7.9,16.7-9-.6-1,0-4.1,0-4.1,0,0-4.3,6.9-9.3,8.1-7.6,1.9-17.3-2.1-21.1-4.9-3.2-2.5-3.5-6.7-3.5-6.7h0Z"/>
      <path class="st23" d="M1148.1,53.9s-.9-1.4-4.3,3.5c-.7,1,.5,2.4.3,3.6-.7,4.6,0,9.6,0,9.6,0,0,18.8-7.3,15.5-12.4-.8-1.3-8.4-4.9-11.5-4.3h0Z"/>
      <path class="st32" d="M1144,70.6s7.6-4.3,8.7-4.8c1-.5,2.8-1.1,2.8-1.1v4.5l-11.5,1.5Z"/>
      <path class="st32" d="M1144,59.6v10.9l-3.3-9.6,3.3-1.4Z"/>
      <path class="st32" d="M1144,61l-4.2-1.2s3.2-7.1,9.1-9.2c6-2.1,2.7.4,2.7.4,0,0-5.8,6-7.2,7.9-.4.6-.4,2-.4,2Z"/>
      <path class="st32" d="M1153.2,65.5l2.3-3.7s3.4-6.3,2.9-8.1l-.5-1.8s.8-1.3,3.9,5.1c.7,1.4.4,6.2-.7,8.8-1.1,2.6-2.5,3.5-2.5,3.5l-5.2-3.8h0Z"/>
      <path class="st32" d="M1160.4,66.3s7,7,9.3,5.7c2.3-1.2,3-1.5,3-2.2s-9.8-8.3-10.8-7.7c-1,.6-1.5,4.1-1.5,4.1h0Z"/>
      <path class="st36" d="M1167.5,104.5c-.9-.5-5.7,4.2-5.7,4.2l-3.6-2.1s4.8-4.7,5.7-4.2l3.6,2.1Z"/>
      <path class="st45" d="M1161.8,108.7c-2.7,1.3-1.1,12.3,1.3,16.8.3.5.6.8.8,1l-3.6-2.1c-.3-.2-.6-.5-.8-1-2.4-4.5-4-15.5-1.3-16.8l3.6,2.1Z"/>
      <path class="st45" d="M1167.5,104.5c.9.5.8,10.3,1,12.8.2,2.3-2.3,10.5-4.5,9.2-.3-.2-.6-.5-.8-1-2.4-4.5-4-15.5-1.3-16.8,0,0,4.8-4.7,5.7-4.2Z"/>
      <path class="st45" d="M1150.8,113.7l.5,11.1-5.6-3.2-.5-11.1,5.6,3.2Z"/>
      <path class="st45" d="M1153.1,111.6v12.1l-1.8,1-.5-11.1,2.3-2Z"/>
      <path class="st44" d="M1147.8,116.7s-.8.7-.6,1.6c.3.9,1,1.2,1.5.7.4-.5.5-2.3-.9-2.3h0Z"/>
      <path class="st36" d="M1153.1,111.6l-2.3,2v6l-5.3-2.9-1.7-6.3,3.7-2,5.6,3.2Z"/>
      <path class="st23" d="M1135.9,104.2c-.5-.7-1.3-.3-1.5-.2-.3,0-.5,6.5-.5,6.5,0,0-.3,3,.1,3.5l-3-4c-.4-.5,0-3.5,0-3.5,0,0,.2-6.4.5-6.5.3,0,1-.4,1.5.2l3,4Z"/>
      <path class="st13" d="M1132.9,100.1c-.5-.7-1.3-.3-1.5-.2-.2,0-.4,3.3-.5,5.2.2.7.2,1.3.2,2,0,.6.2,1.1.7,1.5.4.3,1,.6,1.5.3.3-.2.5-.7.6-1.1,0,0,0,0,0-.1,0-1.8.2-3.8.4-3.8.2,0,1.1-.4,1.5.2l-3-4h0Z"/>
      <path class="st45" d="M1135.9,104.2c0,0,.1.2.2.3.5,1,.1,7-.4,8.5-.5,1.6-1,1-1.6,1,0,0,0,0-.1,0-.4-.5-.1-3.5-.1-3.5,0,0,.2-6.4.5-6.5.2,0,1.1-.4,1.5.2Z"/>
      <path class="st12" d="M1155.2,95.1c.2-4.2,1.4-8.3,1.4-12.5,0,0,.2,0,.2-.1,0,4.2-1.2,8.3-1.4,12.5,0,0-.2,0-.3.2h0Z"/>
      <path class="st1" d="M1155.2,95.1c-.7.3-1.4.7-2.1,1-2-1.3-4.1-2.8-6.2-3.8-.4-.9-.8-1.8-1.2-2.7.1-5.3-.7-5.1,1.1-10.4,4.2,3.8,5.2,3,9.9,5.7,0,4.2-1.1,6-1.3,10.2h0Z"/>
      <path class="st43" d="M1149.7,79.9c.7.4,1.5.7,2.3,1,.1,4.7-.4,9.4-.7,14.1-.7-.4-1.3-.8-2-1.3.3-4.5-.5-9.5.4-13.8h0Z"/>
      <path class="st32" d="M1146.2,77.2c4.3,3.9,6.2,4,10.9,6.8,0,1.7,0,1.2-.4,2.9-.6.3-1.2.6-1.8.8-2.7-1.7-5.5-2.9-8.4-4.4-.6-1-1-1.9-1.3-3.1.5-1.7.5-1.3.9-3Z"/>
      <path class="st12" d="M1139.1,73.7c0,0-.1,0-.2,0-.2,3.8-1.2,7.5-1.4,11.3,0,0,.2,0,.3-.2.2-3.7,1.2-7.4,1.4-11.1,0,0,0,0,0,0h0Z"/>
      <path class="st1" d="M1137.6,84.9c-.7.3-1.4.7-2.1,1-2.1-1.3-4.1-2.7-6.2-3.8-.4-.9-.8-1.8-1.3-2.7.2-5.3-.7-5.4,1.1-10.7,4.2,3.8,5.2,3.2,9.9,5.9,0,4.2-1.2,6.1-1.3,10.3h0Z"/>
      <path class="st43" d="M1132.1,69.7c.7.4,1.5.7,2.3,1,.1,4.7-.4,9.4-.7,14.1-.7-.4-1.3-.8-2-1.3.3-4.5-.5-9.5.4-13.8h0Z"/>
      <path class="st32" d="M1129,66.9c4.3,3.9,5.6,3.4,10.2,6.3,0,1.7.1,1.9-.2,3.5-.6.3-1.2.6-1.8.8-2.7-1.7-5.5-2.9-8.4-4.4-.6-1-1-1.9-1.3-3.1.5-1.7,1-1.4,1.4-3.1h0Z"/>
      <path class="st1" d="M1138.4,109.4s0-23.5,1-28.5c1.1-5,4.6-10.3,4.6-10.3l3.2-.4s-4.6,8.7-5.8,16.2c-1.2,7.4-.4,24.2-.4,24.2l-2.7-1.2Z"/>
      <path class="st4" d="M1137.3,108.4s-.2,6,0,6.4,3,1.3,3,1.3v-.3l-2.6-1.2.2-5.4,3.1,1.5v-.7s-3.7-1.5-3.7-1.5Z"/>
      <path class="st4" d="M1138.4,112.2v.9c-.1,0-2.4-1.5-2.4-1.5v-1l2.4,1.6Z"/>
      <path class="st8" d="M1133.6,64l3.5-6.2,1,.4-3.5,6.2-1-.4Z"/>
      <path class="st41" d="M1137,57.8l-4.6-2.9,1,.4,4.6,2.9-1-.4Z"/>
      <path class="st13" d="M1133.6,64l-4.6-2.9,3.5-6.2,4.6,2.9-3.5,6.2Z"/>
      <path class="st23" d="M1130.4,61l-.4-.2,2.7-4.7.4.2-2.7,4.7Z"/>
      <path class="st23" d="M1131.3,61.5l-.4-.2,2.8-4.7.4.2-2.8,4.8Z"/>
      <path class="st23" d="M1132.1,62l-.4-.2,2.7-4.7.4.2-2.7,4.7Z"/>
      <path class="st23" d="M1132.9,62.5l-.4-.2,2.7-4.8.4.2-2.7,4.7Z"/>
      <path class="st23" d="M1130.4,63.1c0,0,0-.2.2-.3,0,0,.2-.1.4-.1.3,0,.8.3,1,.5,0,0,0-.1,0-.2h.2s.2,0,.2,0c0,.2,0,.4-.3.5,0,.3,0,.5,0,.6h-.4c0-.2,0-.3,0-.4-.3.1-1.1,0-1.3-.4,0,0,0-.2,0-.3h0ZM1131.7,63.5c-.2-.1-.5-.3-.7-.3,0,0-.1,0-.2,0,0,0,0,0,.1.1.2.1.6.2.7.1h0Z"/>
      <path class="st23" d="M1130.2,64.3c0,0,0-.2.1-.3.1,0,.2-.1.4-.1.3,0,.8.2,1.1.5,0,0,0-.1,0-.2h.2s.2,0,.2,0c0,.2,0,.4-.3.5,0,.3,0,.5,0,.6h-.4c0-.2,0-.3,0-.3-.3.1-1.1,0-1.3-.4,0,0,0-.2,0-.3h0ZM1131.4,64.6c-.1-.1-.5-.3-.7-.3,0,0-.1,0-.2,0,0,0,0,0,.2.1.2.1.6.2.7.1h0Z"/>
      <path class="st23" d="M1129.9,65.5c0,0,0-.2.2-.3,0,0,.2-.1.4-.1.3,0,.8.2,1.1.5,0,0,0-.1,0-.2h.2s.2,0,.2,0c0,.2,0,.4-.2.5,0,.3,0,.5,0,.6h-.4c0-.2,0-.3,0-.3-.3.1-1.1,0-1.3-.4,0,0,0-.2,0-.3h0ZM1131.2,65.8c-.2-.1-.5-.3-.7-.3,0,0-.1,0-.2,0,0,0,0,0,.1.1.2.1.6.2.7.1h0Z"/>
      <path class="st23" d="M1129.6,66.7c0,0,0-.2.2-.3,0,0,.2-.2.4-.1.4,0,.8.2,1.1.5,0,0,0-.1,0-.2h.4c0,.3,0,.4-.2.6,0,.3,0,.5,0,.6h-.4c0-.2,0-.3,0-.3-.3.1-1.1,0-1.4-.4,0,0,0-.2,0-.3h0ZM1130.9,67c-.2-.1-.5-.3-.7-.3,0,0-.1,0-.2,0,0,0,0,0,.1.1.2.1.6.2.7.1h0Z"/>
      <path class="st23" d="M1129.4,67.8c0,0,0-.2.2-.3,0,0,.2-.2.4-.1.4,0,.8.2,1.1.5,0,0,0-.1,0-.2h.4c0,.3,0,.4-.2.6,0,.3,0,.5,0,.6h-.4c0-.2,0-.3,0-.3-.3.1-1.1,0-1.3-.4,0,0,0-.2,0-.3h0ZM1130.7,68.1c-.2-.1-.5-.3-.7-.3,0,0-.1,0-.2,0,0,0,0,0,.1.1.2.1.6.2.7.1h0Z"/>
      <path class="st23" d="M1129.1,69c0,0,0-.2.2-.3,0,0,.2-.2.4-.1.3,0,.8.2,1.1.5,0,0,0-.1,0-.2h.4c0,.3,0,.4-.2.6,0,.3,0,.5,0,.6h-.4c0-.2,0-.3,0-.3-.3.1-1.1,0-1.3-.4,0,0,0-.2,0-.3h0ZM1130.4,69.3c-.2-.1-.5-.3-.7-.3,0,0-.1,0-.2,0,0,0,0,0,.1.1.2.1.6.2.7.1h0Z"/>
      <path class="st23" d="M1128.9,70.2c0,0,0-.2.2-.3,0,0,.2-.2.4-.1.4,0,.8.2,1.1.5,0,0,0-.1,0-.2h.4c0,.3,0,.5-.2.6,0,.3,0,.5,0,.6h-.4c0-.2,0-.3,0-.3-.3.1-1.1,0-1.3-.4,0,0,0-.2,0-.3h0ZM1130.2,70.5c-.2-.1-.5-.3-.7-.3,0,0-.1,0-.2,0,0,0,0,0,.1.1.2.1.6.2.7.1h0Z"/>
      <path class="st23" d="M1128.6,71.3c0,0,0-.2.2-.3,0,0,.2-.2.4-.2.3,0,.8.2,1.1.5,0,0,0-.1,0-.2h.4c0,.3,0,.4-.2.6,0,.3,0,.5,0,.6h-.4c0-.2,0-.3,0-.3-.3.1-1.1,0-1.3-.4,0,0,0-.2,0-.3h0ZM1129.9,71.6c-.2-.1-.5-.3-.7-.3,0,0-.1,0-.2,0,0,0,0,0,.2.1.2.1.6.2.7.1h0Z"/>
      <path class="st23" d="M1128.4,72.5c0,0,0-.2.1-.3,0-.1.2-.2.4-.2.3,0,.8.2,1.1.5,0,0,0-.1,0-.2h.4c0,.3,0,.4-.2.6,0,.3,0,.5,0,.6h-.4c0-.2,0-.3,0-.3-.3.1-1.1,0-1.4-.4,0,0,0-.2,0-.3h0ZM1129.7,72.8c-.2-.1-.5-.3-.7-.3,0,0-.1,0-.2,0,0,0,0,0,.2.1.2.1.6.2.7.1h0Z"/>
      <path class="st23" d="M1128.1,73.7c0,0,0-.2.1-.3,0-.1.2-.2.4-.2.4,0,.8.2,1.1.4,0,0,0-.1,0-.2h.4c0,.3,0,.4-.2.6,0,.3,0,.5,0,.6h-.4c0-.2,0-.3,0-.3-.3.1-1.1,0-1.4-.4,0,0,0-.2,0-.3h0ZM1129.4,74c-.2-.1-.5-.3-.7-.3,0,0-.1,0-.2,0,0,0,0,0,.1.1.2.1.6.2.7.1h0Z"/>
      <path class="st23" d="M1127.9,74.9c0,0,0-.2.2-.3,0-.1.2-.2.4-.2.3,0,.8.2,1.1.4,0,0,0-.1,0-.2h.4c0,.3,0,.4-.2.6,0,.3,0,.5,0,.6h-.4c0-.2,0-.3,0-.3-.3.1-1.1,0-1.4-.4,0,0,0-.2,0-.3h0ZM1129.2,75.2c-.2-.1-.5-.3-.7-.3,0,0-.1,0-.2,0,0,0,0,0,.2.1.2.1.6.2.7.1h0Z"/>
      <path class="st23" d="M1127.7,76.1c0,0,0-.2.1-.3.1-.1.2-.2.4-.2.3,0,.8.2,1.1.4,0,0,0-.1,0-.2h.4c0,.3,0,.4-.2.6,0,.3,0,.5,0,.6h-.4c0-.2,0-.3,0-.3-.3.1-1.1,0-1.3-.4,0,0,0-.2,0-.3h0ZM1129,76.3c-.2-.1-.5-.3-.7-.3,0,0-.1,0-.2,0,0,0,0,0,.2.1.3.1.6.1.7.1h0Z"/>
      <path class="st23" d="M1127.5,77.2c0,0,0-.2.1-.3,0-.1.2-.2.4-.2.3,0,.8.2,1.1.4,0,0,0-.1,0-.2h.4c0,.3,0,.4-.2.6,0,.3,0,.5,0,.6h-.4c0-.2,0-.3,0-.3-.3.1-1.1,0-1.4-.3,0,0,0-.2,0-.3h0ZM1128.8,77.5c-.2-.1-.5-.3-.7-.3s-.1,0-.2,0c0,0,0,0,.2.1.2.1.6.1.7,0h0Z"/>
      <path class="st23" d="M1127.3,78.4c0,0,0-.2.1-.3,0-.1.2-.2.4-.2.3,0,.8.2,1.1.4,0,0,0-.1,0-.2h.4c0,.3,0,.4-.2.6,0,.3,0,.5,0,.6h-.4c0-.2,0-.3,0-.3-.3.1-1.1,0-1.4-.3,0,0,0-.2,0-.3h0ZM1128.6,78.7c-.2-.1-.5-.3-.7-.3,0,0-.1,0-.2,0,0,0,0,0,.1.1.2.1.6.1.7,0h0Z"/>
      <path class="st23" d="M1127.1,79.6c0,0,0-.2.1-.3,0-.1.2-.2.4-.2.3,0,.8.2,1.1.4,0,0,0-.1,0-.2h.4c0,.2,0,.4-.2.6,0,.3,0,.5,0,.6h-.4c0-.2,0-.3,0-.3-.3.1-1.1,0-1.4-.3,0,0,0-.2,0-.3h0ZM1128.4,79.9c-.2-.1-.5-.3-.7-.3s-.1,0-.2,0c0,0,0,0,.2,0,.2.1.6.1.7,0h0Z"/>
      <path class="st23" d="M1126.9,80.8c0,0,0-.2.1-.3,0-.1.2-.2.4-.2.3,0,.8.2,1.1.4,0,0,0-.1,0-.2h.4c0,.3,0,.4-.2.6,0,.3,0,.5,0,.6h-.4c0-.2,0-.3,0-.3-.3.1-1.1,0-1.4-.3,0,0,0-.2,0-.3h0ZM1128.2,81c-.2-.1-.5-.3-.7-.3s-.1,0-.2,0c0,0,0,0,.2,0,.2.1.6.1.7,0h0Z"/>
      <path class="st23" d="M1126.7,82c0,0,0-.2.1-.3,0-.1.2-.2.4-.2.3,0,.8.2,1.1.4,0,0,0-.1,0-.2h.4c0,.3,0,.4-.2.6.1.3,0,.5,0,.6h-.4c0-.2,0-.3,0-.3-.3.1-1.1,0-1.4-.3,0,0,0-.2,0-.3h0ZM1128,82.2c-.2-.1-.5-.2-.7-.2s-.1,0-.2,0c0,0,0,0,.2,0,.2.1.6.1.7,0h0Z"/>
      <path class="st23" d="M1126.5,83.2c0,0,0-.2.1-.3,0-.1.2-.2.4-.2.3,0,.8.2,1.1.4,0,0,0-.1,0-.2h.4c0,.2,0,.4-.2.6,0,.3,0,.5,0,.6h-.4c0-.2,0-.3,0-.3-.3.1-1.1,0-1.4-.3,0,0,0-.2,0-.3h0ZM1127.8,83.4c-.2-.1-.5-.2-.7-.2s-.1,0-.2,0c0,0,0,0,.2,0,.2.1.6.1.7,0h0Z"/>
      <path class="st23" d="M1126.4,84.4c0,0,0-.2.1-.3,0-.1.2-.2.4-.2.3,0,.8.2,1.1.4,0,0,0-.1,0-.2h.4c0,.2,0,.4-.2.6,0,.3,0,.5,0,.6h-.4c0-.2,0-.3,0-.3-.3.1-1.1,0-1.4-.3,0,0,0-.2,0-.3h0ZM1127.7,84.6c-.2-.1-.5-.2-.7-.2,0,0-.1,0-.2,0,0,0,0,0,.1,0,.2,0,.6.1.7,0h0Z"/>
      <path class="st23" d="M1126.2,85.6c0,0,0-.2.1-.3,0-.1.2-.2.4-.2.3,0,.8.1,1.1.4,0,0,0-.1,0-.2h.4c0,.2,0,.4-.2.6,0,.3,0,.5,0,.6h-.4c0-.2,0-.3,0-.3-.3.2-1.1,0-1.4-.2,0,0-.1-.2,0-.3h0ZM1127.5,85.8c-.2-.1-.5-.2-.8-.2,0,0-.1,0-.2,0,0,0,0,0,.2,0,.2,0,.6,0,.7,0h0Z"/>
      <path class="st23" d="M1126.1,86.8c0,0,0-.2.1-.3,0-.1.2-.2.4-.2.3,0,.8.1,1.1.3,0,0,0-.1,0-.2h.4c0,.2,0,.4-.2.6.1.3,0,.5,0,.6h-.4c0-.1,0-.2,0-.3-.3.2-1.1,0-1.4-.2,0,0,0-.2,0-.3h0ZM1127.4,87c-.2-.1-.5-.2-.7-.2,0,0-.1,0-.2,0,0,0,0,0,.2,0,.3,0,.6,0,.7,0h0s0,0,0,0Z"/>
      <path class="st23" d="M1126,88c0,0,0-.2.1-.3,0-.1.2-.2.4-.2.3,0,.9.1,1.1.3,0,0,0-.1,0-.2h.2s.2,0,.2,0c0,.2,0,.4-.2.5.1.3,0,.5,0,.6h-.4c0-.1,0-.2,0-.3-.3.2-1.1.1-1.4-.2,0,0-.1-.2-.1-.3ZM1127.3,88.1c-.2-.1-.5-.2-.8-.2,0,0-.1,0-.2,0,0,0,0,0,.2,0,.3,0,.6,0,.7,0h0s0,0,0,0Z"/>
      <path class="st23" d="M1125.9,89.2c0,0,0-.2,0-.3,0-.1.2-.2.4-.2.3,0,.9,0,1.1.3,0,0,0-.1,0-.2h.2s.2,0,.2,0c0,.2,0,.4-.2.5.1.2.1.5.1.6h-.4c0-.1,0-.2,0-.3-.3.2-1.1.2-1.4-.2,0,0-.1-.2,0-.3h0ZM1127.2,89.3c-.2-.1-.5-.2-.8-.2,0,0-.1,0-.2,0,0,0,0,0,.2,0,.3,0,.6,0,.7,0h0s0,0,0,0Z"/>
      <path class="st23" d="M1125.9,90.5c0,0,0-.2,0-.3,0-.1.2-.2.4-.2.3,0,.9,0,1.1.3,0,0,0-.1,0-.2h.2s.2,0,.2,0c0,.2,0,.4-.2.6.1.2.1.5.1.6h-.4c0-.1,0-.2,0-.2-.3.2-1.1.2-1.4-.1,0,0-.1-.2-.1-.3h0ZM1127.2,90.5c-.2,0-.5-.2-.8-.2,0,0-.1,0-.2,0,0,0,0,0,.2,0,.3,0,.6,0,.7,0h0s0,0,0,0Z"/>
      <path class="st23" d="M1125.8,91.7c0,0,0-.2,0-.3,0-.1.2-.2.4-.2.4,0,.9,0,1.1.2,0,0,0-.1,0-.2h.2s.2,0,.2,0c0,.2,0,.4-.1.6.1.2.1.5.1.6h-.4c0,0,0-.2,0-.2-.3.2-1.1.2-1.4,0,0,0-.1-.2-.1-.3h0ZM1127.2,91.7c-.2,0-.5-.2-.8-.1,0,0-.1,0-.2.1,0,0,0,0,.2,0,.3,0,.6,0,.7,0h0s0,0,0,0Z"/>
      <path class="st23" d="M1125.9,92.9c0,0,0-.2,0-.3,0-.1.2-.2.4-.3.3,0,.9,0,1.1.2,0,0,0-.1,0-.2h.2s.2,0,.2,0c0,.2,0,.4,0,.6.1.2.2.5.2.6h-.4c0,0,0-.2-.1-.2-.3.2-1.1.3-1.4,0,0,0-.1-.2-.1-.3h0ZM1127.2,92.9c-.2,0-.5-.1-.8,0,0,0-.1,0-.1.1,0,0,0,0,.2,0,.3,0,.6,0,.7,0h0Z"/>
      <path class="st23" d="M1126,94.2c0,0,0-.2,0-.3,0-.1.2-.2.4-.3.3,0,.9,0,1.2.1v-.2h.2c0,0,.2,0,.2,0,0,.2,0,.3,0,.6.2.2.2.4.2.5h-.4s0-.1-.1-.2c-.3.2-1.1.4-1.4,0,0,0-.2-.2-.2-.3h0ZM1127.3,94.1c-.2,0-.5-.1-.8,0,0,0-.1,0-.1.1,0,0,0,0,.2,0,.3,0,.6,0,.7-.1h0s0,0,0,0Z"/>
      <path class="st23" d="M1126.2,95.4c0,0,0-.2,0-.3,0-.1.2-.2.3-.3.3-.1.9,0,1.2,0,0,0,0-.1,0-.2h.2c0,0,.2,0,.2,0,0,.2,0,.3,0,.6.2.2.2.4.2.5h-.4s0,0-.2-.1c-.2.2-1,.4-1.4.2,0,0-.2-.2-.2-.3ZM1127.5,95.2c-.2,0-.5,0-.8,0,0,0-.1,0-.1.1,0,0,0,0,.2,0,.3,0,.6,0,.7-.2h0s0,0,0,0Z"/>
      <path class="st23" d="M1126.5,96.7c0,0,0-.2,0-.3,0-.1.2-.3.3-.3.3-.1.8-.2,1.2,0,0,0,0-.1,0-.2h.2c0,0,.2,0,.2,0,0,.2,0,.3,0,.5.2.2.3.4.3.5h-.4s0,0-.2,0c-.2.3-1,.6-1.4.3,0,0-.2-.2-.2-.3h0ZM1127.8,96.4c-.2,0-.5,0-.8,0,0,0,0,0-.1.2,0,0,0,0,.2,0,.3,0,.6-.2.7-.2h0Z"/>
      <path class="st23" d="M1126.9,98c0,0,0-.2,0-.3,0-.2.1-.3.3-.4.3-.2.8-.3,1.1-.2,0,0,0-.1,0-.2h.2c0,0,.2-.1.2-.1,0,.2,0,.3,0,.5.2.1.3.3.3.4l-.4.2c0,0,0-.2-.2-.2-.2.3-.9.7-1.3.5-.1,0-.2-.1-.3-.3h0ZM1128.2,97.4c-.2,0-.6,0-.8.2,0,0,0,0,0,.2,0,0,0,0,.2,0,.3,0,.6-.2.7-.3h0s0,0,0,0Z"/>
      <path class="st23" d="M1127.6,99.2c0,0-.1-.2-.1-.3,0-.2,0-.3.2-.4.3-.2.8-.4,1.1-.4,0,0,0-.1-.1-.2h.2c0-.1.2-.2.2-.2,0,.1.2.2.1.5.2,0,.3.2.4.3l-.3.3c0,0-.1-.1-.2,0-.1.3-.7.9-1.1.8-.1,0-.2-.1-.3-.2ZM1128.7,98.4c-.2,0-.5.2-.7.3,0,0,0,.1,0,.2,0,0,0,0,.2,0,.3,0,.5-.3.6-.4h0s0,0,0,0Z"/>
      <path class="st23" d="M1128.6,100.2c0,0-.2-.2-.2-.3,0-.2,0-.3,0-.5.2-.3.7-.6.9-.6,0,0,0,0-.1-.2v-.2c.1,0,.3-.1.3-.1,0,.1.2.2.2.4.2,0,.4.1.4.1l-.2.4c0,0-.2,0-.2,0,0,.3-.4,1.1-.8,1.1-.1,0-.3,0-.4-.1h0ZM1129.5,99.2c-.2,0-.5.3-.6.5,0,0,0,.1,0,.2,0,0,0,0,.2,0,.2-.2.4-.5.4-.6h0Z"/>
      <path class="st23" d="M1130,101c-.1,0-.2,0-.3-.2-.1-.1-.1-.3,0-.5.1-.3.5-.7.7-.9,0,0,0,0-.2-.1v-.2c0,0,.2-.2.2-.2.1,0,.2.1.3.3.2,0,.4,0,.4,0v.4c-.2,0-.2,0-.3,0,0,.3,0,1.1-.4,1.3-.1,0-.3,0-.4,0h0ZM1130.4,99.7c-.1.1-.3.4-.4.7,0,0,0,.1,0,.2,0,0,0,0,.1-.1.2-.2.2-.6.2-.7h0Z"/>
      <path class="st23" d="M1131.5,101.2c-.1,0-.2,0-.4,0-.2,0-.2-.2-.2-.4,0-.3.2-.9.3-1.1,0,0-.1,0-.2,0v-.4c.2,0,.3,0,.4.1.2-.1.3-.2.3-.2v.4c.1,0,0,0,0,.1.2.3.4,1,0,1.4,0,0-.2.2-.4.2h0ZM1131.5,99.9c0,.2-.2.5-.1.8,0,0,0,.1.1.1,0,0,0,0,0-.2,0-.3,0-.6,0-.7h0s0,0,0,0Z"/>
      <path class="st30" d="M1172.7,68.7c-1.4,0-5.3,2.9-6.8,8.8-1.1,4.5,2.7,17.7,2.7,17.7,0,0,.9,5.2,7.2,4.7s8.3-4.8,8.3-4.8c0,0-3.9-27-11.5-26.4h0Z"/>
      <path class="st26" d="M1173.9,88.5c-.3-.2-1.2-6.1-1.2-6.1,0,0,1.4-2,3.4-2.8,1.9-.9,3.2-.2,3.2-.2l.5,6.2s-.3,3.2-1.8,4.3c-.9.7-3.5-1-4-1.4h0Z"/>
      <path class="st26" d="M1175.1,87.4l-.8-4.1c.5-.5.5-1.4,1.7-1.9.5-.2,1.6-.4,1.9-.5l.8,4.5c0,.8,0,2.6-1.6,3.2-.4.1-1.8-1.1-2-1.2h0s0,0,0,0Z"/>
      <path class="st3" d="M1177.2,88.8c1.8-.6,1.8-2.6,1.8-3.5l-.9-4.7h-.2c-.3,0-1.5.3-2,.5-.9.4-1.2,1-1.5,1.5,0,.2-.2.4-.4.6l.9,4.3h.1c0,0,0,.2.2.2.9.7,1.4,1.1,1.8,1.1s0,0,.1,0h0ZM1174.4,83.3c.1-.2.2-.3.3-.5.3-.5.5-.9,1.3-1.3.4-.2,1.2-.4,1.7-.4l.8,4.3c0,.8,0,2.5-1.5,3-.1,0-.4,0-1.6-1,0,0-.2-.1-.2-.2l-.8-4Z"/>
      <path class="st4" d="M1132.3,66.5l7.7,4.4v2.1l-7.7-4.4v-2.1Z"/>
      <path class="st4" d="M1154.8,71.3s1.2-1.3,2.4-.7c1.2.6,4.7,2.8,5.2,3.6.6.8-.4,2.8-.4,2.8,0,0,.3,2.6-2.3,3.9-2.7,1.4-5,1-5,1,0,0-2.4-2.2-1.8-5.4.5-3.1,1.9-5.3,1.9-5.3h0Z"/>
      <path class="st31" d="M1153.6,71.2s3.8.1,5.9,1.7c2.2,1.6,4,5,4,5l-.8,1.7s-2.5-4.3-4.3-5.3c-1.8-1-5.2-1.7-5.2-1.7l.5-1.3h0Z"/>
      <path class="st31" d="M1155.7,79.9c-1-.3-1.6-2-1.2-3.5.4-1.5,2.6-2,3.7-.9,1,1.1.4,5.3-2.5,4.4Z"/>
      <path class="st38" d="M1145,52s.7,7.2,0,8.8c-.7,1.6,2.6,6,8.6,3.4,1.9-.8,5.9-8.1,4.6-11.5-.7-1.7-.5-3.6-.5-4.3,0-2.2-3.8,2.4-3.8,2.4l-8.8,1.2h0Z"/>
      <path class="st21" d="M1144.4,32.7s-1.4,3.6-1.4,5.6-.8,2.7-1,4.1c-.2,1.4-.4,8.5-.3,10.3.1,1.8,1.7,2,4,2.1,2.3,0,4.1.9,7.4-.9,3.4-1.8,4.1-4.4,4.1-4.4,0,0,.4,2.2,3.7-.6,3.3-2.8,3.8-4.4,3.6-6.3-.1-1.8-4.8-.5-5.6.2-.8.8-1.2,2.7-2.1,3.2-.9.5-2.2,1.7-2.2,1.7,0,0,1.9-5.2.4-7.3-1.4-2.1-3.8-10.5-3.8-10.5,0,0-5.1-1.8-7,2.8h0Z"/>
      <g class="st16">
        <path class="st6" d="M1271.1,182.7c-12.2,7-28.6,12.2-40.8,5.1-12.2-7.1-26.1-21.1-13.9-28.1,12.2-7,31.9-7,44.1,0,12.2,7.1,22.7,15.8,10.6,22.9h0Z"/>
      </g>
      <path class="st36" d="M1224.2,149.2s-2.3,5.1-5.2,6.4c-2.9,1.3-11.4,7.1-10,9.1,1.4,2,5.9,3.9,11.7,0,5.9-3.9,10.4-5.6,13.3-6.7,2.9-1.1,6.2-2.5,5.7-4.6-.4-2.1-2.4-6.7-2.4-6.7l-13.2,2.4Z"/>
      <path class="st13" d="M1224.2,148.1s-2.3,5.1-5.2,6.4c-2.9,1.3-11.4,7.1-10,9.1,1.4,2,5.9,3.9,11.7,0,5.9-3.9,10.4-5.6,13.3-6.7,2.9-1.1,6.2-2.5,5.7-4.6-.4-2.1-2.4-6.7-2.4-6.7l-13.2,2.4Z"/>
      <path class="st17" d="M1221.5,0l-1.1-9.3s-10.5,1.5-11.5,7c-1,5.6-9.2,17.8-9.2,26.1s14,28.3,15.1,28.2c1.1-.2,7.9-7.2,6.8-9.3s-9.2-18.6-8.9-18.9c.3-.3,9.6-18.5,8.9-23.9h0Z"/>
      <path class="st40" d="M1214.3,49.8s-3.3,22.2-1.3,38.7c2,16.5,9.2,37.1,8.6,43.1-.6,6-1.7,15.2,0,16.9,1.7,1.7,4.8,5.7,11.1,3.1,6.3-2.6,8.6-6,8.6-6,0,0,5.7-29.2,0-33.7-5.7-4.6-5.1-4.9-4-20.3,1.1-15.4,2.3-33.2,0-35.7-2.3-2.6-23-6-23-6Z"/>
      <path class="st36" d="M1259.2,167s-.1,7.8-2.7,10.6c-2.6,2.9-5.4,10.4,0,10.2,5.4-.3,12-2.9,14.7-8.9,2.7-6,1.6-16.7,0-17.7-1.6-1-12.6-.2-12,5.8h0Z"/>
      <path class="st13" d="M1259.2,165.9s-.1,7.8-2.7,10.6c-2.6,2.9-5.4,10.4,0,10.2,5.4-.3,12-2.9,14.7-8.9,2.7-6,1.6-16.7,0-17.7-1.6-1-12.6-.2-12,5.8h0Z"/>
      <path class="st19" d="M1228.3,67.2s6.5,44.6,15.7,57.8c9.2,13.2,11.8,38.3,12.3,40.9.6,2.6,7.4,5.4,11.7,3,4.3-2.4,6.9-19.8,3.1-34.1-3.7-14.3-5.2-16.6-5.4-18.3-.3-1.7-4-50-10.9-56.6-6.9-6.6-14.8-8.8-17.4-7.1-2.7,1.7-11,3.5-9.1,14.6h0Z"/>
      <path class="st19" d="M1216.2-6.3c-7.4,7.4-6.3,31.5-7.3,35.5-1,4,6.4,24.8,6.4,24.8,0,0,13.5,9.8,24.5,8.1,11-1.7,15-2.3,15-2.3,0,0,11.7-35.7,10.9-42.6-.9-6.9-2.4-8.9-10.3-19.2-12.9-16.9-31.7-11.7-39.2-4.3Z"/>
      <path class="st23" d="M1228-8s-4.7,0-4.2,4.5,5.2,5.8,4.4,17.8c-.9,12-2,42.3-2,42.3,0,0,5-49.1,7.9-49.5,2.9-.5,10.3-9.2,9.8-15.6-.5-6.4-10.1-2.7-15.9.6h0Z"/>
      <path class="st0" d="M1226.2-14.8s3.2,6.3,2,8.4c-1.2,2.1,2.4,5.7,9.1,3.4,6.7-2.3,6.5-5.6,6.5-5.6,0,0-1.8-6.2-1.7-8.9.1-2.7-16,2.6-16,2.6h0Z"/>
      <path class="st19" d="M1226.2-28.9l-1.2-1.7s-2.1-8.9,8.3-11.9c10.4-3.1,14.7,6.5,14.4,12.4-.3,5.9-3.6,7.9-3.8,8.4,0,.5-2.4,4.2-6.6,1.6-4.3-2.6-11.1-8.8-11.1-8.8Z"/>
      <path class="st42" d="M1226.2-33.9s-2.2,5.2-1.6,6.6c.5,1.4-.8,4.6-.8,5.7s1.3,9.9,1.2,10.3c0,.4,3.7,2.8,7.5,1.6,3.8-1.2,6.8-3.7,7.1-4,.3-.3,2.9-5.3,2.9-5.3,0,0,1.9-.6,3-1.9,1.1-1.4,2.7-4.6,2.1-5.5-.6-.9-2.6.7-2.9.8-.3,0-1.4,3.8-2.1,2.2-.7-1.6,2-6.7-1.9-9.1-3.9-2.4-12.7-6.6-14.4-1.4h0Z"/>
      <path class="st34" d="M1212.4,47.7s-1.6,1.9-1.8,3.2c-.2,1.3,1.8,4.9,2,5.9.2,1,1.8,5.6,2.7,3.3.9-2.2,1.1-2.6,0-4-1.1-1.2-.7-1.7-.8-4-.2-2.3-.4-3.4-1.9-4.4Z"/>
      <path class="st14" d="M1253.2,14.1s-1.1,3.2.9,10.3c1.9,7.1,7.9,25.8,8.4,29.8.4,4.1,5.6,19.1,7.3,20.8s6.2,3.2,7.7,2.4c1.5-.9,3-1.9,2.3-10.3-.6-8.4-3-17.6-5.6-26.2-2.6-8.6-3.7-22.5-7.7-28.5-3.9-6-12.7-8.7-13.4,1.7h0Z"/>
      <path class="st23" d="M1233.3,37.3v-12.2l2-1.2v12.2l-2,1.2Z"/>
      <path class="st27" d="M1233.3,25.1l-3-1.7,2-1.2,3,1.7-2,1.2Z"/>
      <path class="st35" d="M1233.3,37.3l-3-1.7v-12.2l3,1.7v12.2Z"/>
      <path class="st23" d="M1238.5,40.3v-12.2l2-1.2v12.2l-2,1.2Z"/>
      <path class="st27" d="M1238.5,28.1l-3-1.7,2-1.2,3,1.7-2,1.2Z"/>
      <path class="st35" d="M1238.4,40.4l-3-1.7v-12.2l3,1.7v12.2Z"/>
      <path class="st23" d="M1243.8,43.3v-12.2l2-1.2v12.2l-2,1.2Z"/>
      <path class="st27" d="M1243.8,31.1l-3-1.7,2-1.2,3,1.7-2,1.2Z"/>
      <path class="st35" d="M1243.7,43.4l-3-1.7v-12.2l3,1.7v12.2Z"/>
      <path class="st14" d="M1218.1,27.1s0,9.6-2,9.6-7,.3-7.2-1.8c-.2-2.1-4.5-5-1.9-9.8l2.6-4.8s7.9,1.4,8.5,3.8c.6,2.4,0,3,0,3h0Z"/>
      <path class="st36" d="M1208.8,19.8s-3.5,2.8-1.9,5.3c1.6,2.4,4.7,3.1,7,2,2.2-1.1,4.4-2.2,3.8-3.7-.6-1.5-7.1-5.6-8.9-3.5Z"/>
      <path class="st26" d="M1238.4,6.2s1.6-1.7,3.2-.9,6.1,3.7,6.9,4.7c.8,1-.5,3.7-.5,3.7,0,0,.4,3.3-3.1,5.1-3.5,1.8-6.5,1.3-6.5,1.3,0,0-3.1-2.9-2.4-7,.7-4.1,2.4-6.9,2.4-6.9h0Z"/>
      <path class="st31" d="M1236.8,6.1s4.9.1,7.7,2.2c2.8,2,5.3,6.5,5.3,6.5l-1.1,2.2s-3.3-5.7-5.6-7-6.9-2.2-6.9-2.2l.6-1.7h0Z"/>
      <path class="st31" d="M1239.5,17.5c-1.3-.4-2.1-2.6-1.5-4.6.5-2,3.4-2.6,4.8-1.2,1.4,1.5.5,7-3.3,5.8Z"/>
      <path class="st26" d="M1265.9,34.2c-.5-.2-.8-.5-.8-.5l-1.4-7.3s1.2-.9,2.8-2.7c1.8-2.1,2.8-4.3,2.8-4.3l2.1,9.7s-1,2.9-2.8,4.7c-1,1-2.1.9-2.7.6Z"/>
      <path class="st26" d="M1266.6,32.7l-1.1-6.1c.5-.8.7-.8,1.9-2,1.6-1.8,1.7-1.5,1.9-2.3l.6,6.3c-.3.7-1.1,2.6-2.3,3.9-.4.4-.6.3-.8.2h0Z"/>
      <path class="st3" d="M1267.7,32.7c1.2-1.3,2.1-3.2,2.4-4l-.8-8.1-.4,1.7c0,.4,0,.4-.6.9-.3.3-.6.6-1.2,1.2-.5.5-.8.8-1.1,1-.3.3-.6.5-.9,1h0c0,0,1.2,6.4,1.2,6.4h.2c.1.1.3.2.4.2.2,0,.5-.1.8-.4h0ZM1265.7,26.7c.2-.3.4-.5.7-.8.2-.2.6-.5,1.1-1.1.5-.6.9-.9,1.1-1.2.1-.1.2-.2.3-.3l.5,5.3c-.3.6-1.1,2.5-2.2,3.7-.2.3-.4.3-.5.2l-1.1-5.9h0Z"/>
      <path class="st23" d="M1214,50.3c.4,3,.3,5.8.7,8.7,3.6,8.7,14.7,9.4,21.8,10.2,7.1.9,19-5,18.7-10.3-.3-5.3-.8-2-.3-5.8-2.6,4.3-5.2,8.3-10.2,9.8-7.6,2.4-19.6-.9-25.3-4.5-4.9-3.1-3.5-4.4-5.5-8.2h0Z"/>
      <path class="st29" d="M1258,50.9c-2.3,1.2-3.6,4.5-4.8,6.7-1.6-.3-3.2-.6-4.8-1,1-1.7,2.7-6,4.7-6.4,2-.4,3.2.8,5,.7h0Z"/>
      <path class="st5" d="M1253.2,57.6c1,7.6,4.2,14.2,7.8,18.4.4.5.8.6,1.3.9-1.6-.4-3.2-.7-4.8-1.1-.5-.1-.9-.4-1.3-.8-3.6-4.1-10.2-12.5-7.9-18.3,1.6.3,3.2.7,4.8,1h0Z"/>
      <path class="st45" d="M1258,50.9c2.7,1.2,4.7,10.7,5.9,13.9,1.1,2.9,2.1,11.1-1.6,12-.5.1-.9-.3-1.3-.8-3.6-4.1-8.2-12-7.8-18.5,0-1.2,2.1-7.8,4.8-6.6h0Z"/>
      <path class="st5" d="M1238.2,64.6c.7,4.3,1.3,8.7,1.8,13.1-2.3-1.2-4.6-2.3-6.8-3.5-.6-4.4-1.5-8.7-2.2-13,2.4,1.2,4.8,2.3,7.2,3.5Z"/>
      <path class="st45" d="M1240.6,62.2c.6,4.7,1.1,9.4,1.4,14.1l-2,1.4c-.5-4.4-1.1-8.7-1.8-13.1l2.4-2.4h0Z"/>
      <path class="st44" d="M1235.2,68.3c-.5.5-.7,1.3-.4,1.9.3.7,1.2,1.6,1.8.7.6-1,0-2.5-1.4-2.6h0Z"/>
      <path class="st29" d="M1240.6,62.2l-2.4,2.4c.3,2.3.6,4.6.8,7-2.2-1.1-4.5-2.1-6.8-3.1-1-2.4-2-4.9-2.9-7.3,1.4-.9,2.8-1.7,4.2-2.5,2.4,1.2,4.8,2.3,7.2,3.5h0Z"/>
      <path class="st23" d="M1217.3,54.2c-.6,0-1.2-1.2-1.8,0-.7,1.3-.1,5.9-.2,7.6,0,1.7-.2,2.9.3,4.4-1.2-1.8-2.6-2.9-3.8-4.8-.6-1-.4-2.8-.4-4.3,0-1.5-.6-6.5.2-7.6.7-1.1,1.2-.6,1.9,0,1.1,1,2.6,3.4,3.8,4.6h0Z"/>
      <path class="st29" d="M1213.4,49.5c-.7-.7-1.1-1-1.9-.2-.8.9-.2,4.8-.2,6.2.2.8.3,1.7.4,2.5.1.8.4,1.4.9,1.8.5.4,1.3.6,1.8.3.6-.3.5-.9.7-1.4,0,0,0-.1,0-.1,0-1.1-.4-3.8.2-4.6.6-.8,1.3-.2,1.8,0-1.2-1.2-2.7-3.6-3.8-4.6h0Z"/>
      <path class="st5" d="M1217.3,54.2c0,0,.1.1.2.4.9,2.6.7,7.9.2,10.1-.5,2.3-.7,1.1-1.9,1.6,0,0-.1,0-.2-.1-.5-1.4-.4-2.7-.3-4.4,0-1.7-.5-6.3.2-7.6.7-1.3,1.3-.1,1.9,0h0Z"/>
      <path class="st4" d="M1221.2,59.2c.3,2.1,0,5.8.7,7.5.8,1.7,2.7.8,3.8,1.6,0-.2,0-.3,0-.5-1.1-.4-2.3-.8-3.4-1.2,0-2.2-.2-4.4-.3-6.6,1.3.5,2.6,1.1,4,1.6,0-.3,0-.5-.1-.8-1.6-.5-3.1-1.2-4.7-1.6h0Z"/>
      <path class="st4" d="M1222.8,63.7v1c-1.1-.5-2.1-1.1-3-1.6v-1.2c1,.6,2,1.2,3,1.8Z"/>
      <path class="st36" d="M1250.4,105.8c1.1-.1,2.2,15.3,4.7,16.2,2.5.9,9.2,3.7,9.8,2.9.6-.9,2.6-6.7,2.7-9.4,0-2.7-3.7-16-3.7-16,0,0-2.2,3.6-5.9,5.3-3.7,1.7-7.6,1.1-7.6,1.1h0Z"/>
      <path class="st42" d="M1271.4,75.4s-3,5-2.9,5.8c.1.8-.7,4.8-.8,4.9-.2.2,1.9,3.3,1.9,3.9,0,.6,1.2,0,1.4-.8.2-.8-.5-2.7-.5-2.7l1.4-3.7s2.8,3.5,2.9,4.4c0,.9-2,2.5-2.2,3-.1.6,3.8.5,4.1,0,.3-.5,1.4-1.4,1.4-1.4,0,0,1.4-.4,1.9-1.1.5-.8.9-1.8.9-1.8,0,0,1.8-.3,2.1-1.1.3-.9.3-1.2.3-1.2,0,0,.5-1.1.6-2.5.1-1.3-.4-2.9-1.3-4.4-.9-1.5-4.9-5.2-5.1-5.5-.2-.3-6.2,2-6.2,4.1h0Z"/>
      <path d="M175.5,166.2v-2.5h17.5v2.5h-7.3v20.8h-2.8v-20.8h-7.3ZM199.7,176.5v10.5h-2.7v-23.3h2.7v8.5h.2c.4-.9,1-1.6,1.8-2.1.8-.5,1.9-.8,3.3-.8s2.2.2,3.1.7c.9.5,1.6,1.2,2.1,2.2.5,1,.8,2.2.8,3.7v11.1h-2.7v-10.9c0-1.4-.4-2.5-1.1-3.2-.7-.8-1.7-1.1-3-1.1s-1.7.2-2.4.6c-.7.4-1.2.9-1.6,1.6-.4.7-.6,1.6-.6,2.6ZM223.2,187.4c-1.7,0-3.1-.4-4.4-1.1-1.2-.8-2.1-1.8-2.8-3.1-.7-1.3-1-2.9-1-4.7s.3-3.4,1-4.7c.7-1.4,1.6-2.4,2.8-3.2,1.2-.8,2.6-1.2,4.1-1.2s1.8.2,2.7.5c.9.3,1.7.8,2.4,1.5.7.7,1.3,1.6,1.7,2.7.4,1.1.6,2.5.6,4.1v1.1h-13.5v-2.3h10.7c0-1-.2-1.9-.6-2.6-.4-.8-.9-1.4-1.7-1.8-.7-.4-1.6-.7-2.5-.7s-2,.3-2.8.8c-.8.5-1.4,1.2-1.8,2-.4.8-.6,1.7-.6,2.7v1.5c0,1.3.2,2.4.7,3.4.5.9,1.1,1.6,1.9,2.1.8.5,1.8.7,2.9.7s1.3,0,1.9-.3c.6-.2,1.1-.5,1.5-.9.4-.4.7-.9,1-1.5l2.6.7c-.3.9-.7,1.7-1.4,2.3-.6.7-1.4,1.2-2.4,1.5-.9.4-2,.5-3.2.5ZM251.3,169.5v2.3h-9.4v-2.3h9.4ZM244.7,187v-19.9c0-1,.2-1.8.7-2.5.5-.7,1.1-1.2,1.8-1.5.8-.3,1.5-.5,2.4-.5s1.2,0,1.6.2c.4.1.7.2.9.3l-.8,2.3c-.1,0-.3-.1-.6-.2-.2,0-.5-.1-.9-.1-.9,0-1.5.2-1.9.7-.4.4-.6,1.1-.6,2v19.2h-2.7ZM255,187v-17.5h2.7v17.5h-2.7ZM256.4,166.6c-.5,0-1-.2-1.4-.5-.4-.4-.6-.8-.6-1.3s.2-.9.6-1.3c.4-.4.8-.5,1.4-.5s1,.2,1.3.5c.4.4.6.8.6,1.3s-.2.9-.6,1.3c-.4.4-.8.5-1.3.5ZM262.6,187v-17.5h2.6v2.6h.2c.3-.9.9-1.6,1.7-2.1.8-.5,1.8-.8,2.8-.8s.4,0,.7,0c.3,0,.5,0,.7,0v2.7c0,0-.3,0-.6-.1-.3,0-.7,0-1,0-.8,0-1.6.2-2.3.5-.7.3-1.2.8-1.6,1.5-.4.6-.6,1.3-.6,2.1v11h-2.7ZM286.9,173.5l-2.4.7c-.2-.4-.4-.8-.7-1.2-.3-.4-.7-.7-1.2-1s-1.1-.4-1.9-.4-2,.2-2.7.7c-.7.5-1.1,1.1-1.1,1.9s.2,1.2.7,1.6c.5.4,1.2.7,2.3,1l2.6.6c1.6.4,2.7,1,3.5,1.7.8.8,1.1,1.8,1.1,3s-.3,1.9-.9,2.7c-.6.8-1.4,1.4-2.4,1.9-1,.5-2.2.7-3.6.7s-3.3-.4-4.4-1.2c-1.2-.8-1.9-1.9-2.2-3.4l2.5-.6c.2.9.7,1.6,1.4,2.1.7.5,1.6.7,2.7.7s2.2-.3,3-.8c.7-.5,1.1-1.2,1.1-1.9s-.2-1.1-.6-1.5c-.4-.4-1.1-.7-2-.9l-2.9-.7c-1.6-.4-2.8-1-3.5-1.8-.7-.8-1.1-1.8-1.1-3s.3-1.9.8-2.6c.6-.8,1.3-1.4,2.3-1.8,1-.4,2.1-.6,3.3-.6s3.1.4,4.1,1.1c1,.8,1.7,1.8,2.1,3ZM298.9,169.5v2.3h-9v-2.3h9ZM292.4,165.4h2.7v16.6c0,.8.1,1.3.3,1.7.2.4.5.6.9.8.4.1.7.2,1.1.2s.5,0,.7,0c.2,0,.3,0,.5,0l.5,2.4c-.2,0-.4.1-.8.2-.3,0-.7.1-1.2.1-.8,0-1.5-.2-2.2-.5-.7-.3-1.3-.8-1.8-1.5-.5-.7-.7-1.5-.7-2.5v-17.4ZM324.3,173.5l-2.4.7c-.2-.4-.4-.8-.7-1.2-.3-.4-.7-.7-1.2-1s-1.1-.4-1.9-.4-2,.2-2.7.7c-.7.5-1.1,1.1-1.1,1.9s.2,1.2.7,1.6c.5.4,1.2.7,2.3,1l2.6.6c1.6.4,2.7,1,3.5,1.7.8.8,1.1,1.8,1.1,3s-.3,1.9-.9,2.7c-.6.8-1.4,1.4-2.4,1.9-1,.5-2.2.7-3.6.7s-3.3-.4-4.4-1.2c-1.2-.8-1.9-1.9-2.2-3.4l2.5-.6c.2.9.7,1.6,1.4,2.1.7.5,1.6.7,2.7.7s2.2-.3,3-.8c.7-.5,1.1-1.2,1.1-1.9s-.2-1.1-.6-1.5c-.4-.4-1.1-.7-2-.9l-2.9-.7c-1.6-.4-2.8-1-3.5-1.8-.7-.8-1.1-1.8-1.1-3s.3-1.9.8-2.6c.6-.8,1.3-1.4,2.3-1.8,1-.4,2.1-.6,3.3-.6s3.1.4,4.1,1.1c1,.8,1.7,1.8,2.1,3ZM336.2,169.5v2.3h-9v-2.3h9ZM329.8,165.4h2.7v16.6c0,.8.1,1.3.3,1.7.2.4.5.6.9.8.4.1.7.2,1.1.2s.5,0,.7,0c.2,0,.3,0,.5,0l.5,2.4c-.2,0-.4.1-.8.2-.3,0-.7.1-1.2.1-.8,0-1.5-.2-2.2-.5-.7-.3-1.3-.8-1.8-1.5-.5-.7-.7-1.5-.7-2.5v-17.4ZM347.4,187.4c-1.7,0-3.1-.4-4.4-1.1-1.2-.8-2.1-1.8-2.8-3.1-.7-1.3-1-2.9-1-4.7s.3-3.4,1-4.7c.7-1.4,1.6-2.4,2.8-3.2,1.2-.8,2.6-1.2,4.1-1.2s1.8.2,2.7.5c.9.3,1.7.8,2.4,1.5.7.7,1.3,1.6,1.7,2.7.4,1.1.6,2.5.6,4.1v1.1h-13.5v-2.3h10.7c0-1-.2-1.9-.6-2.6-.4-.8-.9-1.4-1.7-1.8-.7-.4-1.6-.7-2.5-.7s-2,.3-2.8.8c-.8.5-1.4,1.2-1.8,2-.4.8-.6,1.7-.6,2.7v1.5c0,1.3.2,2.4.7,3.4.5.9,1.1,1.6,1.9,2.1.8.5,1.8.7,2.9.7s1.3,0,1.9-.3c.6-.2,1.1-.5,1.5-.9.4-.4.7-.9,1-1.5l2.6.7c-.3.9-.7,1.7-1.4,2.3-.6.7-1.4,1.2-2.4,1.5-.9.4-2,.5-3.2.5ZM358.7,193.5v-24h2.6v2.8h.3c.2-.3.5-.7.8-1.2.4-.5.9-.9,1.5-1.3.7-.4,1.6-.6,2.7-.6s2.8.4,3.9,1.1c1.1.7,2,1.8,2.6,3.1.6,1.3.9,2.9.9,4.8s-.3,3.5-.9,4.8c-.6,1.3-1.5,2.4-2.6,3.1-1.1.7-2.4,1.1-3.9,1.1s-2-.2-2.7-.6c-.7-.4-1.2-.8-1.6-1.3-.4-.5-.6-.9-.8-1.2h-.2v9.2h-2.7ZM361.3,178.3c0,1.3.2,2.5.6,3.5.4,1,1,1.8,1.7,2.4.7.6,1.7.8,2.7.8s2.1-.3,2.8-.9c.8-.6,1.3-1.4,1.7-2.4.4-1,.6-2.1.6-3.4s-.2-2.3-.6-3.3c-.4-1-.9-1.8-1.7-2.4-.8-.6-1.7-.9-2.8-.9s-2,.3-2.8.8c-.7.5-1.3,1.3-1.7,2.3-.4,1-.6,2.1-.6,3.4ZM387.2,187v-17.5h2.7v17.5h-2.7ZM388.5,166.6c-.5,0-1-.2-1.4-.5-.4-.4-.6-.8-.6-1.3s.2-.9.6-1.3c.4-.4.8-.5,1.4-.5s1,.2,1.3.5c.4.4.6.8.6,1.3s-.2.9-.6,1.3c-.4.4-.8.5-1.3.5ZM397.4,176.5v10.5h-2.7v-17.5h2.6v2.7h.2c.4-.9,1-1.6,1.9-2.1.8-.5,1.9-.8,3.2-.8s2.2.2,3.1.7c.9.5,1.6,1.2,2.1,2.2.5,1,.7,2.2.7,3.7v11.1h-2.7v-10.9c0-1.4-.4-2.4-1.1-3.2-.7-.8-1.7-1.2-2.9-1.2s-1.6.2-2.3.6c-.7.4-1.2.9-1.6,1.6-.4.7-.6,1.6-.6,2.6ZM422.5,187v-17.5h2.6v2.7h.2c.4-.9,1-1.7,1.8-2.2.8-.5,1.8-.8,2.9-.8s2.1.3,2.9.8c.8.5,1.4,1.2,1.8,2.2h.2c.4-.9,1.1-1.6,2-2.1.9-.5,2-.8,3.2-.8s2.8.5,3.8,1.5c1,1,1.5,2.5,1.5,4.5v11.7h-2.7v-11.7c0-1.3-.4-2.2-1.1-2.8-.7-.6-1.5-.8-2.5-.8s-2.2.4-2.9,1.1c-.7.7-1,1.7-1,2.8v11.4h-2.7v-12c0-1-.3-1.8-1-2.4-.6-.6-1.5-.9-2.5-.9s-1.3.2-2,.6c-.6.4-1.1.9-1.5,1.5-.4.7-.5,1.4-.5,2.3v10.9h-2.7ZM455.4,187.4c-1.1,0-2.1-.2-3-.6-.9-.4-1.6-1-2.1-1.8-.5-.8-.8-1.8-.8-2.9s.2-1.8.6-2.4c.4-.6.9-1.1,1.6-1.5.7-.4,1.4-.6,2.2-.8.8-.2,1.6-.3,2.4-.4,1.1-.1,1.9-.2,2.6-.3.7,0,1.2-.2,1.5-.4.3-.2.5-.5.5-.9h0c0-1.2-.3-2.1-.9-2.7-.6-.6-1.5-.9-2.8-.9s-2.3.3-3,.8c-.7.6-1.2,1.2-1.5,1.8l-2.5-.9c.5-1.1,1.1-1.9,1.8-2.5.8-.6,1.6-1,2.5-1.2.9-.2,1.8-.4,2.7-.4s1.2,0,1.9.2c.7.1,1.4.4,2.1.8.7.4,1.3,1,1.7,1.9.5.8.7,1.9.7,3.3v11.5h-2.7v-2.4h-.1c-.2.4-.5.8-.9,1.2-.4.4-1,.8-1.7,1.1-.7.3-1.6.5-2.6.5ZM455.8,185c1.1,0,2-.2,2.7-.6.7-.4,1.3-1,1.7-1.6.4-.7.6-1.4.6-2.1v-2.5c-.1.1-.4.3-.8.4-.4.1-.8.2-1.3.3-.5,0-1,.1-1.4.2-.5,0-.8,0-1.1.1-.7,0-1.3.2-2,.4-.6.2-1.1.5-1.5.9-.4.4-.5.9-.5,1.6s.3,1.6,1,2.1c.7.5,1.6.7,2.6.7ZM480.7,173.5l-2.4.7c-.2-.4-.4-.8-.7-1.2-.3-.4-.7-.7-1.2-1s-1.1-.4-1.9-.4-2,.2-2.7.7c-.7.5-1.1,1.1-1.1,1.9s.2,1.2.7,1.6c.5.4,1.2.7,2.3,1l2.6.6c1.6.4,2.7,1,3.5,1.7.8.8,1.1,1.8,1.1,3s-.3,1.9-.9,2.7c-.6.8-1.4,1.4-2.4,1.9-1,.5-2.2.7-3.6.7s-3.3-.4-4.4-1.2c-1.2-.8-1.9-1.9-2.2-3.4l2.5-.6c.2.9.7,1.6,1.4,2.1.7.5,1.6.7,2.7.7s2.2-.3,3-.8c.7-.5,1.1-1.2,1.1-1.9s-.2-1.1-.6-1.5c-.4-.4-1.1-.7-2-.9l-2.9-.7c-1.6-.4-2.8-1-3.5-1.8-.7-.8-1.1-1.8-1.1-3s.3-1.9.8-2.6c.6-.8,1.3-1.4,2.3-1.8,1-.4,2.1-.6,3.3-.6s3.1.4,4.1,1.1c1,.8,1.7,1.8,2.1,3ZM497.4,173.5l-2.4.7c-.2-.4-.4-.8-.7-1.2-.3-.4-.7-.7-1.2-1s-1.1-.4-1.9-.4-2,.2-2.7.7c-.7.5-1.1,1.1-1.1,1.9s.2,1.2.7,1.6c.5.4,1.2.7,2.3,1l2.6.6c1.6.4,2.7,1,3.5,1.7.8.8,1.1,1.8,1.1,3s-.3,1.9-.9,2.7c-.6.8-1.4,1.4-2.4,1.9-1,.5-2.2.7-3.6.7s-3.3-.4-4.4-1.2c-1.2-.8-1.9-1.9-2.2-3.4l2.5-.6c.2.9.7,1.6,1.4,2.1.7.5,1.6.7,2.7.7s2.2-.3,3-.8c.7-.5,1.1-1.2,1.1-1.9s-.2-1.1-.6-1.5c-.4-.4-1.1-.7-2-.9l-2.9-.7c-1.6-.4-2.8-1-3.5-1.8-.7-.8-1.1-1.8-1.1-3s.3-1.9.8-2.6c.6-.8,1.3-1.4,2.3-1.8,1-.4,2.1-.6,3.3-.6s3.1.4,4.1,1.1c1,.8,1.7,1.8,2.1,3ZM517.4,187.4c-1.5,0-2.7-.4-3.9-1.1-1.1-.7-2-1.8-2.6-3.1-.6-1.4-.9-3-.9-4.8s.3-3.4.9-4.8c.6-1.3,1.5-2.4,2.6-3.1,1.1-.7,2.4-1.1,3.9-1.1s2,.2,2.7.6c.7.4,1.2.8,1.5,1.3.4.5.6.9.8,1.2h.2v-8.6h2.7v23.3h-2.6v-2.7h-.3c-.2.3-.5.7-.8,1.2-.4.5-.9.9-1.6,1.3-.7.4-1.6.6-2.7.6ZM517.7,185c1.1,0,2-.3,2.7-.8.7-.6,1.3-1.4,1.7-2.4.4-1,.6-2.2.6-3.5s-.2-2.4-.6-3.4c-.4-1-.9-1.8-1.7-2.3-.7-.6-1.7-.8-2.8-.8s-2.1.3-2.8.9c-.8.6-1.3,1.4-1.7,2.4-.4,1-.6,2.1-.6,3.3s.2,2.4.6,3.4c.4,1,1,1.8,1.7,2.4.8.6,1.7.9,2.8.9ZM538,187.4c-1.7,0-3.1-.4-4.4-1.1-1.2-.8-2.1-1.8-2.8-3.1-.7-1.3-1-2.9-1-4.7s.3-3.4,1-4.7c.7-1.4,1.6-2.4,2.8-3.2,1.2-.8,2.6-1.2,4.1-1.2s1.8.2,2.7.5c.9.3,1.7.8,2.4,1.5.7.7,1.3,1.6,1.7,2.7.4,1.1.6,2.5.6,4.1v1.1h-13.5v-2.3h10.7c0-1-.2-1.9-.6-2.6-.4-.8-.9-1.4-1.7-1.8-.7-.4-1.6-.7-2.5-.7s-2,.3-2.8.8c-.8.5-1.4,1.2-1.8,2-.4.8-.6,1.7-.6,2.7v1.5c0,1.3.2,2.4.7,3.4.5.9,1.1,1.6,1.9,2.1.8.5,1.8.7,2.9.7s1.3,0,1.9-.3c.6-.2,1.1-.5,1.5-.9.4-.4.7-.9,1-1.5l2.6.7c-.3.9-.7,1.7-1.4,2.3-.6.7-1.4,1.2-2.4,1.5-.9.4-2,.5-3.2.5ZM549.3,193.5v-24h2.6v2.8h.3c.2-.3.5-.7.8-1.2.4-.5.9-.9,1.5-1.3.7-.4,1.6-.6,2.7-.6s2.8.4,3.9,1.1c1.1.7,2,1.8,2.6,3.1.6,1.3.9,2.9.9,4.8s-.3,3.5-.9,4.8c-.6,1.3-1.5,2.4-2.6,3.1-1.1.7-2.4,1.1-3.9,1.1s-2-.2-2.7-.6c-.7-.4-1.2-.8-1.6-1.3-.4-.5-.6-.9-.8-1.2h-.2v9.2h-2.7ZM551.9,178.3c0,1.3.2,2.5.6,3.5.4,1,1,1.8,1.7,2.4.7.6,1.7.8,2.7.8s2.1-.3,2.8-.9c.8-.6,1.3-1.4,1.7-2.4.4-1,.6-2.1.6-3.4s-.2-2.3-.6-3.3c-.4-1-.9-1.8-1.7-2.4-.8-.6-1.7-.9-2.8-.9s-2,.3-2.8.8c-.7.5-1.3,1.3-1.7,2.3-.4,1-.6,2.1-.6,3.4ZM575.9,187.4c-1.6,0-3-.4-4.1-1.1-1.2-.8-2.1-1.8-2.8-3.1-.7-1.3-1-2.9-1-4.7s.3-3.4,1-4.8c.7-1.4,1.6-2.4,2.8-3.2,1.2-.8,2.6-1.1,4.1-1.1s3,.4,4.1,1.1c1.2.8,2.1,1.8,2.8,3.2.7,1.4,1,2.9,1,4.8s-.3,3.4-1,4.7c-.7,1.3-1.6,2.4-2.8,3.1-1.2.8-2.6,1.1-4.1,1.1ZM575.9,185c1.2,0,2.2-.3,3-.9.8-.6,1.3-1.4,1.7-2.4.4-1,.6-2.1.6-3.2s-.2-2.3-.6-3.3c-.4-1-.9-1.8-1.7-2.4-.8-.6-1.8-.9-3-.9s-2.2.3-3,.9c-.8.6-1.3,1.4-1.7,2.4-.4,1-.6,2.1-.6,3.3s.2,2.2.6,3.2c.4,1,.9,1.8,1.7,2.4.8.6,1.8.9,3,.9ZM587.9,187v-17.5h2.6v2.6h.2c.3-.9.9-1.6,1.7-2.1.8-.5,1.8-.8,2.8-.8s.4,0,.7,0c.3,0,.5,0,.7,0v2.7c0,0-.3,0-.6-.1-.3,0-.7,0-1,0-.8,0-1.6.2-2.3.5-.7.3-1.2.8-1.6,1.5-.4.6-.6,1.3-.6,2.1v11h-2.7ZM608.5,169.5v2.3h-9v-2.3h9ZM602,165.4h2.7v16.6c0,.8.1,1.3.3,1.7.2.4.5.6.9.8.4.1.7.2,1.1.2s.5,0,.7,0c.2,0,.3,0,.5,0l.5,2.4c-.2,0-.4.1-.8.2-.3,0-.7.1-1.2.1-.8,0-1.5-.2-2.2-.5-.7-.3-1.3-.8-1.8-1.5-.5-.7-.7-1.5-.7-2.5v-17.4ZM617.6,187.4c-1.1,0-2.1-.2-3-.6-.9-.4-1.6-1-2.1-1.8-.5-.8-.8-1.8-.8-2.9s.2-1.8.6-2.4c.4-.6.9-1.1,1.6-1.5s1.4-.6,2.2-.8c.8-.2,1.6-.3,2.4-.4,1.1-.1,1.9-.2,2.6-.3.7,0,1.2-.2,1.5-.4.3-.2.5-.5.5-.9h0c0-1.2-.3-2.1-.9-2.7-.6-.6-1.5-.9-2.8-.9s-2.3.3-3,.8c-.7.6-1.2,1.2-1.5,1.8l-2.5-.9c.5-1.1,1.1-1.9,1.8-2.5.8-.6,1.6-1,2.5-1.2.9-.2,1.8-.4,2.7-.4s1.2,0,1.9.2c.7.1,1.4.4,2.1.8.7.4,1.3,1,1.7,1.9.5.8.7,1.9.7,3.3v11.5h-2.7v-2.4h-.1c-.2.4-.5.8-.9,1.2-.4.4-1,.8-1.7,1.1-.7.3-1.6.5-2.6.5ZM618,185c1.1,0,2-.2,2.7-.6.7-.4,1.3-1,1.7-1.6.4-.7.6-1.4.6-2.1v-2.5c-.1.1-.4.3-.8.4-.4.1-.8.2-1.3.3-.5,0-1,.1-1.4.2-.5,0-.8,0-1.1.1-.7,0-1.3.2-2,.4-.6.2-1.1.5-1.5.9-.4.4-.5.9-.5,1.6s.3,1.6,1,2.1c.7.5,1.6.7,2.6.7ZM638.1,169.5v2.3h-9v-2.3h9ZM631.7,165.4h2.7v16.6c0,.8.1,1.3.3,1.7.2.4.5.6.9.8.4.1.7.2,1.1.2s.5,0,.7,0c.2,0,.3,0,.5,0l.5,2.4c-.2,0-.4.1-.8.2-.3,0-.7.1-1.2.1-.8,0-1.5-.2-2.2-.5-.7-.3-1.3-.8-1.8-1.5-.5-.7-.7-1.5-.7-2.5v-17.4ZM642.1,187v-17.5h2.7v17.5h-2.7ZM643.5,166.6c-.5,0-1-.2-1.4-.5-.4-.4-.6-.8-.6-1.3s.2-.9.6-1.3c.4-.4.8-.5,1.4-.5s1,.2,1.3.5c.4.4.6.8.6,1.3s-.2.9-.6,1.3c-.4.4-.8.5-1.3.5ZM656.8,187.4c-1.6,0-3-.4-4.1-1.1-1.2-.8-2.1-1.8-2.8-3.1-.7-1.3-1-2.9-1-4.7s.3-3.4,1-4.8c.7-1.4,1.6-2.4,2.8-3.2,1.2-.8,2.6-1.1,4.1-1.1s3,.4,4.1,1.1c1.2.8,2.1,1.8,2.8,3.2.7,1.4,1,2.9,1,4.8s-.3,3.4-1,4.7c-.7,1.3-1.6,2.4-2.8,3.1-1.2.8-2.6,1.1-4.1,1.1ZM656.8,185c1.2,0,2.2-.3,3-.9.8-.6,1.3-1.4,1.7-2.4.4-1,.6-2.1.6-3.2s-.2-2.3-.6-3.3c-.4-1-.9-1.8-1.7-2.4-.8-.6-1.8-.9-3-.9s-2.2.3-3,.9-1.3,1.4-1.7,2.4c-.4,1-.6,2.1-.6,3.3s.2,2.2.6,3.2c.4,1,.9,1.8,1.7,2.4s1.8.9,3,.9ZM671.5,176.5v10.5h-2.7v-17.5h2.6v2.7h.2c.4-.9,1-1.6,1.9-2.1.8-.5,1.9-.8,3.2-.8s2.2.2,3.1.7c.9.5,1.6,1.2,2.1,2.2.5,1,.7,2.2.7,3.7v11.1h-2.7v-10.9c0-1.4-.4-2.4-1.1-3.2-.7-.8-1.7-1.2-2.9-1.2s-1.6.2-2.3.6c-.7.4-1.2.9-1.6,1.6-.4.7-.6,1.6-.6,2.6ZM696.5,187v-17.5h2.7v17.5h-2.7ZM697.9,166.6c-.5,0-1-.2-1.4-.5-.4-.4-.6-.8-.6-1.3s.2-.9.6-1.3c.4-.4.8-.5,1.4-.5s1,.2,1.3.5c.4.4.6.8.6,1.3s-.2.9-.6,1.3c-.4.4-.8.5-1.3.5ZM716.5,173.5l-2.4.7c-.2-.4-.4-.8-.7-1.2-.3-.4-.7-.7-1.2-1s-1.1-.4-1.9-.4-2,.2-2.7.7c-.7.5-1.1,1.1-1.1,1.9s.2,1.2.7,1.6c.5.4,1.2.7,2.3,1l2.6.6c1.6.4,2.7,1,3.5,1.7.8.8,1.1,1.8,1.1,3s-.3,1.9-.9,2.7c-.6.8-1.4,1.4-2.4,1.9-1,.5-2.2.7-3.6.7s-3.3-.4-4.4-1.2c-1.2-.8-1.9-1.9-2.2-3.4l2.5-.6c.2.9.7,1.6,1.4,2.1.7.5,1.6.7,2.7.7s2.2-.3,3-.8c.7-.5,1.1-1.2,1.1-1.9s-.2-1.1-.6-1.5c-.4-.4-1.1-.7-2-.9l-2.9-.7c-1.6-.4-2.8-1-3.5-1.8-.7-.8-1.1-1.8-1.1-3s.3-1.9.8-2.6c.6-.8,1.3-1.4,2.3-1.8,1-.4,2.1-.6,3.3-.6s3.1.4,4.1,1.1c1,.8,1.7,1.8,2.1,3ZM735,187.4c-1.1,0-2.1-.2-3-.6-.9-.4-1.6-1-2.1-1.8-.5-.8-.8-1.8-.8-2.9s.2-1.8.6-2.4c.4-.6.9-1.1,1.6-1.5s1.4-.6,2.2-.8c.8-.2,1.6-.3,2.4-.4,1.1-.1,1.9-.2,2.6-.3.7,0,1.2-.2,1.5-.4.3-.2.5-.5.5-.9h0c0-1.2-.3-2.1-.9-2.7-.6-.6-1.5-.9-2.8-.9s-2.3.3-3,.8c-.7.6-1.2,1.2-1.5,1.8l-2.5-.9c.5-1.1,1.1-1.9,1.8-2.5.8-.6,1.6-1,2.5-1.2.9-.2,1.8-.4,2.7-.4s1.2,0,1.9.2c.7.1,1.4.4,2.1.8.7.4,1.3,1,1.7,1.9.5.8.7,1.9.7,3.3v11.5h-2.7v-2.4h-.1c-.2.4-.5.8-.9,1.2-.4.4-1,.8-1.7,1.1-.7.3-1.6.5-2.6.5ZM735.4,185c1.1,0,2-.2,2.7-.6.7-.4,1.3-1,1.7-1.6.4-.7.6-1.4.6-2.1v-2.5c-.1.1-.4.3-.8.4-.4.1-.8.2-1.3.3-.5,0-1,.1-1.4.2-.5,0-.8,0-1.1.1-.7,0-1.3.2-2,.4-.6.2-1.1.5-1.5.9-.4.4-.5.9-.5,1.6s.3,1.6,1,2.1c.7.5,1.6.7,2.6.7ZM747.9,187v-17.5h2.6v2.6h.2c.3-.9.9-1.6,1.7-2.1.8-.5,1.8-.8,2.8-.8s.4,0,.7,0c.3,0,.5,0,.7,0v2.7c0,0-.3,0-.6-.1-.3,0-.7,0-1,0-.8,0-1.6.2-2.3.5-.7.3-1.2.8-1.6,1.5-.4.6-.6,1.3-.6,2.1v11h-2.7ZM759.8,187v-17.5h2.6v2.6h.2c.3-.9.9-1.6,1.7-2.1.8-.5,1.8-.8,2.8-.8s.4,0,.7,0c.3,0,.5,0,.7,0v2.7c0,0-.3,0-.6-.1-.3,0-.7,0-1,0-.8,0-1.6.2-2.3.5-.7.3-1.2.8-1.6,1.5-.4.6-.6,1.3-.6,2.1v11h-2.7ZM778.5,187.4c-1.7,0-3.1-.4-4.4-1.1-1.2-.8-2.1-1.8-2.8-3.1-.7-1.3-1-2.9-1-4.7s.3-3.4,1-4.7c.7-1.4,1.6-2.4,2.8-3.2,1.2-.8,2.6-1.2,4.1-1.2s1.8.2,2.7.5c.9.3,1.7.8,2.4,1.5.7.7,1.3,1.6,1.7,2.7.4,1.1.6,2.5.6,4.1v1.1h-13.5v-2.3h10.7c0-1-.2-1.9-.6-2.6-.4-.8-.9-1.4-1.7-1.8-.7-.4-1.6-.7-2.5-.7s-2,.3-2.8.8c-.8.5-1.4,1.2-1.8,2-.4.8-.6,1.7-.6,2.7v1.5c0,1.3.2,2.4.7,3.4.5.9,1.1,1.6,1.9,2.1.8.5,1.8.7,2.9.7s1.3,0,1.9-.3c.6-.2,1.1-.5,1.5-.9.4-.4.7-.9,1-1.5l2.6.7c-.3.9-.7,1.7-1.4,2.3-.6.7-1.4,1.2-2.4,1.5-.9.4-2,.5-3.2.5ZM802.2,173.5l-2.4.7c-.2-.4-.4-.8-.7-1.2-.3-.4-.7-.7-1.2-1s-1.1-.4-1.9-.4-2,.2-2.7.7c-.7.5-1.1,1.1-1.1,1.9s.2,1.2.7,1.6c.5.4,1.2.7,2.3,1l2.6.6c1.6.4,2.7,1,3.5,1.7.8.8,1.1,1.8,1.1,3s-.3,1.9-.9,2.7c-.6.8-1.4,1.4-2.4,1.9-1,.5-2.2.7-3.6.7s-3.3-.4-4.4-1.2c-1.2-.8-1.9-1.9-2.2-3.4l2.5-.6c.2.9.7,1.6,1.4,2.1.7.5,1.6.7,2.7.7s2.2-.3,3-.8c.7-.5,1.1-1.2,1.1-1.9s-.2-1.1-.6-1.5c-.4-.4-1.1-.7-2-.9l-2.9-.7c-1.6-.4-2.8-1-3.5-1.8-.7-.8-1.1-1.8-1.1-3s.3-1.9.8-2.6c.6-.8,1.3-1.4,2.3-1.8,1-.4,2.1-.6,3.3-.6s3.1.4,4.1,1.1c1,.8,1.7,1.8,2.1,3ZM814.1,169.5v2.3h-9v-2.3h9ZM807.7,165.4h2.7v16.6c0,.8.1,1.3.3,1.7.2.4.5.6.9.8.4.1.7.2,1.1.2s.5,0,.7,0c.2,0,.3,0,.5,0l.5,2.4c-.2,0-.4.1-.8.2-.3,0-.7.1-1.2.1-.8,0-1.5-.2-2.2-.5-.7-.3-1.3-.8-1.8-1.5-.5-.7-.7-1.5-.7-2.5v-17.4ZM818.1,187v-17.5h2.7v17.5h-2.7ZM819.5,166.6c-.5,0-1-.2-1.4-.5-.4-.4-.6-.8-.6-1.3s.2-.9.6-1.3c.4-.4.8-.5,1.4-.5s1,.2,1.3.5c.4.4.6.8.6,1.3s-.2.9-.6,1.3c-.4.4-.8.5-1.3.5ZM828.4,176.5v10.5h-2.7v-17.5h2.6v2.7h.2c.4-.9,1-1.6,1.9-2.1.8-.5,1.9-.8,3.2-.8s2.2.2,3.1.7c.9.5,1.6,1.2,2.1,2.2.5,1,.7,2.2.7,3.7v11.1h-2.7v-10.9c0-1.4-.4-2.4-1.1-3.2-.7-.8-1.7-1.2-2.9-1.2s-1.6.2-2.3.6c-.7.4-1.2.9-1.6,1.6-.4.7-.6,1.6-.6,2.6ZM851.5,193.9c-1.3,0-2.4-.2-3.3-.5-.9-.3-1.7-.8-2.3-1.3-.6-.5-1.1-1.1-1.5-1.7l2.1-1.5c.2.3.5.7.9,1.1.4.4.9.8,1.5,1.1.7.3,1.5.5,2.6.5s2.6-.3,3.5-1c.9-.7,1.4-1.8,1.4-3.2v-3.5h-.2c-.2.3-.5.7-.8,1.2-.4.5-.9.9-1.5,1.2-.7.4-1.6.5-2.7.5s-2.7-.3-3.8-1c-1.1-.7-2-1.6-2.6-2.9-.6-1.3-1-2.8-1-4.6s.3-3.3.9-4.7c.6-1.3,1.5-2.4,2.6-3.1,1.1-.7,2.4-1.1,3.9-1.1s2,.2,2.7.6c.7.4,1.2.8,1.5,1.3.4.5.6.9.8,1.2h.3v-2.8h2.6v18c0,1.5-.3,2.7-1,3.7-.7.9-1.6,1.6-2.7,2.1-1.1.4-2.4.7-3.8.7ZM851.4,184.3c1.1,0,2-.2,2.7-.7.7-.5,1.3-1.2,1.7-2.1.4-.9.6-2,.6-3.3s-.2-2.4-.6-3.3c-.4-1-.9-1.7-1.7-2.3-.7-.5-1.7-.8-2.8-.8s-2.1.3-2.8.9c-.8.6-1.3,1.3-1.7,2.3-.4,1-.6,2-.6,3.2s.2,2.3.6,3.2c.4.9,1,1.7,1.7,2.2.8.5,1.7.8,2.8.8ZM187.5,220.9v-10.3h2.7v17.5h-2.7v-3h-.2c-.4.9-1,1.6-1.9,2.3-.9.6-2,.9-3.3.9s-2.1-.2-2.9-.7c-.8-.5-1.5-1.2-2-2.2-.5-1-.7-2.2-.7-3.7v-11.1h2.7v10.9c0,1.3.4,2.3,1.1,3,.7.8,1.6,1.1,2.8,1.1s1.3-.2,2-.5c.7-.3,1.3-.9,1.8-1.6.5-.7.7-1.6.7-2.7ZM197.7,217.5v10.5h-2.7v-17.5h2.6v2.7h.2c.4-.9,1-1.6,1.9-2.1.8-.5,1.9-.8,3.2-.8s2.2.2,3.1.7c.9.5,1.6,1.2,2.1,2.2.5,1,.7,2.2.7,3.7v11.1h-2.7v-10.9c0-1.4-.4-2.4-1.1-3.2-.7-.8-1.7-1.2-2.9-1.2s-1.6.2-2.3.6c-.7.4-1.2.9-1.6,1.6-.4.7-.6,1.6-.6,2.6ZM220.4,228.4c-1.5,0-2.7-.4-3.9-1.1-1.1-.7-2-1.8-2.6-3.1-.6-1.4-.9-3-.9-4.8s.3-3.4.9-4.8c.6-1.3,1.5-2.4,2.6-3.1,1.1-.7,2.4-1.1,3.9-1.1s2,.2,2.7.6c.7.4,1.2.8,1.5,1.3.4.5.6.9.8,1.2h.2v-8.6h2.7v23.3h-2.6v-2.7h-.3c-.2.3-.5.7-.8,1.2-.4.5-.9.9-1.6,1.3-.7.4-1.6.6-2.7.6ZM220.7,226c1.1,0,2-.3,2.7-.8.7-.6,1.3-1.4,1.7-2.4.4-1,.6-2.2.6-3.5s-.2-2.4-.6-3.4c-.4-1-.9-1.8-1.7-2.3-.7-.6-1.7-.8-2.8-.8s-2.1.3-2.8.9c-.8.6-1.3,1.4-1.7,2.4-.4,1-.6,2.1-.6,3.3s.2,2.4.6,3.4c.4,1,1,1.8,1.7,2.4.8.6,1.7.9,2.8.9ZM240.7,228.4c-1.6,0-3-.4-4.1-1.1-1.2-.8-2.1-1.8-2.8-3.1-.7-1.3-1-2.9-1-4.7s.3-3.4,1-4.8c.7-1.4,1.6-2.4,2.8-3.2,1.2-.8,2.6-1.1,4.1-1.1s3,.4,4.1,1.1c1.2.8,2.1,1.8,2.8,3.2.7,1.4,1,2.9,1,4.8s-.3,3.4-1,4.7c-.7,1.3-1.6,2.4-2.8,3.1-1.2.8-2.6,1.1-4.1,1.1ZM240.7,226c1.2,0,2.2-.3,3-.9.8-.6,1.3-1.4,1.7-2.4.4-1,.6-2.1.6-3.2s-.2-2.3-.6-3.3c-.4-1-.9-1.8-1.7-2.4-.8-.6-1.8-.9-3-.9s-2.2.3-3,.9c-.8.6-1.3,1.4-1.7,2.4-.4,1-.6,2.1-.6,3.3s.2,2.2.6,3.2c.4,1,.9,1.8,1.7,2.4.8.6,1.8.9,3,.9ZM259.8,228.4c-1.6,0-3-.4-4.2-1.2-1.2-.8-2.1-1.8-2.7-3.2-.6-1.4-1-2.9-1-4.6s.3-3.3,1-4.7c.7-1.4,1.6-2.4,2.8-3.2,1.2-.8,2.6-1.2,4.1-1.2s2.3.2,3.3.7c1,.5,1.8,1.1,2.4,1.9.6.8,1,1.8,1.2,2.9h-2.7c-.2-.8-.7-1.5-1.4-2.1-.7-.6-1.6-.9-2.8-.9s-2,.3-2.8.8c-.8.5-1.4,1.3-1.8,2.3-.4,1-.6,2.1-.6,3.4s.2,2.5.6,3.5c.4,1,1,1.8,1.8,2.3.8.6,1.7.8,2.8.8s1.3-.1,1.9-.4c.6-.2,1-.6,1.4-1,.4-.5.7-1,.8-1.6h2.7c-.2,1-.5,2-1.1,2.8-.6.8-1.4,1.5-2.4,2-1,.5-2.1.7-3.4.7ZM281.6,220.9v-10.3h2.7v17.5h-2.7v-3h-.2c-.4.9-1,1.6-1.9,2.3-.9.6-2,.9-3.3.9s-2.1-.2-2.9-.7c-.8-.5-1.5-1.2-2-2.2-.5-1-.7-2.2-.7-3.7v-11.1h2.7v10.9c0,1.3.4,2.3,1.1,3,.7.8,1.6,1.1,2.8,1.1s1.3-.2,2-.5c.7-.3,1.3-.9,1.8-1.6.5-.7.7-1.6.7-2.7ZM289.2,228v-17.5h2.6v2.7h.2c.4-.9.9-1.7,1.8-2.2.8-.5,1.8-.8,2.9-.8s2.1.3,2.9.8c.8.5,1.4,1.2,1.8,2.2h.2c.4-.9,1.1-1.6,2-2.1.9-.5,2-.8,3.2-.8s2.8.5,3.8,1.5c1,1,1.5,2.5,1.5,4.5v11.7h-2.7v-11.7c0-1.3-.4-2.2-1.1-2.8-.7-.6-1.5-.8-2.5-.8s-2.2.4-2.9,1.1c-.7.7-1,1.7-1,2.8v11.4h-2.7v-12c0-1-.3-1.8-1-2.4-.6-.6-1.5-.9-2.5-.9s-1.3.2-2,.6c-.6.4-1.1.9-1.5,1.5-.4.7-.5,1.4-.5,2.3v10.9h-2.7ZM324.3,228.4c-1.7,0-3.1-.4-4.4-1.1-1.2-.8-2.1-1.8-2.8-3.1-.7-1.3-1-2.9-1-4.7s.3-3.4,1-4.7c.7-1.4,1.6-2.4,2.8-3.2,1.2-.8,2.6-1.2,4.1-1.2s1.8.2,2.7.5c.9.3,1.7.8,2.4,1.5.7.7,1.3,1.6,1.7,2.7.4,1.1.6,2.5.6,4.1v1.1h-13.5v-2.3h10.7c0-1-.2-1.9-.6-2.6-.4-.8-.9-1.4-1.7-1.8-.7-.4-1.6-.7-2.5-.7s-2,.3-2.8.8c-.8.5-1.4,1.2-1.8,2-.4.8-.6,1.7-.6,2.7v1.5c0,1.3.2,2.4.7,3.4.5.9,1.1,1.6,1.9,2.1.8.5,1.8.7,2.9.7s1.3,0,1.9-.3c.6-.2,1.1-.5,1.5-.9.4-.4.7-.9,1-1.5l2.6.7c-.3.9-.7,1.7-1.4,2.3-.6.7-1.4,1.2-2.4,1.5-.9.4-2,.5-3.2.5ZM338.3,217.5v10.5h-2.7v-17.5h2.6v2.7h.2c.4-.9,1-1.6,1.9-2.1.8-.5,1.9-.8,3.2-.8s2.2.2,3.1.7c.9.5,1.6,1.2,2.1,2.2.5,1,.7,2.2.7,3.7v11.1h-2.7v-10.9c0-1.4-.4-2.4-1.1-3.2-.7-.8-1.7-1.2-2.9-1.2s-1.6.2-2.3.6c-.7.4-1.2.9-1.6,1.6-.4.7-.6,1.6-.6,2.6ZM362,210.5v2.3h-9v-2.3h9ZM355.5,206.4h2.7v16.6c0,.8.1,1.3.3,1.7.2.4.5.6.9.8.4.1.7.2,1.1.2s.5,0,.7,0c.2,0,.3,0,.5,0l.5,2.4c-.2,0-.4.1-.8.2-.3,0-.7.1-1.2.1-.8,0-1.5-.2-2.2-.5-.7-.3-1.3-.8-1.8-1.5-.5-.7-.7-1.5-.7-2.5v-17.4ZM373.1,228.4c-1.7,0-3.1-.4-4.4-1.1-1.2-.8-2.1-1.8-2.8-3.1-.7-1.3-1-2.9-1-4.7s.3-3.4,1-4.7c.7-1.4,1.6-2.4,2.8-3.2,1.2-.8,2.6-1.2,4.1-1.2s1.8.2,2.7.5c.9.3,1.7.8,2.4,1.5.7.7,1.3,1.6,1.7,2.7.4,1.1.6,2.5.6,4.1v1.1h-13.5v-2.3h10.7c0-1-.2-1.9-.6-2.6-.4-.8-.9-1.4-1.7-1.8-.7-.4-1.6-.7-2.5-.7s-2,.3-2.8.8c-.8.5-1.4,1.2-1.8,2-.4.8-.6,1.7-.6,2.7v1.5c0,1.3.2,2.4.7,3.4.5.9,1.1,1.6,1.9,2.1.8.5,1.8.7,2.9.7s1.3,0,1.9-.3c.6-.2,1.1-.5,1.5-.9.4-.4.7-.9,1-1.5l2.6.7c-.3.9-.7,1.7-1.4,2.3-.6.7-1.4,1.2-2.4,1.5-.9.4-2,.5-3.2.5ZM391,228.4c-1.5,0-2.7-.4-3.9-1.1-1.1-.7-2-1.8-2.6-3.1-.6-1.4-.9-3-.9-4.8s.3-3.4.9-4.8c.6-1.3,1.5-2.4,2.6-3.1,1.1-.7,2.4-1.1,3.9-1.1s2,.2,2.7.6c.7.4,1.2.8,1.5,1.3.4.5.6.9.8,1.2h.2v-8.6h2.7v23.3h-2.6v-2.7h-.3c-.2.3-.5.7-.8,1.2-.4.5-.9.9-1.6,1.3-.7.4-1.6.6-2.7.6ZM391.4,226c1.1,0,2-.3,2.7-.8.7-.6,1.3-1.4,1.7-2.4.4-1,.6-2.2.6-3.5s-.2-2.4-.6-3.4c-.4-1-.9-1.8-1.7-2.3-.7-.6-1.7-.8-2.8-.8s-2.1.3-2.8.9c-.8.6-1.3,1.4-1.7,2.4-.4,1-.6,2.1-.6,3.3s.2,2.4.6,3.4c.4,1,1,1.8,1.7,2.4.8.6,1.7.9,2.8.9ZM413.3,228v-17.5h2.7v17.5h-2.7ZM414.7,207.6c-.5,0-1-.2-1.4-.5-.4-.4-.6-.8-.6-1.3s.2-.9.6-1.3c.4-.4.8-.5,1.4-.5s1,.2,1.3.5c.4.4.6.8.6,1.3s-.2.9-.6,1.3c-.4.4-.8.5-1.3.5ZM420.9,228v-17.5h2.6v2.7h.2c.4-.9,1-1.7,1.8-2.2.8-.5,1.8-.8,2.9-.8s2.1.3,2.9.8c.8.5,1.4,1.2,1.8,2.2h.2c.4-.9,1.1-1.6,2-2.1.9-.5,2-.8,3.2-.8s2.8.5,3.8,1.5c1,1,1.5,2.5,1.5,4.5v11.7h-2.7v-11.7c0-1.3-.4-2.2-1.1-2.8-.7-.6-1.5-.8-2.5-.8s-2.2.4-2.9,1.1c-.7.7-1,1.7-1,2.8v11.4h-2.7v-12c0-1-.3-1.8-1-2.4-.6-.6-1.5-.9-2.5-.9s-1.3.2-2,.6c-.6.4-1.1.9-1.5,1.5-.4.7-.5,1.4-.5,2.3v10.9h-2.7ZM448.7,228v-17.5h2.6v2.7h.2c.4-.9.9-1.7,1.8-2.2.8-.5,1.8-.8,2.9-.8s2.1.3,2.9.8c.8.5,1.4,1.2,1.8,2.2h.2c.4-.9,1.1-1.6,2-2.1.9-.5,2-.8,3.2-.8s2.8.5,3.8,1.5c1,1,1.5,2.5,1.5,4.5v11.7h-2.7v-11.7c0-1.3-.4-2.2-1.1-2.8-.7-.6-1.5-.8-2.5-.8s-2.2.4-2.9,1.1c-.7.7-1,1.7-1,2.8v11.4h-2.7v-12c0-1-.3-1.8-1-2.4-.6-.6-1.5-.9-2.5-.9s-1.3.2-2,.6c-.6.4-1.1.9-1.5,1.5-.4.7-.5,1.4-.5,2.3v10.9h-2.7ZM476.5,228v-17.5h2.7v17.5h-2.7ZM477.9,207.6c-.5,0-1-.2-1.4-.5-.4-.4-.6-.8-.6-1.3s.2-.9.6-1.3c.4-.4.8-.5,1.4-.5s1,.2,1.3.5c.4.4.6.8.6,1.3s-.2.9-.6,1.3c-.4.4-.8.5-1.3.5ZM491.2,234.9c-1.3,0-2.4-.2-3.3-.5-.9-.3-1.7-.8-2.3-1.3-.6-.5-1.1-1.1-1.5-1.7l2.1-1.5c.2.3.5.7.9,1.1.4.4.9.8,1.5,1.1.7.3,1.5.5,2.6.5s2.6-.3,3.5-1c.9-.7,1.4-1.8,1.4-3.2v-3.5h-.2c-.2.3-.5.7-.8,1.2-.4.5-.9.9-1.5,1.2-.7.4-1.6.5-2.7.5s-2.7-.3-3.8-1c-1.1-.7-2-1.6-2.6-2.9-.6-1.3-1-2.8-1-4.6s.3-3.3.9-4.7c.6-1.3,1.5-2.4,2.6-3.1,1.1-.7,2.4-1.1,3.9-1.1s2,.2,2.7.6c.7.4,1.2.8,1.5,1.3.4.5.6.9.8,1.2h.3v-2.8h2.6v18c0,1.5-.3,2.7-1,3.7-.7.9-1.6,1.6-2.7,2.1-1.1.4-2.4.7-3.8.7ZM491.1,225.3c1.1,0,2-.2,2.7-.7.7-.5,1.3-1.2,1.7-2.1.4-.9.6-2,.6-3.3s-.2-2.4-.6-3.3c-.4-1-.9-1.7-1.7-2.3-.7-.5-1.7-.8-2.8-.8s-2.1.3-2.8.9c-.8.6-1.3,1.3-1.7,2.3-.4,1-.6,2-.6,3.2s.2,2.3.6,3.2c.4.9,1,1.7,1.7,2.2.8.5,1.7.8,2.8.8ZM503.6,228v-17.5h2.6v2.6h.2c.3-.9.9-1.6,1.7-2.1.8-.5,1.8-.8,2.8-.8s.4,0,.7,0c.3,0,.5,0,.7,0v2.7c0,0-.3,0-.6-.1-.3,0-.7,0-1,0-.8,0-1.6.2-2.3.5-.7.3-1.2.8-1.6,1.5-.4.6-.6,1.3-.6,2.1v11h-2.7ZM520.7,228.4c-1.1,0-2.1-.2-3-.6-.9-.4-1.6-1-2.1-1.8-.5-.8-.8-1.8-.8-2.9s.2-1.8.6-2.4c.4-.6.9-1.1,1.6-1.5s1.4-.6,2.2-.8c.8-.2,1.6-.3,2.4-.4,1.1-.1,1.9-.2,2.6-.3.7,0,1.2-.2,1.5-.4.3-.2.5-.5.5-.9h0c0-1.2-.3-2.1-.9-2.7-.6-.6-1.5-.9-2.8-.9s-2.3.3-3,.8c-.7.6-1.2,1.2-1.5,1.8l-2.5-.9c.5-1.1,1.1-1.9,1.8-2.5.8-.6,1.6-1,2.5-1.2.9-.2,1.8-.4,2.7-.4s1.2,0,1.9.2c.7.1,1.4.4,2.1.8.7.4,1.3,1,1.7,1.9.5.8.7,1.9.7,3.3v11.5h-2.7v-2.4h-.1c-.2.4-.5.8-.9,1.2-.4.4-1,.8-1.7,1.1-.7.3-1.6.5-2.6.5ZM521.1,226c1.1,0,2-.2,2.7-.6.7-.4,1.3-1,1.7-1.6.4-.7.6-1.4.6-2.1v-2.5c-.1.1-.4.3-.8.4-.4.1-.8.2-1.3.3-.5,0-1,.1-1.4.2-.5,0-.8,0-1.1.1-.7,0-1.3.2-2,.4-.6.2-1.1.5-1.5.9-.4.4-.5.9-.5,1.6s.3,1.6,1,2.1c.7.5,1.6.7,2.6.7ZM536.2,217.5v10.5h-2.7v-17.5h2.6v2.7h.2c.4-.9,1-1.6,1.9-2.1.8-.5,1.9-.8,3.2-.8s2.2.2,3.1.7c.9.5,1.6,1.2,2.1,2.2.5,1,.7,2.2.7,3.7v11.1h-2.7v-10.9c0-1.4-.4-2.4-1.1-3.2-.7-.8-1.7-1.2-2.9-1.2s-1.6.2-2.3.6c-.7.4-1.2.9-1.6,1.6-.4.7-.6,1.6-.6,2.6ZM559.9,210.5v2.3h-9v-2.3h9ZM553.4,206.4h2.7v16.6c0,.8.1,1.3.3,1.7.2.4.5.6.9.8.4.1.7.2,1.1.2s.5,0,.7,0c.2,0,.3,0,.5,0l.5,2.4c-.2,0-.4.1-.8.2-.3,0-.7.1-1.2.1-.8,0-1.5-.2-2.2-.5-.7-.3-1.3-.8-1.8-1.5-.5-.7-.7-1.5-.7-2.5v-17.4ZM575.9,214.5l-2.4.7c-.2-.4-.4-.8-.7-1.2-.3-.4-.7-.7-1.2-1s-1.1-.4-1.9-.4-2,.2-2.7.7c-.7.5-1.1,1.1-1.1,1.9s.2,1.2.7,1.6c.5.4,1.2.7,2.3,1l2.6.6c1.6.4,2.7,1,3.5,1.7.8.8,1.1,1.8,1.1,3s-.3,1.9-.9,2.7c-.6.8-1.4,1.4-2.4,1.9-1,.5-2.2.7-3.6.7s-3.3-.4-4.4-1.2c-1.2-.8-1.9-1.9-2.2-3.4l2.5-.6c.2.9.7,1.6,1.4,2.1.7.5,1.6.7,2.7.7s2.2-.3,3-.8c.7-.5,1.1-1.2,1.1-1.9s-.2-1.1-.6-1.5c-.4-.4-1.1-.7-2-.9l-2.9-.7c-1.6-.4-2.8-1-3.5-1.8-.7-.8-1.1-1.8-1.1-3s.3-1.9.8-2.6c.6-.8,1.3-1.4,2.3-1.8,1-.4,2.1-.6,3.3-.6s3.1.4,4.1,1.1c1,.8,1.7,1.8,2.1,3ZM582.3,228.2c-.6,0-1-.2-1.4-.6-.4-.4-.6-.9-.6-1.4s.2-1,.6-1.4c.4-.4.9-.6,1.4-.6s1,.2,1.4.6c.4.4.6.9.6,1.4s0,.7-.3,1c-.2.3-.4.6-.7.8-.3.2-.6.3-1,.3ZM175.5,264.2v-2.5h17.5v2.5h-7.3v20.8h-2.8v-20.8h-7.3ZM199.7,274.5v10.5h-2.7v-23.3h2.7v8.5h.2c.4-.9,1-1.6,1.8-2.1.8-.5,1.9-.8,3.3-.8s2.2.2,3.1.7c.9.5,1.6,1.2,2.1,2.2.5,1,.8,2.2.8,3.7v11.1h-2.7v-10.9c0-1.4-.4-2.5-1.1-3.2-.7-.8-1.7-1.1-3-1.1s-1.7.2-2.4.6c-.7.4-1.2.9-1.6,1.6-.4.7-.6,1.6-.6,2.6ZM215.9,285v-17.5h2.7v17.5h-2.7ZM217.3,264.6c-.5,0-1-.2-1.4-.5-.4-.4-.6-.8-.6-1.3s.2-.9.6-1.3c.4-.4.8-.5,1.4-.5s1,.2,1.3.5c.4.4.6.8.6,1.3s-.2.9-.6,1.3c-.4.4-.8.5-1.3.5ZM235.8,271.5l-2.4.7c-.2-.4-.4-.8-.7-1.2-.3-.4-.7-.7-1.2-1s-1.1-.4-1.9-.4-2,.2-2.7.7c-.7.5-1.1,1.1-1.1,1.9s.2,1.2.7,1.6c.5.4,1.2.7,2.3,1l2.6.6c1.6.4,2.7,1,3.5,1.7.8.8,1.1,1.8,1.1,3s-.3,1.9-.9,2.7c-.6.8-1.4,1.4-2.4,1.9-1,.5-2.2.7-3.6.7s-3.3-.4-4.4-1.2c-1.2-.8-1.9-1.9-2.2-3.4l2.5-.6c.2.9.7,1.6,1.4,2.1.7.5,1.6.7,2.7.7s2.2-.3,3-.8c.7-.5,1.1-1.2,1.1-1.9s-.2-1.1-.6-1.5c-.4-.4-1.1-.7-2-.9l-2.9-.7c-1.6-.4-2.8-1-3.5-1.8-.7-.8-1.1-1.8-1.1-3s.3-1.9.8-2.6c.6-.8,1.3-1.4,2.3-1.8,1-.4,2.1-.6,3.3-.6s3.1.4,4.1,1.1c1,.8,1.7,1.8,2.1,3ZM249.2,285v-17.5h2.7v17.5h-2.7ZM250.6,264.6c-.5,0-1-.2-1.4-.5-.4-.4-.6-.8-.6-1.3s.2-.9.6-1.3c.4-.4.8-.5,1.4-.5s1,.2,1.3.5c.4.4.6.8.6,1.3s-.2.9-.6,1.3c-.4.4-.8.5-1.3.5ZM269.2,271.5l-2.4.7c-.2-.4-.4-.8-.7-1.2-.3-.4-.7-.7-1.2-1s-1.1-.4-1.9-.4-2,.2-2.7.7c-.7.5-1.1,1.1-1.1,1.9s.2,1.2.7,1.6c.5.4,1.2.7,2.3,1l2.6.6c1.6.4,2.7,1,3.5,1.7.8.8,1.1,1.8,1.1,3s-.3,1.9-.9,2.7c-.6.8-1.4,1.4-2.4,1.9-1,.5-2.2.7-3.6.7s-3.3-.4-4.4-1.2c-1.2-.8-1.9-1.9-2.2-3.4l2.5-.6c.2.9.7,1.6,1.4,2.1.7.5,1.6.7,2.7.7s2.2-.3,3-.8c.7-.5,1.1-1.2,1.1-1.9s-.2-1.1-.6-1.5c-.4-.4-1.1-.7-2-.9l-2.9-.7c-1.6-.4-2.8-1-3.5-1.8-.7-.8-1.1-1.8-1.1-3s.3-1.9.8-2.6c.6-.8,1.3-1.4,2.3-1.8,1-.4,2.1-.6,3.3-.6s3.1.4,4.1,1.1c1,.8,1.7,1.8,2.1,3ZM285.2,274.5v10.5h-2.7v-17.5h2.6v2.7h.2c.4-.9,1-1.6,1.9-2.1.8-.5,1.9-.8,3.2-.8s2.2.2,3.1.7c.9.5,1.6,1.2,2.1,2.2.5,1,.7,2.2.7,3.7v11.1h-2.7v-10.9c0-1.4-.4-2.4-1.1-3.2-.7-.8-1.7-1.2-2.9-1.2s-1.6.2-2.3.6c-.7.4-1.2.9-1.6,1.6-.4.7-.6,1.6-.6,2.6ZM308.3,285.4c-1.6,0-3-.4-4.1-1.1-1.2-.8-2.1-1.8-2.8-3.1-.7-1.3-1-2.9-1-4.7s.3-3.4,1-4.8c.7-1.4,1.6-2.4,2.8-3.2,1.2-.8,2.6-1.1,4.1-1.1s3,.4,4.1,1.1c1.2.8,2.1,1.8,2.8,3.2.7,1.4,1,2.9,1,4.8s-.3,3.4-1,4.7c-.7,1.3-1.6,2.4-2.8,3.1-1.2.8-2.6,1.1-4.1,1.1ZM308.3,283c1.2,0,2.2-.3,3-.9.8-.6,1.3-1.4,1.7-2.4s.6-2.1.6-3.2-.2-2.3-.6-3.3c-.4-1-.9-1.8-1.7-2.4-.8-.6-1.8-.9-3-.9s-2.2.3-3,.9c-.8.6-1.3,1.4-1.7,2.4-.4,1-.6,2.1-.6,3.3s.2,2.2.6,3.2.9,1.8,1.7,2.4c.8.6,1.8.9,3,.9ZM327.9,267.5v2.3h-9v-2.3h9ZM321.5,263.4h2.7v16.6c0,.8.1,1.3.3,1.7.2.4.5.6.9.8.4.1.7.2,1.1.2s.5,0,.7,0c.2,0,.3,0,.5,0l.5,2.4c-.2,0-.4.1-.8.2-.3,0-.7.1-1.2.1-.8,0-1.5-.2-2.2-.5-.7-.3-1.3-.8-1.8-1.5-.5-.7-.7-1.5-.7-2.5v-17.4ZM346.1,285.4c-1.1,0-2.1-.2-3-.6-.9-.4-1.6-1-2.1-1.8-.5-.8-.8-1.8-.8-2.9s.2-1.8.6-2.4c.4-.6.9-1.1,1.6-1.5.7-.4,1.4-.6,2.2-.8.8-.2,1.6-.3,2.4-.4,1.1-.1,1.9-.2,2.6-.3.7,0,1.2-.2,1.5-.4.3-.2.5-.5.5-.9h0c0-1.2-.3-2.1-.9-2.7-.6-.6-1.5-.9-2.8-.9s-2.3.3-3,.8c-.7.6-1.2,1.2-1.5,1.8l-2.5-.9c.5-1.1,1.1-1.9,1.8-2.5.8-.6,1.6-1,2.5-1.2.9-.2,1.8-.4,2.7-.4s1.2,0,1.9.2c.7.1,1.4.4,2.1.8.7.4,1.3,1,1.7,1.9.5.8.7,1.9.7,3.3v11.5h-2.7v-2.4h-.1c-.2.4-.5.8-.9,1.2-.4.4-1,.8-1.7,1.1-.7.3-1.6.5-2.6.5ZM346.5,283c1.1,0,2-.2,2.7-.6.7-.4,1.3-1,1.7-1.6.4-.7.6-1.4.6-2.1v-2.5c-.1.1-.4.3-.8.4-.4.1-.8.2-1.3.3-.5,0-1,.1-1.4.2-.5,0-.8,0-1.1.1-.7,0-1.3.2-2,.4-.6.2-1.1.5-1.5.9-.4.4-.5.9-.5,1.6s.3,1.6,1,2.1c.7.5,1.6.7,2.6.7ZM361.7,274.5v10.5h-2.7v-17.5h2.6v2.7h.2c.4-.9,1-1.6,1.9-2.1.8-.5,1.9-.8,3.2-.8s2.2.2,3.1.7c.9.5,1.6,1.2,2.1,2.2.5,1,.7,2.2.7,3.7v11.1h-2.7v-10.9c0-1.4-.4-2.4-1.1-3.2-.7-.8-1.7-1.2-2.9-1.2s-1.6.2-2.3.6c-.7.4-1.2.9-1.6,1.6-.4.7-.6,1.6-.6,2.6ZM394,285.4c-1.7,0-3.1-.4-4.4-1.1-1.2-.8-2.1-1.8-2.8-3.1-.7-1.3-1-2.9-1-4.7s.3-3.4,1-4.7c.7-1.4,1.6-2.4,2.8-3.2,1.2-.8,2.6-1.2,4.1-1.2s1.8.2,2.7.5c.9.3,1.7.8,2.4,1.5.7.7,1.3,1.6,1.7,2.7.4,1.1.6,2.5.6,4.1v1.1h-13.5v-2.3h10.7c0-1-.2-1.9-.6-2.6-.4-.8-.9-1.4-1.7-1.8-.7-.4-1.6-.7-2.5-.7s-2,.3-2.8.8c-.8.5-1.4,1.2-1.8,2-.4.8-.6,1.7-.6,2.7v1.5c0,1.3.2,2.4.7,3.4.5.9,1.1,1.6,1.9,2.1.8.5,1.8.7,2.9.7s1.3,0,1.9-.3c.6-.2,1.1-.5,1.5-.9.4-.4.7-.9,1-1.5l2.6.7c-.3.9-.7,1.7-1.4,2.3-.6.7-1.4,1.2-2.4,1.5-.9.4-2,.5-3.2.5ZM410.5,285.4c-1.1,0-2.1-.2-3-.6-.9-.4-1.6-1-2.1-1.8-.5-.8-.8-1.8-.8-2.9s.2-1.8.6-2.4c.4-.6.9-1.1,1.6-1.5.7-.4,1.4-.6,2.2-.8.8-.2,1.6-.3,2.4-.4,1.1-.1,1.9-.2,2.6-.3.7,0,1.2-.2,1.5-.4.3-.2.5-.5.5-.9h0c0-1.2-.3-2.1-.9-2.7-.6-.6-1.5-.9-2.8-.9s-2.3.3-3,.8c-.7.6-1.2,1.2-1.5,1.8l-2.5-.9c.5-1.1,1.1-1.9,1.8-2.5.8-.6,1.6-1,2.5-1.2.9-.2,1.8-.4,2.7-.4s1.2,0,1.9.2c.7.1,1.4.4,2.1.8.7.4,1.3,1,1.7,1.9.5.8.7,1.9.7,3.3v11.5h-2.7v-2.4h-.1c-.2.4-.5.8-.9,1.2-.4.4-1,.8-1.7,1.1-.7.3-1.6.5-2.6.5ZM410.9,283c1.1,0,2-.2,2.7-.6.7-.4,1.3-1,1.7-1.6.4-.7.6-1.4.6-2.1v-2.5c-.1.1-.4.3-.8.4-.4.1-.8.2-1.3.3-.5,0-1,.1-1.4.2-.5,0-.8,0-1.1.1-.7,0-1.3.2-2,.4-.6.2-1.1.5-1.5.9-.4.4-.5.9-.5,1.6s.3,1.6,1,2.1c.7.5,1.6.7,2.6.7ZM435.7,271.5l-2.4.7c-.2-.4-.4-.8-.7-1.2-.3-.4-.7-.7-1.2-1s-1.1-.4-1.9-.4-2,.2-2.7.7c-.7.5-1.1,1.1-1.1,1.9s.2,1.2.7,1.6c.5.4,1.2.7,2.3,1l2.6.6c1.6.4,2.7,1,3.5,1.7.8.8,1.1,1.8,1.1,3s-.3,1.9-.9,2.7c-.6.8-1.4,1.4-2.4,1.9-1,.5-2.2.7-3.6.7s-3.3-.4-4.4-1.2c-1.2-.8-1.9-1.9-2.2-3.4l2.5-.6c.2.9.7,1.6,1.4,2.1.7.5,1.6.7,2.7.7s2.2-.3,3-.8c.7-.5,1.1-1.2,1.1-1.9s-.2-1.1-.6-1.5c-.4-.4-1.1-.7-2-.9l-2.9-.7c-1.6-.4-2.8-1-3.5-1.8-.7-.8-1.1-1.8-1.1-3s.3-1.9.8-2.6c.6-.8,1.3-1.4,2.3-1.8,1-.4,2.1-.6,3.3-.6s3.1.4,4.1,1.1c1,.8,1.7,1.8,2.1,3ZM441.8,291.5c-.5,0-.9,0-1.2-.1-.4,0-.6-.1-.7-.2l.7-2.4c.7.2,1.2.2,1.7.2.5,0,.9-.3,1.3-.7.4-.4.8-1,1.1-1.9l.5-1.4-6.5-17.5h2.9l4.8,13.9h.2l4.8-13.9h2.9l-7.4,20c-.3.9-.7,1.6-1.2,2.2-.5.6-1.1,1-1.7,1.3-.6.3-1.4.4-2.2.4ZM474.5,267.5v2.3h-9v-2.3h9ZM468.1,263.4h2.7v16.6c0,.8.1,1.3.3,1.7.2.4.5.6.9.8.4.1.7.2,1.1.2s.5,0,.7,0c.2,0,.3,0,.5,0l.5,2.4c-.2,0-.4.1-.8.2-.3,0-.7.1-1.2.1-.8,0-1.5-.2-2.2-.5-.7-.3-1.3-.8-1.8-1.5-.5-.7-.7-1.5-.7-2.5v-17.4ZM483.7,285.4c-1.1,0-2.1-.2-3-.6-.9-.4-1.6-1-2.1-1.8-.5-.8-.8-1.8-.8-2.9s.2-1.8.6-2.4c.4-.6.9-1.1,1.6-1.5.7-.4,1.4-.6,2.2-.8.8-.2,1.6-.3,2.4-.4,1.1-.1,1.9-.2,2.6-.3.7,0,1.2-.2,1.5-.4.3-.2.5-.5.5-.9h0c0-1.2-.3-2.1-.9-2.7-.6-.6-1.5-.9-2.8-.9s-2.3.3-3,.8c-.7.6-1.2,1.2-1.5,1.8l-2.5-.9c.5-1.1,1.1-1.9,1.8-2.5.8-.6,1.6-1,2.5-1.2.9-.2,1.8-.4,2.7-.4s1.2,0,1.9.2c.7.1,1.4.4,2.1.8.7.4,1.3,1,1.7,1.9.5.8.7,1.9.7,3.3v11.5h-2.7v-2.4h-.1c-.2.4-.5.8-.9,1.2-.4.4-1,.8-1.7,1.1-.7.3-1.6.5-2.6.5ZM484.1,283c1.1,0,2-.2,2.7-.6.7-.4,1.3-1,1.7-1.6.4-.7.6-1.4.6-2.1v-2.5c-.1.1-.4.3-.8.4-.4.1-.8.2-1.3.3-.5,0-1,.1-1.4.2-.5,0-.8,0-1.1.1-.7,0-1.3.2-2,.4-.6.2-1.1.5-1.5.9-.4.4-.5.9-.5,1.6s.3,1.6,1,2.1c.7.5,1.6.7,2.6.7ZM508.9,271.5l-2.4.7c-.2-.4-.4-.8-.7-1.2-.3-.4-.7-.7-1.2-1s-1.1-.4-1.9-.4-2,.2-2.7.7c-.7.5-1.1,1.1-1.1,1.9s.2,1.2.7,1.6c.5.4,1.2.7,2.3,1l2.6.6c1.6.4,2.7,1,3.5,1.7.8.8,1.1,1.8,1.1,3s-.3,1.9-.9,2.7c-.6.8-1.4,1.4-2.4,1.9-1,.5-2.2.7-3.6.7s-3.3-.4-4.4-1.2c-1.2-.8-1.9-1.9-2.2-3.4l2.5-.6c.2.9.7,1.6,1.4,2.1.7.5,1.6.7,2.7.7s2.2-.3,3-.8c.7-.5,1.1-1.2,1.1-1.9s-.2-1.1-.6-1.5c-.4-.4-1.1-.7-2-.9l-2.9-.7c-1.6-.4-2.8-1-3.5-1.8-.7-.8-1.1-1.8-1.1-3s.3-1.9.8-2.6c.6-.8,1.3-1.4,2.3-1.8,1-.4,2.1-.6,3.3-.6s3.1.4,4.1,1.1c1,.8,1.7,1.8,2.1,3ZM515.8,278.6v-3.3s.5,0,.5,0l7.6-7.8h3.3l-8.1,8.2h-.2l-3.1,2.9ZM513.3,285v-23.3h2.7v23.3h-2.7ZM524.4,285l-6.8-8.6,1.9-1.9,8.3,10.5h-3.4ZM532.6,285.2c-.6,0-1-.2-1.4-.6s-.6-.9-.6-1.4.2-1,.6-1.4c.4-.4.9-.6,1.4-.6s1,.2,1.4.6c.4.4.6.9.6,1.4s0,.7-.3,1c-.2.3-.4.6-.7.8-.3.2-.6.3-1,.3ZM547.6,264.2v-2.5h17.5v2.5h-7.3v20.8h-2.8v-20.8h-7.3ZM571.7,274.5v10.5h-2.7v-23.3h2.7v8.5h.2c.4-.9,1-1.6,1.8-2.1.8-.5,1.9-.8,3.3-.8s2.2.2,3.1.7c.9.5,1.6,1.2,2.1,2.2.5,1,.8,2.2.8,3.7v11.1h-2.7v-10.9c0-1.4-.4-2.5-1.1-3.2-.7-.8-1.7-1.1-3-1.1s-1.7.2-2.4.6c-.7.4-1.2.9-1.6,1.6-.4.7-.6,1.6-.6,2.6ZM595.2,285.4c-1.7,0-3.1-.4-4.4-1.1-1.2-.8-2.1-1.8-2.8-3.1-.7-1.3-1-2.9-1-4.7s.3-3.4,1-4.7c.7-1.4,1.6-2.4,2.8-3.2,1.2-.8,2.6-1.2,4.1-1.2s1.8.2,2.7.5c.9.3,1.7.8,2.4,1.5.7.7,1.3,1.6,1.7,2.7.4,1.1.6,2.5.6,4.1v1.1h-13.5v-2.3h10.7c0-1-.2-1.9-.6-2.6-.4-.8-.9-1.4-1.7-1.8-.7-.4-1.6-.7-2.5-.7s-2,.3-2.8.8c-.8.5-1.4,1.2-1.8,2s-.6,1.7-.6,2.7v1.5c0,1.3.2,2.4.7,3.4.5.9,1.1,1.6,1.9,2.1.8.5,1.8.7,2.9.7s1.3,0,1.9-.3c.6-.2,1.1-.5,1.5-.9.4-.4.7-.9,1-1.5l2.6.7c-.3.9-.7,1.7-1.4,2.3-.6.7-1.4,1.2-2.4,1.5-.9.4-2,.5-3.2.5ZM615.5,285v-17.5h2.7v17.5h-2.7ZM616.9,264.6c-.5,0-1-.2-1.4-.5-.4-.4-.6-.8-.6-1.3s.2-.9.6-1.3c.4-.4.8-.5,1.4-.5s1,.2,1.3.5c.4.4.6.8.6,1.3s-.2.9-.6,1.3c-.4.4-.8.5-1.3.5ZM623.1,285v-17.5h2.6v2.7h.2c.4-.9,1-1.7,1.8-2.2.8-.5,1.8-.8,2.9-.8s2.1.3,2.9.8c.8.5,1.4,1.2,1.8,2.2h.2c.4-.9,1.1-1.6,2-2.1.9-.5,2-.8,3.2-.8s2.8.5,3.8,1.5c1,1,1.5,2.5,1.5,4.5v11.7h-2.7v-11.7c0-1.3-.4-2.2-1.1-2.8-.7-.6-1.5-.8-2.5-.8s-2.2.4-2.9,1.1c-.7.7-1,1.7-1,2.8v11.4h-2.7v-12c0-1-.3-1.8-1-2.4-.6-.6-1.5-.9-2.5-.9s-1.3.2-2,.6c-.6.4-1.1.9-1.5,1.5-.4.7-.5,1.4-.5,2.3v10.9h-2.7ZM651,285v-17.5h2.6v2.7h.2c.4-.9,1-1.7,1.8-2.2.8-.5,1.8-.8,2.9-.8s2.1.3,2.9.8c.8.5,1.4,1.2,1.8,2.2h.2c.4-.9,1.1-1.6,2-2.1.9-.5,2-.8,3.2-.8s2.8.5,3.8,1.5c1,1,1.5,2.5,1.5,4.5v11.7h-2.7v-11.7c0-1.3-.4-2.2-1.1-2.8-.7-.6-1.5-.8-2.5-.8s-2.2.4-2.9,1.1c-.7.7-1,1.7-1,2.8v11.4h-2.7v-12c0-1-.3-1.8-1-2.4-.6-.6-1.5-.9-2.5-.9s-1.3.2-2,.6c-.6.4-1.1.9-1.5,1.5-.4.7-.5,1.4-.5,2.3v10.9h-2.7ZM678.8,285v-17.5h2.7v17.5h-2.7ZM680.1,264.6c-.5,0-1-.2-1.4-.5-.4-.4-.6-.8-.6-1.3s.2-.9.6-1.3c.4-.4.8-.5,1.4-.5s1,.2,1.3.5c.4.4.6.8.6,1.3s-.2.9-.6,1.3c-.4.4-.8.5-1.3.5ZM693.4,291.9c-1.3,0-2.4-.2-3.3-.5-.9-.3-1.7-.8-2.3-1.3-.6-.5-1.1-1.1-1.5-1.7l2.1-1.5c.2.3.5.7.9,1.1.4.4.9.8,1.5,1.1.7.3,1.5.5,2.6.5s2.6-.3,3.5-1c.9-.7,1.4-1.8,1.4-3.2v-3.5h-.2c-.2.3-.5.7-.8,1.2-.4.5-.9.9-1.5,1.2-.7.4-1.6.5-2.7.5s-2.7-.3-3.8-1c-1.1-.7-2-1.6-2.6-2.9-.6-1.3-1-2.8-1-4.6s.3-3.3.9-4.7c.6-1.3,1.5-2.4,2.6-3.1,1.1-.7,2.4-1.1,3.9-1.1s2,.2,2.7.6c.7.4,1.2.8,1.5,1.3.4.5.6.9.8,1.2h.3v-2.8h2.6v18c0,1.5-.3,2.7-1,3.7-.7.9-1.6,1.6-2.7,2.1-1.1.4-2.4.7-3.8.7ZM693.3,282.3c1.1,0,2-.2,2.7-.7.7-.5,1.3-1.2,1.7-2.1.4-.9.6-2,.6-3.3s-.2-2.4-.6-3.3c-.4-1-.9-1.7-1.7-2.3-.7-.5-1.7-.8-2.8-.8s-2.1.3-2.8.9c-.8.6-1.3,1.3-1.7,2.3-.4,1-.6,2-.6,3.2s.2,2.3.6,3.2c.4.9,1,1.7,1.7,2.2.8.5,1.7.8,2.8.8ZM705.9,285v-17.5h2.6v2.6h.2c.3-.9.9-1.6,1.7-2.1.8-.5,1.8-.8,2.8-.8s.4,0,.7,0c.3,0,.5,0,.7,0v2.7c0,0-.3,0-.6-.1-.3,0-.7,0-1,0-.8,0-1.6.2-2.3.5-.7.3-1.2.8-1.6,1.5-.4.6-.6,1.3-.6,2.1v11h-2.7ZM722.9,285.4c-1.1,0-2.1-.2-3-.6-.9-.4-1.6-1-2.1-1.8-.5-.8-.8-1.8-.8-2.9s.2-1.8.6-2.4c.4-.6.9-1.1,1.6-1.5.7-.4,1.4-.6,2.2-.8.8-.2,1.6-.3,2.4-.4,1.1-.1,1.9-.2,2.6-.3.7,0,1.2-.2,1.5-.4.3-.2.5-.5.5-.9h0c0-1.2-.3-2.1-.9-2.7-.6-.6-1.5-.9-2.8-.9s-2.3.3-3,.8c-.7.6-1.2,1.2-1.5,1.8l-2.5-.9c.5-1.1,1.1-1.9,1.8-2.5.8-.6,1.6-1,2.5-1.2.9-.2,1.8-.4,2.7-.4s1.2,0,1.9.2c.7.1,1.4.4,2.1.8.7.4,1.3,1,1.7,1.9.5.8.7,1.9.7,3.3v11.5h-2.7v-2.4h-.1c-.2.4-.5.8-.9,1.2-.4.4-1,.8-1.7,1.1-.7.3-1.6.5-2.6.5ZM723.3,283c1.1,0,2-.2,2.7-.6.7-.4,1.3-1,1.7-1.6.4-.7.6-1.4.6-2.1v-2.5c-.1.1-.4.3-.8.4-.4.1-.8.2-1.3.3-.5,0-1,.1-1.4.2-.5,0-.8,0-1.1.1-.7,0-1.3.2-2,.4-.6.2-1.1.5-1.5.9-.4.4-.5.9-.5,1.6s.3,1.6,1,2.1c.7.5,1.6.7,2.6.7ZM738.5,274.5v10.5h-2.7v-17.5h2.6v2.7h.2c.4-.9,1-1.6,1.9-2.1.8-.5,1.9-.8,3.2-.8s2.2.2,3.1.7c.9.5,1.6,1.2,2.1,2.2.5,1,.7,2.2.7,3.7v11.1h-2.7v-10.9c0-1.4-.4-2.4-1.1-3.2-.7-.8-1.7-1.2-2.9-1.2s-1.6.2-2.3.6c-.7.4-1.2.9-1.6,1.6-.4.7-.6,1.6-.6,2.6ZM762.1,267.5v2.3h-9v-2.3h9ZM755.7,263.4h2.7v16.6c0,.8.1,1.3.3,1.7.2.4.5.6.9.8.4.1.7.2,1.1.2s.5,0,.7,0c.2,0,.3,0,.5,0l.5,2.4c-.2,0-.4.1-.8.2-.3,0-.7.1-1.2.1-.8,0-1.5-.2-2.2-.5-.7-.3-1.3-.8-1.8-1.5-.5-.7-.7-1.5-.7-2.5v-17.4ZM778.2,271.5l-2.4.7c-.2-.4-.4-.8-.7-1.2-.3-.4-.7-.7-1.2-1s-1.1-.4-1.9-.4-2,.2-2.7.7c-.7.5-1.1,1.1-1.1,1.9s.2,1.2.7,1.6c.5.4,1.2.7,2.3,1l2.6.6c1.6.4,2.7,1,3.5,1.7.8.8,1.1,1.8,1.1,3s-.3,1.9-.9,2.7c-.6.8-1.4,1.4-2.4,1.9-1,.5-2.2.7-3.6.7s-3.3-.4-4.4-1.2c-1.2-.8-1.9-1.9-2.2-3.4l2.5-.6c.2.9.7,1.6,1.4,2.1.7.5,1.6.7,2.7.7s2.2-.3,3-.8c.7-.5,1.1-1.2,1.1-1.9s-.2-1.1-.6-1.5c-.4-.4-1.1-.7-2-.9l-2.9-.7c-1.6-.4-2.8-1-3.5-1.8-.7-.8-1.1-1.8-1.1-3s.3-1.9.8-2.6c.6-.8,1.3-1.4,2.3-1.8,1-.4,2.1-.6,3.3-.6s3.1.4,4.1,1.1c1,.8,1.7,1.8,2.1,3ZM795.5,285l-5.3-17.5h2.8l3.8,13.4h.2l3.7-13.4h2.9l3.7,13.3h.2l3.8-13.3h2.8l-5.3,17.5h-2.6l-3.8-13.4h-.3l-3.8,13.4h-2.6ZM817.5,285v-17.5h2.7v17.5h-2.7ZM818.9,264.6c-.5,0-1-.2-1.4-.5-.4-.4-.6-.8-.6-1.3s.2-.9.6-1.3c.4-.4.8-.5,1.4-.5s1,.2,1.3.5c.4.4.6.8.6,1.3s-.2.9-.6,1.3c-.4.4-.8.5-1.3.5ZM827.8,261.7v23.3h-2.7v-23.3h2.7ZM835.4,261.7v23.3h-2.7v-23.3h2.7ZM852,274.5v10.5h-2.7v-17.5h2.6v2.7h.2c.4-.9,1-1.6,1.9-2.1.8-.5,1.9-.8,3.2-.8s2.2.2,3.1.7c.9.5,1.6,1.2,2.1,2.2.5,1,.7,2.2.7,3.7v11.1h-2.7v-10.9c0-1.4-.4-2.4-1.1-3.2-.7-.8-1.7-1.2-2.9-1.2s-1.6.2-2.3.6c-.7.4-1.2.9-1.6,1.6s-.6,1.6-.6,2.6ZM875.1,285.4c-1.6,0-3-.4-4.1-1.1-1.2-.8-2.1-1.8-2.8-3.1-.7-1.3-1-2.9-1-4.7s.3-3.4,1-4.8c.7-1.4,1.6-2.4,2.8-3.2,1.2-.8,2.6-1.1,4.1-1.1s3,.4,4.1,1.1c1.2.8,2.1,1.8,2.8,3.2.7,1.4,1,2.9,1,4.8s-.3,3.4-1,4.7c-.7,1.3-1.6,2.4-2.8,3.1-1.2.8-2.6,1.1-4.1,1.1ZM875.1,283c1.2,0,2.2-.3,3-.9.8-.6,1.3-1.4,1.7-2.4.4-1,.6-2.1.6-3.2s-.2-2.3-.6-3.3c-.4-1-.9-1.8-1.7-2.4-.8-.6-1.8-.9-3-.9s-2.2.3-3,.9c-.8.6-1.3,1.4-1.7,2.4-.4,1-.6,2.1-.6,3.3s.2,2.2.6,3.2c.4,1,.9,1.8,1.7,2.4.8.6,1.8.9,3,.9ZM894.7,267.5v2.3h-9v-2.3h9ZM888.3,263.4h2.7v16.6c0,.8.1,1.3.3,1.7.2.4.5.6.9.8.4.1.7.2,1.1.2s.5,0,.7,0c.2,0,.3,0,.5,0l.5,2.4c-.2,0-.4.1-.8.2-.3,0-.7.1-1.2.1-.8,0-1.5-.2-2.2-.5-.7-.3-1.3-.8-1.8-1.5-.5-.7-.7-1.5-.7-2.5v-17.4ZM188.8,312.5l-2.4.7c-.2-.4-.4-.8-.7-1.2-.3-.4-.7-.7-1.2-1s-1.1-.4-1.9-.4-2,.2-2.7.7c-.7.5-1.1,1.1-1.1,1.9s.2,1.2.7,1.6c.5.4,1.2.7,2.3,1l2.6.6c1.6.4,2.7,1,3.5,1.7.8.8,1.1,1.8,1.1,3s-.3,1.9-.9,2.7c-.6.8-1.4,1.4-2.4,1.9-1,.5-2.2.7-3.6.7s-3.3-.4-4.4-1.2c-1.2-.8-1.9-1.9-2.2-3.4l2.5-.6c.2.9.7,1.6,1.4,2.1.7.5,1.6.7,2.7.7s2.2-.3,3-.8c.7-.5,1.1-1.2,1.1-1.9s-.2-1.1-.6-1.5c-.4-.4-1.1-.7-2-.9l-2.9-.7c-1.6-.4-2.8-1-3.5-1.8-.7-.8-1.1-1.8-1.1-3s.3-1.9.8-2.6c.6-.8,1.3-1.4,2.3-1.8,1-.4,2.1-.6,3.3-.6s3.1.4,4.1,1.1c1,.8,1.7,1.8,2.1,3ZM193.2,326v-17.5h2.7v17.5h-2.7ZM194.5,305.6c-.5,0-1-.2-1.4-.5-.4-.4-.6-.8-.6-1.3s.2-.9.6-1.3c.4-.4.8-.5,1.4-.5s1,.2,1.3.5c.4.4.6.8.6,1.3s-.2.9-.6,1.3c-.4.4-.8.5-1.3.5ZM208.4,308.5v2.3h-9v-2.3h9ZM201.9,304.4h2.7v16.6c0,.8.1,1.3.3,1.7.2.4.5.6.9.8.4.1.7.2,1.1.2s.5,0,.7,0c.2,0,.3,0,.5,0l.5,2.4c-.2,0-.4.1-.8.2-.3,0-.7.1-1.2.1-.8,0-1.5-.2-2.2-.5-.7-.3-1.3-.8-1.8-1.5-.5-.7-.7-1.5-.7-2.5v-17.4ZM233.8,312.5l-2.4.7c-.2-.4-.4-.8-.7-1.2-.3-.4-.7-.7-1.2-1s-1.1-.4-1.9-.4-2,.2-2.7.7c-.7.5-1.1,1.1-1.1,1.9s.2,1.2.7,1.6c.5.4,1.2.7,2.3,1l2.6.6c1.6.4,2.7,1,3.5,1.7.8.8,1.1,1.8,1.1,3s-.3,1.9-.9,2.7c-.6.8-1.4,1.4-2.4,1.9-1,.5-2.2.7-3.6.7s-3.3-.4-4.4-1.2c-1.2-.8-1.9-1.9-2.2-3.4l2.5-.6c.2.9.7,1.6,1.4,2.1.7.5,1.6.7,2.7.7s2.2-.3,3-.8c.7-.5,1.1-1.2,1.1-1.9s-.2-1.1-.6-1.5c-.4-.4-1.1-.7-2-.9l-2.9-.7c-1.6-.4-2.8-1-3.5-1.8-.7-.8-1.1-1.8-1.1-3s.3-1.9.8-2.6c.6-.8,1.3-1.4,2.3-1.8,1-.4,2.1-.6,3.3-.6s3.1.4,4.1,1.1c1,.8,1.7,1.8,2.1,3ZM245.7,308.5v2.3h-9v-2.3h9ZM239.3,304.4h2.7v16.6c0,.8.1,1.3.3,1.7.2.4.5.6.9.8.4.1.7.2,1.1.2s.5,0,.7,0c.2,0,.3,0,.5,0l.5,2.4c-.2,0-.4.1-.8.2-.3,0-.7.1-1.2.1-.8,0-1.5-.2-2.2-.5-.7-.3-1.3-.8-1.8-1.5-.5-.7-.7-1.5-.7-2.5v-17.4ZM249.7,326v-17.5h2.7v17.5h-2.7ZM251.1,305.6c-.5,0-1-.2-1.4-.5-.4-.4-.6-.8-.6-1.3s.2-.9.6-1.3c.4-.4.8-.5,1.4-.5s1,.2,1.3.5c.4.4.6.8.6,1.3s-.2.9-.6,1.3c-.4.4-.8.5-1.3.5ZM260,302.7v23.3h-2.7v-23.3h2.7ZM267.6,302.7v23.3h-2.7v-23.3h2.7ZM274.5,326.2c-.6,0-1-.2-1.4-.6-.4-.4-.6-.9-.6-1.4s.2-1,.6-1.4c.4-.4.9-.6,1.4-.6s1,.2,1.4.6c.4.4.6.9.6,1.4s0,.7-.3,1c-.2.3-.4.6-.7.8-.3.2-.6.3-1,.3Z"/>
      <path d="M206.3,66.4v43.6h-9.2v-34.9h-.3l-10,6.3v-8.2l10.8-6.8h8.7ZM227.6,110.6c-1.4,0-2.6-.5-3.6-1.5-1-1-1.5-2.2-1.5-3.6s.5-2.6,1.5-3.6c1-1,2.2-1.5,3.6-1.5s2.6.5,3.6,1.5c1,1,1.5,2.2,1.5,3.6s-.2,1.8-.7,2.6c-.5.8-1.1,1.4-1.9,1.9-.8.5-1.6.7-2.5.7ZM267.6,110h-9.9l15.1-43.6h11.9l15,43.6h-9.9l-10.9-33.7h-.3l-11,33.7ZM267,92.8h23.4v7.2h-23.4v-7.2ZM303.6,110v-32.7h8.8v5.7h.3c.6-2,1.6-3.6,3-4.6,1.4-1.1,3-1.6,4.9-1.6s.9,0,1.5,0,1,.1,1.4.2v8.1c-.4-.1-1-.2-1.8-.3-.8,0-1.4-.1-2.1-.1-1.3,0-2.5.3-3.6.9-1,.6-1.9,1.4-2.5,2.4-.6,1-.9,2.2-.9,3.5v18.5h-9.1ZM327,110v-32.7h8.8v5.7h.3c.6-2,1.6-3.6,3-4.6,1.4-1.1,3-1.6,4.9-1.6s.9,0,1.5,0c.5,0,1,.1,1.4.2v8.1c-.4-.1-1-.2-1.8-.3-.8,0-1.4-.1-2.1-.1-1.3,0-2.5.3-3.6.9-1,.6-1.9,1.4-2.5,2.4-.6,1-.9,2.2-.9,3.5v18.5h-9.1ZM363.7,110.6c-3.4,0-6.3-.7-8.7-2-2.4-1.4-4.3-3.3-5.6-5.8-1.3-2.5-2-5.5-2-9s.7-6.3,2-8.9c1.3-2.5,3.1-4.5,5.5-5.9,2.4-1.4,5.2-2.1,8.4-2.1s4.2.3,6,1c1.9.7,3.5,1.7,4.9,3.1,1.4,1.4,2.5,3.1,3.3,5.2.8,2.1,1.2,4.5,1.2,7.3v2.5h-27.6v-5.6h19.1c0-1.3-.3-2.5-.9-3.5s-1.4-1.8-2.4-2.4c-1-.6-2.2-.9-3.5-.9s-2.6.3-3.7,1c-1.1.6-1.9,1.5-2.5,2.5-.6,1.1-.9,2.2-.9,3.5v5.3c0,1.6.3,3,.9,4.2.6,1.2,1.5,2.1,2.6,2.7s2.4,1,3.9,1,1.9-.1,2.8-.4c.8-.3,1.6-.7,2.2-1.3.6-.6,1.1-1.3,1.4-2.1l8.4.6c-.4,2-1.3,3.8-2.6,5.3-1.3,1.5-3,2.7-5.1,3.5-2.1.8-4.4,1.2-7.1,1.2ZM410.7,86.6l-8.3.5c-.1-.7-.4-1.3-.9-1.9-.5-.6-1.1-1-1.9-1.4-.8-.4-1.7-.5-2.7-.5s-2.6.3-3.6.9c-1,.6-1.4,1.4-1.4,2.3s.3,1.4.9,2c.6.5,1.7,1,3.2,1.3l5.9,1.2c3.2.7,5.6,1.7,7.1,3.2,1.6,1.4,2.3,3.4,2.3,5.7s-.6,4-1.9,5.6c-1.2,1.6-3,2.9-5.2,3.8-2.2.9-4.7,1.3-7.5,1.3-4.3,0-7.8-.9-10.4-2.7-2.6-1.8-4.1-4.3-4.5-7.4l8.9-.5c.3,1.3.9,2.3,2,3,1,.7,2.4,1,4,1s2.9-.3,3.8-.9c1-.6,1.5-1.4,1.5-2.4,0-.8-.4-1.5-1-2-.7-.5-1.7-1-3.2-1.2l-5.7-1.1c-3.2-.6-5.6-1.7-7.1-3.3-1.5-1.6-2.3-3.6-2.3-6s.6-3.9,1.7-5.4c1.2-1.5,2.8-2.7,4.8-3.5,2.1-.8,4.5-1.2,7.3-1.2,4.1,0,7.4.9,9.8,2.6,2.4,1.7,3.8,4.1,4.2,7.1ZM433.4,77.3v6.8h-19.7v-6.8h19.7ZM418.1,69.4h9.1v30.5c0,.8.1,1.5.4,2,.3.5.6.8,1.1,1,.5.2,1,.3,1.6.3s.9,0,1.3-.1c.4,0,.8-.1,1-.2l1.4,6.8c-.5.1-1.1.3-1.9.5-.8.2-1.8.3-3,.4-2.2,0-4.1-.2-5.8-.9-1.6-.7-2.9-1.7-3.8-3.1-.9-1.4-1.4-3.2-1.3-5.3v-31.7Z"/>
    </g>
  </g>
</svg>